<?xml version="1.0" standalone="no"?>
<!DOCTYPE svg PUBLIC "-//W3C//DTD SVG 1.1//EN" "http://www.w3.org/Graphics/SVG/1.1/DTD/svg11.dtd" >
<svg xmlns="http://www.w3.org/2000/svg" xmlns:xlink="http://www.w3.org/1999/xlink" version="1.1">
<metadata>
Created by FontForge 20200314 at Thu Jul 13 05:42:15 2017
 By www-data
Copyright 2015 Indian Type Foundry. All rights reserved.
</metadata>
<defs>
<font id="KohinoorBangla-Medium" horiz-adv-x="0" >
  <font-face 
    font-family="Kohinoor Bangla"
    font-weight="500"
    font-stretch="normal"
    units-per-em="1000"
    panose-1="2 0 0 0 0 0 0 0 0 0"
    ascent="800"
    descent="-200"
    x-height="550"
    cap-height="701"
    bbox="-570 -395 1505 1151"
    underline-thickness="50"
    underline-position="-150"
    unicode-range="U+0020-FB02"
  />
<missing-glyph horiz-adv-x="619" 
d="M94 0v650h431v-650h-431zM448 573h-277v-496h277v496z" />
    <glyph glyph-name="fi" unicode="fi" horiz-adv-x="610" 
d="M514 740l-25 -76q-67 26 -165 26q-62 0 -86 -21.5t-24 -66.5v-52h318v-550h-99v477h-221v-477h-99v477h-88v73h90v56q0 165 217 165q123 0 182 -31z" />
    <glyph glyph-name="fl" unicode="fl" horiz-adv-x="646" 
d="M532 732v-589q0 -34 12.5 -49.5t40.5 -15.5q15 0 39 8v-81q-31 -13 -69 -13q-60 0 -91 33t-31 92v562q-49 11 -109 11q-61 0 -85.5 -21.5t-24.5 -66.5v-52h117v-73h-119v-477h-99v477h-88v73h90v56q0 165 217 165q134 0 200 -39z" />
    <glyph glyph-name="f_f" unicode="ff" horiz-adv-x="687" 
d="M434 550v70q0 32 8 53q-59 17 -118 17q-62 0 -86 -21.5t-24 -66.5v-52h220zM689 761l-17 -82q-37 10 -71 10q-68 0 -68 -70v-69h136v-73h-137v-477h-99v477h-221v-477h-99v477h-88v73h90v56q0 165 216 165q100 0 160 -29q43 30 112 30q46 0 86 -11z" />
    <glyph glyph-name="f_f_i" unicode="ffi" horiz-adv-x="930" 
d="M434 550v56q0 35 11 66q-54 18 -121 18q-62 0 -86 -21.5t-24 -66.5v-52h220zM834 740l-25 -76q-67 26 -166 26q-61 0 -85.5 -21.5t-24.5 -66.5v-52h318v-550h-99v477h-220v-477h-99v477h-221v-477h-99v477h-88v73h90v56q0 165 216 165q105 0 168 -34q54 34 152 34
q123 0 183 -31z" />
    <glyph glyph-name="f_f_l" unicode="ffl" horiz-adv-x="965" 
d="M434 550v56q0 35 11 66q-54 18 -121 18q-62 0 -86 -21.5t-24 -66.5v-52h220zM851 732v-589q0 -65 54 -65q17 0 38 8v-81q-31 -13 -69 -13q-59 0 -90.5 33t-31.5 92v562q-47 11 -108 11q-62 0 -86.5 -21.5t-24.5 -66.5v-52h117v-73h-118v-477h-99v477h-221v-477h-99v477
h-88v73h90v56q0 165 216 165q105 0 168 -34q54 34 152 34q136 0 200 -39z" />
    <glyph glyph-name=".notdef" horiz-adv-x="619" 
d="M94 0v650h431v-650h-431zM448 573h-277v-496h277v496z" />
    <glyph glyph-name=".null" 
 />
    <glyph glyph-name="nonmarkingreturn" horiz-adv-x="333" 
 />
    <glyph glyph-name="space" unicode=" " horiz-adv-x="286" 
 />
    <glyph glyph-name="exclam" unicode="!" horiz-adv-x="311" 
d="M200 256h-79l-23 460h124zM92 66q0 30 20 50.5t49 20.5q30 0 50 -20.5t20 -50.5q0 -28 -20 -48t-50 -20q-28 0 -48.5 20t-20.5 48z" />
    <glyph glyph-name="quotedbl" unicode="&#x22;" horiz-adv-x="348" 
d="M129 486h-71l-18 232h107zM290 486h-72l-17 232h107z" />
    <glyph glyph-name="numbersign" unicode="#" horiz-adv-x="677" 
d="M42 273h118l26 154h-115l6 77h121l31 190h86l-31 -190h175l31 190h87l-31 -190h96l-7 -77h-101l-25 -154h98l-7 -77h-103l-32 -196h-86l31 196h-175l-31 -196h-87l32 196h-114zM273 427l-27 -154h176l25 154h-174z" />
    <glyph glyph-name="dollar" unicode="$" horiz-adv-x="535" 
d="M309 -134h-87l2 137q-115 8 -196 75l58 79q75 -68 177 -68q64 0 95.5 26t31.5 69q0 39 -28.5 63t-92.5 53l-61 27q-71 31 -108 74t-37 108q0 73 49.5 121.5t125.5 60.5l-2 135h87l-2 -133q93 -9 153 -62l-61 -74q-52 50 -134 50q-54 0 -84.5 -24.5t-30.5 -66.5
q0 -39 27.5 -64.5t85.5 -51.5l54 -25q82 -38 121 -76.5t39 -105.5q0 -69 -47.5 -121.5t-136.5 -65.5z" />
    <glyph glyph-name="percent" unicode="%" horiz-adv-x="840" 
d="M193 23l-52 46l520 609l53 -46zM796 184q0 -95 -43.5 -144.5t-115.5 -49.5q-74 0 -114.5 47.5t-40.5 143.5q0 92 43.5 141t116.5 49q72 0 113 -47t41 -140zM640 55q39 0 57.5 29.5t18.5 95.5q0 127 -80 127q-74 0 -74 -125q0 -127 78 -127zM203 387q39 0 57 30t18 95
q0 126 -79 126q-75 0 -75 -125q0 -126 79 -126zM358 516q0 -95 -43 -144.5t-116 -49.5t-113.5 47t-40.5 143q0 93 43 142t116 49t113.5 -47t40.5 -140z" />
    <glyph glyph-name="ampersand" unicode="&#x26;" horiz-adv-x="692" 
d="M34 181q0 136 166 194q-63 70 -63 150q0 72 51 121.5t133 49.5q81 0 129.5 -48t48.5 -121q0 -63 -38.5 -112.5t-120.5 -74.5q62 -68 162 -156q47 72 47 181h88q-2 -137 -71 -234q35 -31 145 -117v-14h-122q-41 30 -82 65q-87 -81 -233 -81q-118 0 -179 59t-61 138z
M284 64q100 0 159 56q-130 120 -193 190q-121 -33 -121 -122q0 -51 41 -87.5t114 -36.5zM227 525q0 -68 59 -124q69 20 96.5 50t27.5 74q0 39 -24.5 65t-66.5 26q-41 0 -66.5 -24t-25.5 -67z" />
    <glyph glyph-name="quotesingle" unicode="'" horiz-adv-x="187" 
d="M129 486h-71l-18 232h107z" />
    <glyph glyph-name="parenleft" unicode="(" horiz-adv-x="333" 
d="M79 294q0 103 25 198.5t61.5 160.5t67.5 105t54 59h99v-9q-94 -88 -156.5 -221t-62.5 -293t62.5 -293t156.5 -220v-10h-99q-23 20 -53.5 60t-67.5 105.5t-62 160.5t-25 197z" />
    <glyph glyph-name="parenright" unicode=")" horiz-adv-x="333" 
d="M254 294q0 -83 -17 -162.5t-41.5 -136.5t-55 -106t-53.5 -76t-41 -42h-98v10q94 88 156.5 220.5t62.5 292.5q0 159 -62.5 292t-156.5 222v9h99q17 -15 40 -41.5t53.5 -75.5t55 -106t41.5 -137t17 -163z" />
    <glyph glyph-name="asterisk" unicode="*" horiz-adv-x="406" 
d="M243 638l-10 -77l70 34l55 18l24 -77l-54 -18l-76 -14l54 -57l34 -46l-66 -47l-34 46l-37 67l-37 -67l-34 -47l-65 48l34 47l53 55l-76 15l-55 18l25 76l55 -17l69 -33l-9 76v58h80v-58z" />
    <glyph glyph-name="plus" unicode="+" horiz-adv-x="533" 
d="M29 301v83h194v196h86v-196h195v-83h-195v-196h-86v196h-194z" />
    <glyph glyph-name="comma" unicode="," horiz-adv-x="253" 
d="M72 -154l-23 44q41 16 64 42t23 53q0 15 -5.5 26.5t-20.5 23t-22 15.5t-29 16v6q0 31 20 51.5t52 20.5q39 0 63.5 -28t24.5 -75q0 -72 -45 -124t-102 -71z" />
    <glyph glyph-name="hyphen" unicode="-" horiz-adv-x="348" 
d="M325 262h-302v85h302v-85z" />
    <glyph glyph-name="period" unicode="." horiz-adv-x="241" 
d="M48 68q0 31 21 52.5t50 21.5q31 0 52.5 -21t21.5 -53q0 -29 -21.5 -50t-52.5 -21q-29 0 -50 21t-21 50z" />
    <glyph glyph-name="slash" unicode="/" horiz-adv-x="353" 
d="M270 730h87l-275 -872h-86z" />
    <glyph glyph-name="zero" unicode="0" horiz-adv-x="549" 
d="M270 -9q-116 0 -168 81t-52 253q0 342 229 342q115 0 167.5 -82t52.5 -254q0 -340 -229 -340zM149 331q0 -131 30 -193t97 -62q69 0 96.5 58.5t27.5 190.5q0 130 -30.5 193t-97.5 63q-69 0 -96 -59t-27 -191z" />
    <glyph glyph-name="one" unicode="1" horiz-adv-x="421" 
d="M209 658h102v-658h-98v378l4 180h-4l-77 -60l-69 -48l-55 78z" />
    <glyph glyph-name="two" unicode="2" horiz-adv-x="483" 
d="M150 86v-4l107 3h181v-85h-389l-16 85q36 33 125 132t105 122q62 75 62 145q0 46 -25 70.5t-67 24.5q-78 0 -91 -92l-100 20q12 69 62 113t135 44q88 0 138 -45.5t50 -123.5q0 -104 -90 -212q-66 -77 -93 -104q-2 -2 -43.5 -44.5t-50.5 -48.5z" />
    <glyph glyph-name="three" unicode="3" horiz-adv-x="491" 
d="M320 340v-3q52 -6 85.5 -40.5t33.5 -104.5q0 -96 -58 -148.5t-162 -52.5q-72 0 -123 32.5t-73 80.5l89 48q38 -76 119 -76q112 0 112 111q0 54 -33.5 78t-103.5 24h-43v83h42q62 0 89.5 27t27.5 85q0 45 -24 71.5t-71 26.5q-82 0 -95 -83l-95 13q9 67 60 110.5t131 43.5
q92 0 142 -44.5t50 -129.5q0 -62 -28 -101t-72 -51z" />
    <glyph glyph-name="four" unicode="4" horiz-adv-x="509" 
d="M306 154h-262l-22 81l259 423h119v-421h92v-83h-92v-154h-94v154zM314 556h-4l-67 -123l-120 -196h183v171z" />
    <glyph glyph-name="five" unicode="5" horiz-adv-x="516" 
d="M250 -9q-146 0 -203 121l96 44q33 -80 115 -80q55 0 82.5 34t27.5 96q0 123 -113 123q-52 0 -86 -36l-93 33l28 332h331v-85h-245l-17 -194l4 -1q38 31 101 31q93 0 141 -49t48 -144q0 -104 -58.5 -164.5t-158.5 -60.5z" />
    <glyph glyph-name="six" unicode="6" horiz-adv-x="519" 
d="M188 410l3 -2q33 20 93 20q88 0 139 -51.5t51 -153.5q0 -106 -58.5 -169t-155.5 -63q-205 0 -205 247q0 135 65.5 246.5t158.5 173.5h132v-12q-161 -94 -223 -236zM259 345q-52 0 -100 -24q-7 -31 -7 -80q0 -89 32 -128.5t85 -39.5q107 0 107 137q0 135 -117 135z" />
    <glyph glyph-name="seven" unicode="7" horiz-adv-x="437" 
d="M307 567v4q-49 -3 -115 -3h-191v90h392l19 -96l-124 -236q-81 -157 -81 -300v-26h-98v27q0 148 85 325l53 107q13 25 34.5 62.5t25.5 45.5z" />
    <glyph glyph-name="eight" unicode="8" horiz-adv-x="545" 
d="M272 373q105 0 105 112q0 46 -27 73t-78 27t-77.5 -26t-26.5 -73q0 -54 26.5 -83.5t77.5 -29.5zM270 -9q-217 0 -217 185q0 64 32.5 103t84.5 55v4q-42 10 -69.5 47.5t-27.5 98.5q0 88 55 135.5t147 47.5q93 0 145 -44t52 -130q0 -116 -99 -150v-4q51 -10 84.5 -46.5
t33.5 -105.5q0 -96 -58.5 -146t-162.5 -50zM270 293q-61 0 -90 -29.5t-29 -81.5q0 -53 31 -82t91 -29q121 0 121 111t-124 111z" />
    <glyph glyph-name="nine" unicode="9" horiz-adv-x="505" 
d="M325 254l-2 3q-38 -19 -93 -19q-88 0 -141 50.5t-53 150.5q0 106 59.5 167t156.5 61q203 0 203 -245q0 -134 -65 -248t-155 -174h-133v12q165 97 223 242zM252 321q53 0 99 27q6 32 6 70q0 165 -114 165q-109 0 -109 -130q0 -132 118 -132z" />
    <glyph glyph-name="colon" unicode=":" horiz-adv-x="241" 
d="M48 466q0 31 21 52.5t50 21.5q31 0 52.5 -21t21.5 -53q0 -29 -21.5 -50t-52.5 -21q-29 0 -50 21t-21 50zM48 73q0 31 21 52.5t50 21.5q31 0 52.5 -21.5t21.5 -52.5q0 -29 -21.5 -50t-52.5 -21q-29 0 -50 21t-21 50z" />
    <glyph glyph-name="semicolon" unicode=";" horiz-adv-x="253" 
d="M55 467q0 31 21 52.5t50 21.5q32 0 53 -21.5t21 -52.5q0 -29 -21.5 -50t-52.5 -21q-29 0 -50 21t-21 50zM64 -157l-23 45q41 15 64 41t23 53q0 6 -1.5 12t-3 11t-5.5 10t-6 8t-8.5 8t-9 7t-11 7t-10.5 6t-11.5 6t-10.5 6v6q0 31 20 51.5t52 20.5q39 0 63 -28t24 -75
q0 -71 -44.5 -123t-101.5 -72z" />
    <glyph glyph-name="less" unicode="&#x3c;" horiz-adv-x="533" 
d="M138 345l144 -57l222 -95v-101l-475 213v83l475 214v-101l-221 -96l-145 -56v-4z" />
    <glyph glyph-name="equal" unicode="=" horiz-adv-x="533" 
d="M29 414v84h475v-84h-475zM29 187v84h475v-84h-475z" />
    <glyph glyph-name="greater" unicode="&#x3e;" horiz-adv-x="533" 
d="M395 348l-145 57l-221 96v101l475 -213v-84l-475 -213v101l221 95l145 56v4z" />
    <glyph glyph-name="question" unicode="?" horiz-adv-x="501" 
d="M257 637q-70 0 -120 -55l-66 76q67 67 193 67q88 0 138 -42.5t50 -119.5q0 -63 -25.5 -106.5t-81.5 -92.5l-124 -112q-45 16 -45 58q0 23 18 45.5t43.5 42.5t51 41.5t43.5 50t18 59.5q0 41 -24.5 64.5t-68.5 23.5zM194 66q0 30 20 50.5t48 20.5q31 0 50.5 -19.5
t19.5 -51.5q0 -29 -20 -48.5t-50 -19.5q-29 0 -48.5 19.5t-19.5 48.5z" />
    <glyph glyph-name="at" unicode="@" horiz-adv-x="945" 
d="M638 -87q-84 -53 -215 -53q-174 0 -267.5 93.5t-93.5 256.5q0 128 59.5 234t165 167.5t235.5 61.5q164 0 262.5 -87.5t98.5 -232.5q0 -129 -63.5 -213t-167.5 -84q-78 0 -102 53h-4q-42 -53 -117 -53q-74 0 -110.5 43.5t-36.5 113.5q0 127 72.5 195t172.5 68
q82 0 133 -32l-31 -201q-7 -40 -7 -66q0 -44 42 -44q59 0 95 62.5t36 146.5q0 120 -75 185.5t-211 65.5q-152 0 -255 -110t-103 -263q0 -138 73.5 -209.5t213.5 -71.5q100 0 166 45zM447 132q29 0 53.5 14.5t36.5 36.5q0 23 5 51l23 157q-24 8 -49 8q-63 0 -104.5 -48
t-41.5 -122q0 -97 77 -97z" />
    <glyph glyph-name="A" unicode="A" horiz-adv-x="615" 
d="M261 477l-61 -198h213l-60 195q-36 124 -45 157h-4q-6 -23 -43 -154zM232 701h150l224 -701h-107l-59 192h-267l-60 -192h-103z" />
    <glyph glyph-name="B" unicode="B" horiz-adv-x="615" 
d="M423 362q58 -7 95.5 -47.5t37.5 -111.5q0 -90 -59 -146.5t-190 -56.5h-218v701h225q93 0 150 -42.5t57 -137.5q0 -60 -27.5 -101.5t-70.5 -53.5v-4zM422 509q0 106 -124 106h-110v-217h111q123 0 123 111zM319 86q134 0 134 112q0 113 -139 113h-126v-225h131z" />
    <glyph glyph-name="C" unicode="C" horiz-adv-x="575" 
d="M57 345q0 173 75.5 269.5t217.5 96.5q124 0 196 -65l-65 -76q-54 52 -139 52q-182 0 -182 -270q0 -133 48.5 -202.5t142.5 -69.5q86 0 133 47l56 -71q-62 -66 -201 -66q-144 0 -213 93.5t-69 261.5z" />
    <glyph glyph-name="D" unicode="D" horiz-adv-x="654" 
d="M91 0v701h193q162 0 238 -83.5t76 -257.5q0 -170 -75.5 -265t-238.5 -95h-193zM191 614v-527h89q113 0 163.5 63t50.5 199q0 143 -55 204t-163 61h-85z" />
    <glyph glyph-name="E" unicode="E" horiz-adv-x="538" 
d="M488 0h-397v701h384v-87h-284v-215h248v-87h-248v-225h297v-87z" />
    <glyph glyph-name="F" unicode="F" horiz-adv-x="505" 
d="M192 0h-101v701h382v-87h-281v-237h246v-87h-246v-290z" />
    <glyph glyph-name="G" unicode="G" horiz-adv-x="642" 
d="M367 711q135 0 201 -66l-65 -74q-54 50 -141 50q-40 0 -73.5 -12t-64 -40t-47.5 -82t-17 -130q0 -147 50 -214t151 -67q72 0 107 22v260h101v-305q-80 -63 -229 -63q-283 0 -283 357q0 181 86 272.5t224 91.5z" />
    <glyph glyph-name="H" unicode="H" horiz-adv-x="698" 
d="M506 701h101v-701h-101v310h-315v-310h-100v701h100v-304h315v304z" />
    <glyph glyph-name="I" unicode="I" horiz-adv-x="300" 
d="M100 0v701h101v-701h-101z" />
    <glyph glyph-name="J" unicode="J" horiz-adv-x="404" 
d="M9 11l32 91q42 -25 95 -25q42 0 59.5 19t17.5 61v544h101v-549q0 -74 -44.5 -119.5t-135.5 -45.5q-80 0 -125 24z" />
    <glyph glyph-name="K" unicode="K" horiz-adv-x="598" 
d="M191 701v-701h-100v701h100zM211 353l236 348h117l-240 -348l262 -353h-127l-248 349v4z" />
    <glyph glyph-name="L" unicode="L" horiz-adv-x="496" 
d="M91 701h100v-614h289v-87h-389v701z" />
    <glyph glyph-name="M" unicode="M" horiz-adv-x="866" 
d="M432 237h5l181 464h157v-701h-98v582h-5q-35 -90 -101.5 -257.5t-90.5 -228.5h-97l-191 486h-6v-582h-95v701h160z" />
    <glyph glyph-name="N" unicode="N" horiz-adv-x="708" 
d="M189 578h-6q5 -105 5 -203v-375h-97v701h133l209 -395q63 -122 86 -174h6q-3 74 -3 211v358h95v-701h-130l-214 403q-29 55 -84 175z" />
    <glyph glyph-name="O" unicode="O" horiz-adv-x="668" 
d="M160 355q0 -148 45.5 -212.5t130.5 -64.5q84 0 127.5 61.5t43.5 207.5q0 148 -45 212t-131 64q-82 0 -126.5 -61t-44.5 -207zM611 354q0 -187 -74.5 -275.5t-207.5 -88.5q-132 0 -202 84.5t-70 272.5q0 186 74.5 275t206.5 89q273 0 273 -357z" />
    <glyph glyph-name="P" unicode="P" horiz-adv-x="571" 
d="M303 701q232 0 232 -203q0 -107 -62.5 -168t-188.5 -61h-93v-269h-100v701h212zM283 613h-92v-258h91q81 0 115 33t34 97q0 67 -36.5 97.5t-111.5 30.5z" />
    <glyph glyph-name="Q" unicode="Q" horiz-adv-x="680" 
d="M469 17l187 -114l-100 -57l-200 147q-151 -7 -222.5 84t-71.5 270q0 186 74.5 275t207.5 89q275 0 275 -357q0 -137 -40 -220.5t-110 -112.5v-4zM165 355q0 -277 177 -277q85 0 129 61t44 208q0 149 -45 212.5t-132 63.5q-84 0 -128.5 -61t-44.5 -207z" />
    <glyph glyph-name="R" unicode="R" horiz-adv-x="600" 
d="M91 701h191q236 0 236 -200q0 -83 -44 -133t-111 -59v-4q45 -21 87 -94l123 -211h-121l-124 225q-31 57 -96 57h-41v-282h-100v701zM191 614v-248h81q143 0 143 126q0 64 -37 93t-110 29h-77z" />
    <glyph glyph-name="S" unicode="S" horiz-adv-x="544" 
d="M267 79q62 0 95.5 28.5t33.5 73.5q0 34 -24.5 60t-61 42t-79.5 37.5t-79.5 43.5t-61 61.5t-24.5 91.5q0 83 63.5 138.5t161.5 55.5q120 0 190 -66l-62 -77q-61 53 -135 53q-54 0 -85 -27t-31 -70q0 -34 24.5 -61t61.5 -43t79.5 -37.5t79.5 -43.5t61.5 -61.5t24.5 -90.5
q0 -83 -64.5 -140t-178.5 -57q-143 0 -227 77l59 83q85 -71 179 -71z" />
    <glyph glyph-name="T" unicode="T" horiz-adv-x="486" 
d="M193 0v614h-184v87h468v-87h-183v-614h-101z" />
    <glyph glyph-name="U" unicode="U" horiz-adv-x="686" 
d="M347 78q150 0 150 162v461h101v-448q0 -131 -71 -197t-193 -66q-120 0 -183 65.5t-63 179.5v466h100v-449q0 -174 159 -174z" />
    <glyph glyph-name="V" unicode="V" horiz-adv-x="619" 
d="M237 0l-228 701h111l146 -468q27 -86 45 -153h4q19 74 43 154l146 467h106l-229 -701h-144z" />
    <glyph glyph-name="W" unicode="W" horiz-adv-x="936" 
d="M258 104h4q11 55 41 181l100 416h134l104 -419q26 -108 40 -177h4q23 121 42 195l100 401h101l-181 -701h-134l-100 408q-29 117 -43 192h-4q-18 -94 -39 -178l-104 -422h-135l-179 701h106l100 -390q34 -144 43 -207z" />
    <glyph glyph-name="X" unicode="X" horiz-adv-x="600" 
d="M298 276h-5l-164 -276h-115l228 359l-216 342h122l153 -258h5l150 258h115l-214 -340l229 -361h-120z" />
    <glyph glyph-name="Y" unicode="Y" horiz-adv-x="566" 
d="M567 701l-234 -456v-245h-100v245l-234 456h114l170 -353h4l171 353h109z" />
    <glyph glyph-name="Z" unicode="Z" horiz-adv-x="527" 
d="M150 93v-4h342v-89h-450l-16 86l342 522v4h-308v89h413l16 -86z" />
    <glyph glyph-name="bracketleft" unicode="[" horiz-adv-x="323" 
d="M187 745v-902h127v-71h-216v1044h216v-71h-127z" />
    <glyph glyph-name="backslash" unicode="\" horiz-adv-x="353" 
d="M83 730l274 -872h-86l-275 872h87z" />
    <glyph glyph-name="bracketright" unicode="]" horiz-adv-x="323" 
d="M136 745h-127v71h216v-1044h-216v71h127v902z" />
    <glyph glyph-name="asciicircum" unicode="^" horiz-adv-x="539" 
d="M267 626l-56 -145l-77 -180h-97l177 400h111l177 -399h-99l-76 180l-56 144h-4z" />
    <glyph glyph-name="underscore" unicode="_" horiz-adv-x="496" 
d="M496 -125h-496v79h496v-79z" />
    <glyph glyph-name="grave" unicode="`" horiz-adv-x="504" 
d="M118 749l92 53l175 -136l-57 -44z" />
    <glyph glyph-name="a" unicode="a" horiz-adv-x="545" 
d="M354 133v109q-95 5 -151.5 -19.5t-56.5 -76.5q0 -34 23 -56t64 -22q39 0 71 18.5t50 46.5zM251 559q196 0 196 -172v-240q0 -71 49 -71h15v-71q-19 -10 -42 -10q-75 0 -100 65h-4q-58 -70 -157 -70q-74 0 -117 43.5t-43 103.5q0 91 81 136.5t225 41.5v55q0 58 -26.5 81.5
t-78.5 23.5q-79 0 -116 -65l-71 55q70 94 189 94z" />
    <glyph glyph-name="b" unicode="b" horiz-adv-x="567" 
d="M79 21v738h98v-243h4q47 39 125 39q96 0 154 -64t58 -201q0 -136 -70.5 -218t-203.5 -82q-101 0 -165 31zM256 73q76 0 119.5 52t43.5 154q0 192 -138 192q-69 0 -103 -47v-338q32 -13 78 -13z" />
    <glyph glyph-name="c" unicode="c" horiz-adv-x="481" 
d="M49 268q0 145 65.5 218.5t174.5 73.5q115 0 167 -64l-66 -69q-43 48 -104 48q-135 0 -135 -197q0 -203 135 -203q65 0 103 47l62 -64q-56 -67 -174 -67q-228 0 -228 277z" />
    <glyph glyph-name="d" unicode="d" horiz-adv-x="570" 
d="M393 541v218h98v-759h-75l-19 53h-4q-18 -25 -55 -44t-86 -19q-95 0 -149 64.5t-54 195.5q0 150 70.5 225.5t184.5 75.5q43 0 89 -10zM277 72q82 0 117 76v304q-32 15 -80 15q-81 0 -122.5 -48.5t-41.5 -158.5q0 -98 35.5 -143t91.5 -45z" />
    <glyph glyph-name="e" unicode="e" horiz-adv-x="551" 
d="M435 119l44 -74q-69 -53 -182 -53q-124 0 -186 69t-62 216q0 138 67.5 210.5t173.5 72.5q98 0 152 -58.5t54 -159.5q0 -50 -5 -96h-344q4 -90 43.5 -131t118.5 -41q77 0 126 45zM284 479q-57 0 -94 -39.5t-41 -119.5h251q1 16 1 30q-2 129 -117 129z" />
    <glyph glyph-name="f" unicode="f" horiz-adv-x="368" 
d="M369 761l-17 -82q-35 10 -71 10t-51.5 -17t-15.5 -53v-69h135v-73h-137v-477h-99v477h-88v73h90v70q0 69 42.5 110.5t126.5 41.5q46 0 85 -11z" />
    <glyph glyph-name="g" unicode="g" horiz-adv-x="567" 
d="M488 526v-522q0 -107 -63 -162.5t-171 -55.5q-132 0 -193 63l57 77q49 -56 143 -56q69 0 99.5 32.5t30.5 102.5v44h-4q-45 -40 -126 -40q-94 0 -153 61.5t-59 195.5q0 132 68.5 211t199.5 79q108 0 171 -30zM390 459q-34 14 -81 14q-75 0 -117.5 -50.5t-42.5 -148.5
q0 -182 136 -182q67 0 105 47v320z" />
    <glyph glyph-name="h" unicode="h" horiz-adv-x="585" 
d="M337 558q80 0 126 -47t46 -133v-378h-99v360q0 51 -25.5 81t-75.5 30q-45 0 -80.5 -25t-50.5 -61v-385h-99v759h99v-268h4q58 67 155 67z" />
    <glyph glyph-name="i" unicode="i" horiz-adv-x="291" 
d="M98 0v550h99v-550h-99zM79 705q0 29 19 48t46 19q29 0 47.5 -19t18.5 -48q0 -27 -19 -45.5t-47 -18.5q-27 0 -46 18.5t-19 45.5z" />
    <glyph glyph-name="j" unicode="j" horiz-adv-x="264" 
d="M6 -221l-33 81q56 21 83 60.5t27 129.5v500h99v-503q0 -213 -176 -268zM64 705q0 29 19 48t46 19q29 0 47.5 -19t18.5 -48q0 -27 -19 -45.5t-47 -18.5q-27 0 -46 18.5t-19 45.5z" />
    <glyph glyph-name="k" unicode="k" horiz-adv-x="522" 
d="M178 759v-759h-99v759h99zM189 285v4l184 261h119l-191 -259v-4l200 -287h-122z" />
    <glyph glyph-name="l" unicode="l" horiz-adv-x="296" 
d="M83 759h98v-616q0 -65 54 -65q15 0 39 8v-81q-32 -13 -70 -13q-59 0 -90 33t-31 92v642z" />
    <glyph glyph-name="m" unicode="m" horiz-adv-x="877" 
d="M470 478q20 36 61.5 60t100.5 24q82 0 125.5 -46t43.5 -137v-379h-99v360q0 58 -25.5 87t-71.5 29q-41 0 -72.5 -24.5t-43.5 -58.5v-393h-99v353q0 123 -100 123q-42 0 -72 -26.5t-40 -62.5v-387h-99v550h78l19 -56h4q49 68 143 68q107 0 143 -84h4z" />
    <glyph glyph-name="n" unicode="n" horiz-adv-x="585" 
d="M509 380v-380h-99v358q0 57 -27.5 87.5t-78.5 30.5q-44 0 -78 -25t-48 -64v-387h-99v550h76l20 -56h4q20 25 61 46.5t93 21.5q83 0 129 -46t47 -136z" />
    <glyph glyph-name="o" unicode="o" horiz-adv-x="568" 
d="M151 279q0 -104 32.5 -155t103.5 -51q70 0 100 48t30 151q0 105 -32 155.5t-104 50.5q-69 0 -99.5 -48.5t-30.5 -150.5zM281 -9q-124 0 -178 73.5t-54 208.5t57.5 211t180.5 76q124 0 178 -73.5t54 -208.5t-57.5 -211t-180.5 -76z" />
    <glyph glyph-name="p" unicode="p" horiz-adv-x="570" 
d="M521 298q0 -143 -70.5 -221t-187.5 -78q-43 0 -86 8v-201h-98v744h73l21 -53h4q49 63 140 63q95 0 149.5 -66.5t54.5 -195.5zM176 96q33 -13 79 -13q165 0 165 204q0 99 -37 144.5t-94 45.5q-74 0 -113 -66v-315z" />
    <glyph glyph-name="q" unicode="q" horiz-adv-x="566" 
d="M488 524v-718h-96v223h-4q-47 -39 -130 -39q-93 0 -151 65t-58 201t68.5 217.5t201.5 81.5q107 0 169 -31zM307 472q-75 0 -116.5 -53t-41.5 -154q0 -191 137 -191q69 0 105 46v338q-34 14 -84 14z" />
    <glyph glyph-name="r" unicode="r" horiz-adv-x="378" 
d="M372 555v-101q-32 8 -62 8q-40 0 -76.5 -16.5t-56.5 -46.5v-399h-98v550h76l21 -67h4q19 35 55 56t84 21q33 0 53 -5z" />
    <glyph glyph-name="s" unicode="s" horiz-adv-x="480" 
d="M331 148q0 30 -28 50.5t-68 34t-80 30.5t-68 52t-28 86q0 65 52 111.5t141 46.5q113 0 172 -64l-64 -66q-43 47 -111 47q-44 0 -68 -20t-24 -50t28 -50.5t68.5 -34.5t80.5 -31t68 -51.5t28 -86.5q0 -63 -52.5 -112t-150.5 -49q-69 0 -121.5 21.5t-81.5 51.5l60 72
q61 -63 148 -63q49 0 74 21t25 54z" />
    <glyph glyph-name="t" unicode="t" horiz-adv-x="387" 
d="M241 -5q-147 0 -147 160v317h-78v62l78 20l32 139h66v-143h147v-78h-147v-315q0 -78 73 -78q52 0 82 21l26 -77q-43 -28 -132 -28z" />
    <glyph glyph-name="u" unicode="u" horiz-adv-x="586" 
d="M76 176v374h99v-358q0 -121 108 -121q55 0 89 31t37 82v366h99v-550h-81l-16 55h-4q-53 -66 -154 -66q-174 0 -177 187z" />
    <glyph glyph-name="v" unicode="v" horiz-adv-x="502" 
d="M117 550l97 -309q25 -80 39 -147h4q11 51 39 147l96 309h101l-182 -550h-113l-189 550h108z" />
    <glyph glyph-name="w" unicode="w" horiz-adv-x="777" 
d="M394 439h-4l-109 -439h-124l-146 550h101l72 -289q23 -97 37 -175h4q12 77 34 160l78 304h114l73 -302q26 -107 34 -162h4q19 97 40 178l72 286h92l-145 -550h-126z" />
    <glyph glyph-name="x" unicode="x" horiz-adv-x="495" 
d="M367 0l-120 208h-4l-113 -208h-116l176 285l-166 265h113l113 -191h4l101 191h116l-165 -266l175 -284h-114z" />
    <glyph glyph-name="y" unicode="y" horiz-adv-x="512" 
d="M30 -198l17 85q26 -11 54 -11q91 0 117 111l-201 563h109l81 -245q35 -107 58 -198h4q14 78 51 198l76 245h102l-191 -585q-27 -84 -75 -129.5t-131 -45.5q-43 0 -71 12z" />
    <glyph glyph-name="z" unicode="z" horiz-adv-x="466" 
d="M151 87v-4h272v-83h-372l-15 88l264 375v4h-245v83h341l18 -88z" />
    <glyph glyph-name="braceleft" unicode="{" horiz-adv-x="339" 
d="M64 341q90 10 90 90q0 39 -13 116t-13 120q0 153 146 153q39 0 62 -11l-12 -68q-23 7 -43 7q-63 0 -63 -83q0 -40 12 -115t12 -111q0 -114 -94 -140v-4q94 -27 94 -141q0 -36 -12 -113.5t-12 -117.5q0 -83 63 -83q20 0 43 7l12 -69q-24 -10 -58 -10q-150 0 -150 153
q0 43 13 122.5t13 118.5q0 80 -90 91v88z" />
    <glyph glyph-name="bar" unicode="|" horiz-adv-x="272" 
d="M172 -257h-73v1102h73v-1102z" />
    <glyph glyph-name="braceright" unicode="}" horiz-adv-x="339" 
d="M275 341v-88q-90 -11 -90 -91q0 -39 13 -118.5t13 -122.5q0 -153 -150 -153q-34 0 -58 10l12 69q23 -7 43 -7q63 0 63 83q0 40 -12 117.5t-12 113.5q0 114 94 141v4q-94 26 -94 140q0 36 12 111t12 115q0 83 -63 83q-20 0 -43 -7l-12 68q23 11 62 11q146 0 146 -153
q0 -43 -13 -120t-13 -116q0 -80 90 -90z" />
    <glyph glyph-name="asciitilde" unicode="~" horiz-adv-x="538" 
d="M24 243q-2 12 -2 22q0 59 32 95t89 36q48 0 131 -37t115 -37q46 0 46 54q0 12 -3 26l83 -12v-10.5v-12.5v-11q-3 -55 -34 -87t-85 -32q-49 0 -132 36.5t-115 36.5q-45 0 -45 -53q0 -8 2 -26z" />
    <glyph glyph-name="exclamdown" unicode="&#xa1;" horiz-adv-x="294" 
d="M108 286h80l24 -443h-127zM216 493q0 -31 -19.5 -51t-48.5 -20q-30 0 -50 20t-20 51q0 28 20 47.5t50 19.5q28 0 48 -19.5t20 -47.5z" />
    <glyph glyph-name="cent" unicode="&#xa2;" horiz-adv-x="479" 
d="M180 -130h-62l51 141q-121 56 -121 257q0 144 65.5 218t173.5 74q41 0 78 -10l45 125h63l-54 -149q19 -12 34 -33l-71 -68l-126 -347q14 -3 29 -3q63 0 103 49l61 -66q-50 -67 -174 -67q-29 0 -49 4zM148 278q0 -126 53 -174h2l132 364q-21 9 -52 9q-135 0 -135 -199z
" />
    <glyph glyph-name="sterling" unicode="&#xa3;" horiz-adv-x="552" 
d="M169 90v-4h350v-86h-448l-18 82q69 34 75 130l6 94h-76v81h82l8 113q8 97 66 149t147 52q109 0 167 -70l-65 -68q-40 52 -113 52q-92 0 -102 -112l-9 -116h203v-81h-209l-6 -88q-7 -94 -58 -128z" />
    <glyph glyph-name="currency" unicode="&#xa4;" horiz-adv-x="537" 
d="M48 325q0 67 37 122l-60 60l60 59l60 -60q54 37 126 37q67 0 122 -34l58 57l60 -59l-58 -58q36 -54 36 -120q0 -69 -39 -124l61 -60l-60 -59l-61 60q-53 -35 -124 -35t-122 33l-59 -58l-60 59l58 58q-35 52 -35 122zM132 327q0 -58 38.5 -97.5t97.5 -39.5q60 0 98.5 39
t38.5 98q0 58 -39 97.5t-98 39.5t-97.5 -39.5t-38.5 -97.5z" />
    <glyph glyph-name="yen" unicode="&#xa5;" horiz-adv-x="544" 
d="M27 327h151l-176 367h114l98 -215l58 -151h4l59 152l98 214h109l-178 -367h150v-83h-192v-244h-101v244h-194v83z" />
    <glyph glyph-name="brokenbar" unicode="&#xa6;" horiz-adv-x="275" 
d="M174 400h-73v346h73v-346zM174 -164h-73v346h73v-346z" />
    <glyph glyph-name="section" unicode="&#xa7;" horiz-adv-x="570" 
d="M416 28h5q30 48 30 108q0 50 -29 94t-70 77t-83 65.5t-72 75t-32 89.5q-2 15 3 32h-5q-28 -43 -28 -108q0 -41 20.5 -78.5t51.5 -64t67.5 -56.5t68.5 -56.5t53.5 -63t23.5 -76.5q1 -15 -4 -38zM119 -124l15 74q40 -15 82 -15q75 0 109 31.5t34 75.5q0 39 -29.5 75
t-72 67.5t-85 67.5t-72 89t-29.5 116q0 115 82 198t214 83q45 0 80 -9l-16 -72q-34 12 -73 12q-64 0 -100 -28.5t-36 -75.5q0 -39 30.5 -78t73.5 -73.5t86 -72.5t73.5 -91t30.5 -114q0 -113 -84 -192t-222 -79q-49 0 -91 11z" />
    <glyph glyph-name="dieresis" unicode="&#xa8;" horiz-adv-x="504" 
d="M89 712q0 25 16.5 41.5t41.5 16.5t42 -16.5t17 -41.5q0 -24 -17 -41t-42 -17t-41.5 17t-16.5 41zM298 712q0 25 16.5 41.5t41.5 16.5t41.5 -16.5t16.5 -41.5q0 -24 -16.5 -41t-41.5 -17t-41.5 17t-16.5 41z" />
    <glyph glyph-name="copyright" unicode="&#xa9;" horiz-adv-x="831" 
d="M128 346q0 -125 81 -206t207 -81q125 0 206 80.5t81 204.5q0 126 -80.5 207t-207.5 81t-207 -80t-80 -206zM49 344q0 156 105 259t262 103q160 0 262.5 -101t102.5 -259q0 -155 -104.5 -258t-261.5 -103q-160 0 -263 101t-103 258zM255 344q0 97 47 152t126 55
q82 0 116 -44l-43 -54q-27 34 -75 34q-93 0 -93 -140q0 -139 95 -139q45 0 73 33l41 -54q-44 -44 -118 -44q-81 0 -125 52t-44 149z" />
    <glyph glyph-name="guillemotleft" unicode="&#xab;" horiz-adv-x="523" 
d="M254 274l167 225l64 -50l-125 -175l125 -175l-64 -49zM38 274l167 225l64 -50l-125 -175l125 -175l-64 -49z" />
    <glyph glyph-name="logicalnot" unicode="&#xac;" horiz-adv-x="537" 
d="M515 184h-80v184h-414v78h494v-262z" />
    <glyph glyph-name="registered" unicode="&#xae;" horiz-adv-x="502" 
d="M250 332q72 0 118.5 45.5t46.5 120.5q0 76 -47 121.5t-117 45.5q-71 0 -117.5 -45t-46.5 -121q0 -74 46.5 -120.5t116.5 -46.5zM251 288q-93 0 -152.5 57.5t-59.5 152.5t60.5 153.5t152.5 58.5t152 -57.5t60 -152.5q0 -94 -60.5 -153t-152.5 -59zM249 475h-21v-82h-45
v223h72q77 0 77 -66q0 -54 -41 -63l55 -94h-54zM228 513h23q35 0 35 33q0 31 -32 31h-26v-64z" />
    <glyph glyph-name="macron" unicode="&#xaf;" horiz-adv-x="504" 
d="M406 660h-309v78h309v-78z" />
    <glyph glyph-name="degree" unicode="&#xb0;" horiz-adv-x="366" 
d="M35 558q0 64 43 105t107 41q65 0 105.5 -39t40.5 -103t-42.5 -105t-107.5 -41q-64 0 -105 39t-41 103zM100 561q0 -38 24 -63.5t61 -25.5t59 24.5t22 62.5q0 37 -24 62.5t-61 25.5t-59 -24.5t-22 -61.5z" />
    <glyph glyph-name="plusminus" unicode="&#xb1;" horiz-adv-x="533" 
d="M29 301v83h194v196h86v-196h195v-83h-195v-188h195v-83h-475v83h194v188h-194z" />
    <glyph glyph-name="twosuperior" unicode="&#xb2;" horiz-adv-x="359" 
d="M181 501l-59 -53q16 2 78 3h119v-61h-282l-12 57q8 8 48 45.5t69 67t51 56.5q38 44 38 79q0 58 -58 58q-26 0 -42.5 -17.5t-19.5 -42.5l-77 16q9 46 44.5 74.5t97.5 28.5q64 0 98.5 -30t34.5 -81q0 -61 -58 -127q-22 -25 -70 -73z" />
    <glyph glyph-name="threesuperior" unicode="&#xb3;" horiz-adv-x="359" 
d="M310 702q0 -73 -61 -99q74 -12 74 -92q0 -62 -41 -95.5t-116 -33.5q-100 0 -138 74l65 35q27 -50 82 -50q73 0 73 66q0 63 -94 63h-32v56h34q42 0 60 17t18 51q0 26 -16 43t-48 17q-26 0 -41.5 -15t-19.5 -38l-74 10q6 44 42.5 72.5t94.5 28.5q65 0 101.5 -28t36.5 -82z
" />
    <glyph glyph-name="acute" unicode="&#xb4;" horiz-adv-x="504" 
d="M385 749l-210 -127l-57 44l175 136z" />
    <glyph glyph-name="uni00B5" unicode="&#xb5;" horiz-adv-x="613" 
d="M564 78q8 0 16 3v-76q-20 -9 -44 -9q-85 0 -103 79h-4q-38 -83 -151 -83q-60 0 -101 35v-221h-98v744h99v-352q0 -126 108 -126q125 0 125 135v343h99v-389q0 -44 13 -63.5t41 -19.5z" />
    <glyph glyph-name="paragraph" unicode="&#xb6;" horiz-adv-x="585" 
d="M473 701v-701h-75v701h75zM301 701l-1 -649q0 -151 -110 -235l-54 53q47 40 67.5 78.5t20.5 115.5v248h-25q-80 1 -124.5 47t-44.5 138q0 100 58 152t158 52h55z" />
    <glyph glyph-name="periodcentered" unicode="&#xb7;" horiz-adv-x="246" 
d="M51 350q0 31 21 52.5t50 21.5q32 0 53 -21t21 -53q0 -29 -21.5 -50t-52.5 -21q-29 0 -50 21t-21 50z" />
    <glyph glyph-name="cedilla" unicode="&#xb8;" horiz-adv-x="504" 
d="M321 -116q0 -93 -108 -128l-31 51q62 28 62 77q0 32 -25 61v4h84q18 -26 18 -65z" />
    <glyph glyph-name="onesuperior" unicode="&#xb9;" horiz-adv-x="300" 
d="M153 805h80v-415h-79v239q1 26 2 61.5t1 42.5h-3q-2 -1 -19.5 -14.5t-29.5 -21.5l-55 -35l-39 62z" />
    <glyph glyph-name="guillemotright" unicode="&#xbb;" horiz-adv-x="523" 
d="M269 274l-168 -224l-63 49l125 175l-125 175l63 50zM485 274l-167 -224l-64 49l125 175l-125 175l64 50z" />
    <glyph glyph-name="questiondown" unicode="&#xbf;" horiz-adv-x="417" 
d="M233 -79q68 0 121 55l65 -76q-69 -67 -193 -67q-87 0 -137 42.5t-50 119.5q0 63 25 106.5t81 92.5l124 112q45 -16 45 -58q0 -23 -18 -45.5t-43.5 -42.5t-51 -41.5t-43.5 -50t-18 -59.5q0 -41 24.5 -64.5t68.5 -23.5zM297 492q0 -30 -20 -50.5t-49 -20.5q-31 0 -50.5 20
t-19.5 51q0 29 20 48.5t50 19.5q29 0 49 -19.5t20 -48.5z" />
    <glyph glyph-name="Agrave" unicode="&#xc0;" horiz-adv-x="615" 
d="M261 477l-61 -198h213l-60 195q-36 124 -45 157h-4q-6 -23 -43 -154zM232 701h150l224 -701h-107l-59 192h-267l-60 -192h-103zM90 893l92 53l175 -136l-57 -44z" />
    <glyph glyph-name="Aacute" unicode="&#xc1;" horiz-adv-x="615" 
d="M261 477l-61 -198h213l-60 195q-36 124 -45 157h-4q-6 -23 -43 -154zM232 701h150l224 -701h-107l-59 192h-267l-60 -192h-103zM517 904l-210 -127l-57 44l175 136z" />
    <glyph glyph-name="Acircumflex" unicode="&#xc2;" horiz-adv-x="615" 
d="M261 477l-61 -198h213l-60 195q-36 124 -45 157h-4q-6 -23 -43 -154zM232 701h150l224 -701h-107l-59 192h-267l-60 -192h-103zM503 835l-37 -59l-160 92l-161 -92l-35 59l196 124z" />
    <glyph glyph-name="Atilde" unicode="&#xc3;" horiz-adv-x="615" 
d="M261 477l-61 -198h213l-60 195q-36 124 -45 157h-4q-6 -23 -43 -154zM232 701h150l224 -701h-107l-59 192h-267l-60 -192h-103zM232 913q30 0 77.5 -18t66.5 -18q41 0 67 34l39 -60q-9 -17 -35 -34t-63 -17q-25 0 -74 18.5t-69 18.5q-44 0 -71 -33l-39 60q35 49 101 49z
" />
    <glyph glyph-name="Adieresis" unicode="&#xc4;" horiz-adv-x="615" 
d="M261 477l-61 -198h213l-60 195q-36 124 -45 157h-4q-6 -23 -43 -154zM232 701h150l224 -701h-107l-59 192h-267l-60 -192h-103zM144 867q0 25 16.5 41.5t41.5 16.5t42 -16.5t17 -41.5q0 -24 -17 -41t-42 -17t-41.5 17t-16.5 41zM353 867q0 25 16.5 41.5t41.5 16.5
t41.5 -16.5t16.5 -41.5q0 -24 -16.5 -41t-41.5 -17t-41.5 17t-16.5 41z" />
    <glyph glyph-name="Aring" unicode="&#xc5;" horiz-adv-x="615" 
d="M261 477l-61 -198h213l-60 195q-36 124 -45 157h-4q-6 -23 -43 -154zM232 701h150l224 -701h-107l-59 192h-267l-60 -192h-103zM191 867q0 50 32.5 82t84.5 32t83 -29.5t31 -78.5q0 -50 -32.5 -82.5t-84.5 -32.5t-83 30t-31 79zM364 869q0 27 -15.5 43t-43.5 16
q-27 0 -41.5 -15.5t-14.5 -41.5q0 -27 15.5 -43t42.5 -16t42 15t15 42z" />
    <glyph glyph-name="AE" unicode="&#xc6;" horiz-adv-x="872" 
d="M822 0h-385v206h-226l-110 -206h-106l375 701h439v-87h-277v-215h241v-87h-241v-225h290v-87zM437 623h-4l-177 -331h181v331z" />
    <glyph glyph-name="Ccedilla" unicode="&#xc7;" horiz-adv-x="575" 
d="M57 345q0 173 75.5 269.5t217.5 96.5q124 0 196 -65l-65 -76q-54 52 -139 52q-182 0 -182 -270q0 -133 48.5 -202.5t142.5 -69.5q86 0 133 47l56 -71q-62 -66 -201 -66q-144 0 -213 93.5t-69 261.5zM391 -116q0 -93 -108 -128l-31 51q62 28 62 77q0 32 -25 61v4h84
q18 -26 18 -65z" />
    <glyph glyph-name="Egrave" unicode="&#xc8;" horiz-adv-x="538" 
d="M488 0h-397v701h384v-87h-284v-215h248v-87h-248v-225h297v-87zM76 904l92 53l175 -136l-57 -44z" />
    <glyph glyph-name="Eacute" unicode="&#xc9;" horiz-adv-x="538" 
d="M488 0h-397v701h384v-87h-284v-215h248v-87h-248v-225h297v-87zM493 904l-210 -127l-57 44l175 136z" />
    <glyph glyph-name="Ecircumflex" unicode="&#xca;" horiz-adv-x="538" 
d="M488 0h-397v701h384v-87h-284v-215h248v-87h-248v-225h297v-87zM475 835l-37 -59l-160 92l-161 -92l-35 59l196 124z" />
    <glyph glyph-name="Edieresis" unicode="&#xcb;" horiz-adv-x="538" 
d="M488 0h-397v701h384v-87h-284v-215h248v-87h-248v-225h297v-87zM120 867q0 25 16.5 41.5t41.5 16.5t42 -16.5t17 -41.5q0 -24 -17 -41t-42 -17t-41.5 17t-16.5 41zM329 867q0 25 16.5 41.5t41.5 16.5t41.5 -16.5t16.5 -41.5q0 -24 -16.5 -41t-41.5 -17t-41.5 17t-16.5 41
z" />
    <glyph glyph-name="Igrave" unicode="&#xcc;" horiz-adv-x="300" 
d="M100 0v701h101v-701h-101zM-55 904l92 53l175 -136l-57 -44z" />
    <glyph glyph-name="Iacute" unicode="&#xcd;" horiz-adv-x="300" 
d="M100 0v701h101v-701h-101zM350 904l-210 -127l-57 44l175 136z" />
    <glyph glyph-name="Icircumflex" unicode="&#xce;" horiz-adv-x="300" 
d="M100 0v701h101v-701h-101zM347 835l-37 -59l-160 92l-161 -92l-35 59l196 124z" />
    <glyph glyph-name="Idieresis" unicode="&#xcf;" horiz-adv-x="300" 
d="M100 0v701h101v-701h-101zM-12 867q0 25 16.5 41.5t41.5 16.5t42 -16.5t17 -41.5q0 -24 -17 -41t-42 -17t-41.5 17t-16.5 41zM197 867q0 25 16.5 41.5t41.5 16.5t41.5 -16.5t16.5 -41.5q0 -24 -16.5 -41t-41.5 -17t-41.5 17t-16.5 41z" />
    <glyph glyph-name="Eth" unicode="&#xd0;" horiz-adv-x="661" 
d="M97 0v326h-75v71h75v304h194q161 0 237 -83t76 -258q0 -360 -313 -360h-194zM198 614v-217h149v-71h-149v-239h89q113 0 163.5 63t50.5 199q0 143 -55 204t-163 61h-85z" />
    <glyph glyph-name="Ntilde" unicode="&#xd1;" horiz-adv-x="708" 
d="M189 578h-6q5 -105 5 -203v-375h-97v701h133l209 -395q63 -122 86 -174h6q-3 74 -3 211v358h95v-701h-130l-214 403q-29 55 -84 175zM279 913q30 0 77.5 -18t66.5 -18q41 0 67 34l39 -60q-9 -17 -35 -34t-63 -17q-25 0 -74 18.5t-69 18.5q-44 0 -71 -33l-39 60
q35 49 101 49z" />
    <glyph glyph-name="Ograve" unicode="&#xd2;" horiz-adv-x="668" 
d="M160 355q0 -148 45.5 -212.5t130.5 -64.5q84 0 127.5 61.5t43.5 207.5q0 148 -45 212t-131 64q-82 0 -126.5 -61t-44.5 -207zM611 354q0 -187 -74.5 -275.5t-207.5 -88.5q-132 0 -202 84.5t-70 272.5q0 186 74.5 275t206.5 89q273 0 273 -357zM135 904l92 53l175 -136
l-57 -44z" />
    <glyph glyph-name="Oacute" unicode="&#xd3;" horiz-adv-x="668" 
d="M160 355q0 -148 45.5 -212.5t130.5 -64.5q84 0 127.5 61.5t43.5 207.5q0 148 -45 212t-131 64q-82 0 -126.5 -61t-44.5 -207zM611 354q0 -187 -74.5 -275.5t-207.5 -88.5q-132 0 -202 84.5t-70 272.5q0 186 74.5 275t206.5 89q273 0 273 -357zM545 904l-210 -127l-57 44
l175 136z" />
    <glyph glyph-name="Ocircumflex" unicode="&#xd4;" horiz-adv-x="668" 
d="M160 355q0 -148 45.5 -212.5t130.5 -64.5q84 0 127.5 61.5t43.5 207.5q0 148 -45 212t-131 64q-82 0 -126.5 -61t-44.5 -207zM611 354q0 -187 -74.5 -275.5t-207.5 -88.5q-132 0 -202 84.5t-70 272.5q0 186 74.5 275t206.5 89q273 0 273 -357zM536 835l-37 -59l-160 92
l-161 -92l-35 59l196 124z" />
    <glyph glyph-name="Otilde" unicode="&#xd5;" horiz-adv-x="668" 
d="M160 355q0 -148 45.5 -212.5t130.5 -64.5q84 0 127.5 61.5t43.5 207.5q0 148 -45 212t-131 64q-82 0 -126.5 -61t-44.5 -207zM611 354q0 -187 -74.5 -275.5t-207.5 -88.5q-132 0 -202 84.5t-70 272.5q0 186 74.5 275t206.5 89q273 0 273 -357zM265 913q30 0 77.5 -18
t66.5 -18q41 0 67 34l39 -60q-9 -17 -35 -34t-63 -17q-25 0 -74 18.5t-69 18.5q-44 0 -71 -33l-39 60q35 49 101 49z" />
    <glyph glyph-name="Odieresis" unicode="&#xd6;" horiz-adv-x="668" 
d="M160 355q0 -148 45.5 -212.5t130.5 -64.5q84 0 127.5 61.5t43.5 207.5q0 148 -45 212t-131 64q-82 0 -126.5 -61t-44.5 -207zM611 354q0 -187 -74.5 -275.5t-207.5 -88.5q-132 0 -202 84.5t-70 272.5q0 186 74.5 275t206.5 89q273 0 273 -357zM177 867q0 25 16.5 41.5
t41.5 16.5t42 -16.5t17 -41.5q0 -24 -17 -41t-42 -17t-41.5 17t-16.5 41zM386 867q0 25 16.5 41.5t41.5 16.5t41.5 -16.5t16.5 -41.5q0 -24 -16.5 -41t-41.5 -17t-41.5 17t-16.5 41z" />
    <glyph glyph-name="multiply" unicode="&#xd7;" horiz-adv-x="533" 
d="M59 493l58 57l149 -152l151 153l57 -59l-152 -150l152 -150l-57 -57l-150 152l-150 -153l-58 59l152 150z" />
    <glyph glyph-name="Oslash" unicode="&#xd8;" horiz-adv-x="679" 
d="M623 354q0 -186 -76.5 -275t-211.5 -89q-97 0 -159 43l-27 -42h-92v1l62 95q-62 88 -62 260q0 186 76 275t210 89q96 0 159 -44l29 44h92v-2l-64 -96q64 -91 64 -259zM160 355q0 -106 27 -166l260 396q-41 38 -110 38q-85 0 -131 -61t-46 -207zM519 347q0 101 -27 165
l-260 -396q41 -38 110 -38q86 0 131.5 61.5t45.5 207.5z" />
    <glyph glyph-name="Ugrave" unicode="&#xd9;" horiz-adv-x="686" 
d="M347 78q150 0 150 162v461h101v-448q0 -131 -71 -197t-193 -66q-120 0 -183 65.5t-63 179.5v466h100v-449q0 -174 159 -174zM132 904l92 53l175 -136l-57 -44z" />
    <glyph glyph-name="Uacute" unicode="&#xda;" horiz-adv-x="686" 
d="M347 78q150 0 150 162v461h101v-448q0 -131 -71 -197t-193 -66q-120 0 -183 65.5t-63 179.5v466h100v-449q0 -174 159 -174zM559 904l-210 -127l-57 44l175 136z" />
    <glyph glyph-name="Ucircumflex" unicode="&#xdb;" horiz-adv-x="686" 
d="M347 78q150 0 150 162v461h101v-448q0 -131 -71 -197t-193 -66q-120 0 -183 65.5t-63 179.5v466h100v-449q0 -174 159 -174zM539 835l-37 -59l-160 92l-161 -92l-35 59l196 124z" />
    <glyph glyph-name="Udieresis" unicode="&#xdc;" horiz-adv-x="686" 
d="M347 78q150 0 150 162v461h101v-448q0 -131 -71 -197t-193 -66q-120 0 -183 65.5t-63 179.5v466h100v-449q0 -174 159 -174zM180 867q0 25 16.5 41.5t41.5 16.5t42 -16.5t17 -41.5q0 -24 -17 -41t-42 -17t-41.5 17t-16.5 41zM389 867q0 25 16.5 41.5t41.5 16.5
t41.5 -16.5t16.5 -41.5q0 -24 -16.5 -41t-41.5 -17t-41.5 17t-16.5 41z" />
    <glyph glyph-name="Yacute" unicode="&#xdd;" horiz-adv-x="566" 
d="M567 701l-234 -456v-245h-100v245l-234 456h114l170 -353h4l171 353h109zM499 904l-210 -127l-57 44l175 136z" />
    <glyph glyph-name="Thorn" unicode="&#xde;" horiz-adv-x="532" 
d="M189 701v-134q64 8 95 8q96 0 153.5 -51t57.5 -156q0 -113 -58 -174.5t-172 -62.5q-15 0 -76 6v-137h-98v701h98zM262 486q-7 0 -30 -3t-42 -4v-253q46 -7 65 -7q136 1 136 135q0 131 -129 132z" />
    <glyph glyph-name="germandbls" unicode="&#xdf;" horiz-adv-x="604" 
d="M270 107q52 -34 112 -34q44 0 69.5 21t25.5 55q0 29 -21 52t-50.5 39.5t-59.5 33.5t-51 42.5t-21 58.5q0 27 18 54.5t39 47.5t39 50t18 62q0 43 -27 66t-72 23q-113 0 -113 -136v-542h-97v540q0 109 58 165t155 56q90 0 141 -45t51 -117q0 -41 -17 -77.5t-37.5 -57
t-37.5 -41.5t-17 -35q0 -17 20.5 -33.5t49.5 -32.5t57.5 -36.5t49 -54.5t20.5 -77q0 -69 -50 -116t-146 -47q-89 0 -147 38z" />
    <glyph glyph-name="agrave" unicode="&#xe0;" horiz-adv-x="545" 
d="M354 133v109q-95 5 -151.5 -19.5t-56.5 -76.5q0 -34 23 -56t64 -22q39 0 71 18.5t50 46.5zM251 559q196 0 196 -172v-240q0 -71 49 -71h15v-71q-19 -10 -42 -10q-75 0 -100 65h-4q-58 -70 -157 -70q-74 0 -117 43.5t-43 103.5q0 91 81 136.5t225 41.5v55q0 58 -26.5 81.5
t-78.5 23.5q-79 0 -116 -65l-71 55q70 94 189 94zM48 749l92 53l175 -136l-57 -44z" />
    <glyph glyph-name="aacute" unicode="&#xe1;" horiz-adv-x="545" 
d="M354 133v109q-95 5 -151.5 -19.5t-56.5 -76.5q0 -34 23 -56t64 -22q39 0 71 18.5t50 46.5zM251 559q196 0 196 -172v-240q0 -71 49 -71h15v-71q-19 -10 -42 -10q-75 0 -100 65h-4q-58 -70 -157 -70q-74 0 -117 43.5t-43 103.5q0 91 81 136.5t225 41.5v55q0 58 -26.5 81.5
t-78.5 23.5q-79 0 -116 -65l-71 55q70 94 189 94zM472 749l-210 -127l-57 44l175 136z" />
    <glyph glyph-name="acircumflex" unicode="&#xe2;" horiz-adv-x="545" 
d="M354 133v109q-95 5 -151.5 -19.5t-56.5 -76.5q0 -34 23 -56t64 -22q39 0 71 18.5t50 46.5zM251 559q196 0 196 -172v-240q0 -71 49 -71h15v-71q-19 -10 -42 -10q-75 0 -100 65h-4q-58 -70 -157 -70q-74 0 -117 43.5t-43 103.5q0 91 81 136.5t225 41.5v55q0 58 -26.5 81.5
t-78.5 23.5q-79 0 -116 -65l-71 55q70 94 189 94zM464 680l-37 -59l-160 92l-161 -92l-35 59l196 124z" />
    <glyph glyph-name="atilde" unicode="&#xe3;" horiz-adv-x="545" 
d="M354 133v109q-95 5 -151.5 -19.5t-56.5 -76.5q0 -34 23 -56t64 -22q39 0 71 18.5t50 46.5zM251 559q196 0 196 -172v-240q0 -71 49 -71h15v-71q-19 -10 -42 -10q-75 0 -100 65h-4q-58 -70 -157 -70q-74 0 -117 43.5t-43 103.5q0 91 81 136.5t225 41.5v55q0 58 -26.5 81.5
t-78.5 23.5q-79 0 -116 -65l-71 55q70 94 189 94zM200 758q30 0 77.5 -18t66.5 -18q41 0 67 34l39 -60q-9 -17 -35 -34t-63 -17q-25 0 -74 18.5t-69 18.5q-44 0 -71 -33l-39 60q35 49 101 49z" />
    <glyph glyph-name="adieresis" unicode="&#xe4;" horiz-adv-x="545" 
d="M354 133v109q-95 5 -151.5 -19.5t-56.5 -76.5q0 -34 23 -56t64 -22q39 0 71 18.5t50 46.5zM251 559q196 0 196 -172v-240q0 -71 49 -71h15v-71q-19 -10 -42 -10q-75 0 -100 65h-4q-58 -70 -157 -70q-74 0 -117 43.5t-43 103.5q0 91 81 136.5t225 41.5v55q0 58 -26.5 81.5
t-78.5 23.5q-79 0 -116 -65l-71 55q70 94 189 94zM110 712q0 25 16.5 41.5t41.5 16.5t42 -16.5t17 -41.5q0 -24 -17 -41t-42 -17t-41.5 17t-16.5 41zM319 712q0 25 16.5 41.5t41.5 16.5t41.5 -16.5t16.5 -41.5q0 -24 -16.5 -41t-41.5 -17t-41.5 17t-16.5 41z" />
    <glyph glyph-name="aring" unicode="&#xe5;" horiz-adv-x="545" 
d="M354 133v109q-95 5 -151.5 -19.5t-56.5 -76.5q0 -34 23 -56t64 -22q39 0 71 18.5t50 46.5zM251 559q196 0 196 -172v-240q0 -71 49 -71h15v-71q-19 -10 -42 -10q-75 0 -100 65h-4q-58 -70 -157 -70q-74 0 -117 43.5t-43 103.5q0 91 81 136.5t225 41.5v55q0 58 -26.5 81.5
t-78.5 23.5q-79 0 -116 -65l-71 55q70 94 189 94zM159 712q0 50 32.5 82t84.5 32t83 -29.5t31 -78.5q0 -50 -32.5 -82.5t-84.5 -32.5t-83 30t-31 79zM332 714q0 27 -15.5 43t-43.5 16q-27 0 -41.5 -15.5t-14.5 -41.5q0 -27 15.5 -43t42.5 -16t42 15t15 42z" />
    <glyph glyph-name="ae" unicode="&#xe6;" horiz-adv-x="854" 
d="M409 83h-4q-45 -96 -190 -96q-91 0 -135.5 44t-44.5 108q0 40 14.5 71t48.5 57.5t99.5 40.5t159.5 14v47q0 106 -109 106q-79 0 -124 -63l-65 67q65 80 193 80q131 0 171 -80h4q58 81 164 81q100 0 155 -59t55 -162q0 -49 -8 -95h-343q7 -90 47 -130t117 -40q80 0 134 52
l49 -72q-66 -62 -194 -62q-142 0 -194 91zM230 65q127 0 127 126v59q-117 0 -169.5 -22.5t-52.5 -77.5q0 -36 26 -60.5t69 -24.5zM582 479q-53 0 -89 -37.5t-42 -121.5h251q1 10 1 26q0 66 -31.5 99.5t-89.5 33.5z" />
    <glyph glyph-name="ccedilla" unicode="&#xe7;" horiz-adv-x="481" 
d="M49 268q0 145 65.5 218.5t174.5 73.5q115 0 167 -64l-66 -69q-43 48 -104 48q-135 0 -135 -197q0 -203 135 -203q65 0 103 47l62 -64q-56 -67 -174 -67q-228 0 -228 277zM343 -116q0 -93 -108 -128l-31 51q62 28 62 77q0 32 -25 61v4h84q18 -26 18 -65z" />
    <glyph glyph-name="egrave" unicode="&#xe8;" horiz-adv-x="551" 
d="M435 119l44 -74q-69 -53 -182 -53q-124 0 -186 69t-62 216q0 138 67.5 210.5t173.5 72.5q98 0 152 -58.5t54 -159.5q0 -50 -5 -96h-344q4 -90 43.5 -131t118.5 -41q77 0 126 45zM284 479q-57 0 -94 -39.5t-41 -119.5h251q1 16 1 30q-2 129 -117 129zM77 749l92 53
l175 -136l-57 -44z" />
    <glyph glyph-name="eacute" unicode="&#xe9;" horiz-adv-x="551" 
d="M435 119l44 -74q-69 -53 -182 -53q-124 0 -186 69t-62 216q0 138 67.5 210.5t173.5 72.5q98 0 152 -58.5t54 -159.5q0 -50 -5 -96h-344q4 -90 43.5 -131t118.5 -41q77 0 126 45zM284 479q-57 0 -94 -39.5t-41 -119.5h251q1 16 1 30q-2 129 -117 129zM499 749l-210 -127
l-57 44l175 136z" />
    <glyph glyph-name="ecircumflex" unicode="&#xea;" horiz-adv-x="551" 
d="M435 119l44 -74q-69 -53 -182 -53q-124 0 -186 69t-62 216q0 138 67.5 210.5t173.5 72.5q98 0 152 -58.5t54 -159.5q0 -50 -5 -96h-344q4 -90 43.5 -131t118.5 -41q77 0 126 45zM284 479q-57 0 -94 -39.5t-41 -119.5h251q1 16 1 30q-2 129 -117 129zM472 680l-37 -59
l-160 92l-161 -92l-35 59l196 124z" />
    <glyph glyph-name="edieresis" unicode="&#xeb;" horiz-adv-x="551" 
d="M435 119l44 -74q-69 -53 -182 -53q-124 0 -186 69t-62 216q0 138 67.5 210.5t173.5 72.5q98 0 152 -58.5t54 -159.5q0 -50 -5 -96h-344q4 -90 43.5 -131t118.5 -41q77 0 126 45zM284 479q-57 0 -94 -39.5t-41 -119.5h251q1 16 1 30q-2 129 -117 129zM112 712
q0 25 16.5 41.5t41.5 16.5t42 -16.5t17 -41.5q0 -24 -17 -41t-42 -17t-41.5 17t-16.5 41zM321 712q0 25 16.5 41.5t41.5 16.5t41.5 -16.5t16.5 -41.5q0 -24 -16.5 -41t-41.5 -17t-41.5 17t-16.5 41z" />
    <glyph glyph-name="igrave" unicode="&#xec;" horiz-adv-x="291" 
d="M98 0v550h99v-550h-99zM-58 749l92 53l175 -136l-57 -44z" />
    <glyph glyph-name="iacute" unicode="&#xed;" horiz-adv-x="291" 
d="M98 0v550h99v-550h-99zM347 749l-210 -127l-57 44l175 136z" />
    <glyph glyph-name="icircumflex" unicode="&#xee;" horiz-adv-x="291" 
d="M98 0v550h99v-550h-99zM342 680l-37 -59l-160 92l-161 -92l-35 59l196 124z" />
    <glyph glyph-name="idieresis" unicode="&#xef;" horiz-adv-x="291" 
d="M98 0v550h99v-550h-99zM-17 712q0 25 16.5 41.5t41.5 16.5t42 -16.5t17 -41.5q0 -24 -17 -41t-42 -17t-41.5 17t-16.5 41zM192 712q0 25 16.5 41.5t41.5 16.5t41.5 -16.5t16.5 -41.5q0 -24 -16.5 -41t-41.5 -17t-41.5 17t-16.5 41z" />
    <glyph glyph-name="eth" unicode="&#xf0;" horiz-adv-x="535" 
d="M478 276q0 -133 -57.5 -206.5t-165.5 -73.5q-96 0 -153 59t-57 162q0 110 61 169.5t148 59.5q59 0 101 -21l3 2q-23 68 -71 126l-156 -79v68l110 57q-53 46 -143 94v8h143q46 -27 83 -63l133 67v-68l-90 -47q111 -141 111 -314zM386 258q0 41 -7 77q-47 31 -112 31
q-125 0 -125 -142q0 -71 33 -107.5t89 -36.5q122 0 122 178z" />
    <glyph glyph-name="ntilde" unicode="&#xf1;" horiz-adv-x="585" 
d="M509 380v-380h-99v358q0 57 -27.5 87.5t-78.5 30.5q-44 0 -78 -25t-48 -64v-387h-99v550h76l20 -56h4q20 25 61 46.5t93 21.5q83 0 129 -46t47 -136zM218 758q30 0 77.5 -18t66.5 -18q41 0 67 34l39 -60q-9 -17 -35 -34t-63 -17q-25 0 -74 18.5t-69 18.5q-44 0 -71 -33
l-39 60q35 49 101 49z" />
    <glyph glyph-name="ograve" unicode="&#xf2;" horiz-adv-x="568" 
d="M151 279q0 -104 32.5 -155t103.5 -51q70 0 100 48t30 151q0 105 -32 155.5t-104 50.5q-69 0 -99.5 -48.5t-30.5 -150.5zM281 -9q-124 0 -178 73.5t-54 208.5t57.5 211t180.5 76q124 0 178 -73.5t54 -208.5t-57.5 -211t-180.5 -76zM76 749l92 53l175 -136l-57 -44z" />
    <glyph glyph-name="oacute" unicode="&#xf3;" horiz-adv-x="568" 
d="M151 279q0 -104 32.5 -155t103.5 -51q70 0 100 48t30 151q0 105 -32 155.5t-104 50.5q-69 0 -99.5 -48.5t-30.5 -150.5zM281 -9q-124 0 -178 73.5t-54 208.5t57.5 211t180.5 76q124 0 178 -73.5t54 -208.5t-57.5 -211t-180.5 -76zM490 749l-210 -127l-57 44l175 136z" />
    <glyph glyph-name="ocircumflex" unicode="&#xf4;" horiz-adv-x="568" 
d="M151 279q0 -104 32.5 -155t103.5 -51q70 0 100 48t30 151q0 105 -32 155.5t-104 50.5q-69 0 -99.5 -48.5t-30.5 -150.5zM281 -9q-124 0 -178 73.5t-54 208.5t57.5 211t180.5 76q124 0 178 -73.5t54 -208.5t-57.5 -211t-180.5 -76zM480 680l-37 -59l-160 92l-161 -92
l-35 59l196 124z" />
    <glyph glyph-name="otilde" unicode="&#xf5;" horiz-adv-x="568" 
d="M151 279q0 -104 32.5 -155t103.5 -51q70 0 100 48t30 151q0 105 -32 155.5t-104 50.5q-69 0 -99.5 -48.5t-30.5 -150.5zM281 -9q-124 0 -178 73.5t-54 208.5t57.5 211t180.5 76q124 0 178 -73.5t54 -208.5t-57.5 -211t-180.5 -76zM209 758q30 0 77.5 -18t66.5 -18
q41 0 67 34l39 -60q-9 -17 -35 -34t-63 -17q-25 0 -74 18.5t-69 18.5q-44 0 -71 -33l-39 60q35 49 101 49z" />
    <glyph glyph-name="odieresis" unicode="&#xf6;" horiz-adv-x="568" 
d="M151 279q0 -104 32.5 -155t103.5 -51q70 0 100 48t30 151q0 105 -32 155.5t-104 50.5q-69 0 -99.5 -48.5t-30.5 -150.5zM281 -9q-124 0 -178 73.5t-54 208.5t57.5 211t180.5 76q124 0 178 -73.5t54 -208.5t-57.5 -211t-180.5 -76zM121 712q0 25 16.5 41.5t41.5 16.5
t42 -16.5t17 -41.5q0 -24 -17 -41t-42 -17t-41.5 17t-16.5 41zM330 712q0 25 16.5 41.5t41.5 16.5t41.5 -16.5t16.5 -41.5q0 -24 -16.5 -41t-41.5 -17t-41.5 17t-16.5 41z" />
    <glyph glyph-name="divide" unicode="&#xf7;" horiz-adv-x="533" 
d="M29 301v83h475v-83h-475zM200 525q0 27 19 46t46 19q28 0 47 -19t19 -46t-19 -46t-47 -19q-27 0 -46 19t-19 46zM200 159q0 28 19 47t46 19q28 0 47 -19t19 -47q0 -27 -19 -45.5t-47 -18.5q-27 0 -46 19t-19 45z" />
    <glyph glyph-name="oslash" unicode="&#xf8;" horiz-adv-x="568" 
d="M281 -9q-77 0 -125 30l-21 -31h-85v4l51 74q-52 70 -52 205t57.5 211t180.5 76q77 0 126 -30l21 30h84v-3l-50 -75q51 -68 51 -204q0 -135 -57.5 -211t-180.5 -76zM419 272q0 70 -17 113l-194 -288q28 -24 79 -24q71 0 101.5 48t30.5 151zM149 279q0 -69 17 -114l195 288
q-29 25 -80 25q-69 0 -100.5 -48.5t-31.5 -150.5z" />
    <glyph glyph-name="ugrave" unicode="&#xf9;" horiz-adv-x="586" 
d="M76 176v374h99v-358q0 -121 108 -121q55 0 89 31t37 82v366h99v-550h-81l-16 55h-4q-53 -66 -154 -66q-174 0 -177 187zM81 749l92 53l175 -136l-57 -44z" />
    <glyph glyph-name="uacute" unicode="&#xfa;" horiz-adv-x="586" 
d="M76 176v374h99v-358q0 -121 108 -121q55 0 89 31t37 82v366h99v-550h-81l-16 55h-4q-53 -66 -154 -66q-174 0 -177 187zM509 749l-210 -127l-57 44l175 136z" />
    <glyph glyph-name="ucircumflex" unicode="&#xfb;" horiz-adv-x="586" 
d="M76 176v374h99v-358q0 -121 108 -121q55 0 89 31t37 82v366h99v-550h-81l-16 55h-4q-53 -66 -154 -66q-174 0 -177 187zM490 680l-37 -59l-160 92l-161 -92l-35 59l196 124z" />
    <glyph glyph-name="udieresis" unicode="&#xfc;" horiz-adv-x="586" 
d="M76 176v374h99v-358q0 -121 108 -121q55 0 89 31t37 82v366h99v-550h-81l-16 55h-4q-53 -66 -154 -66q-174 0 -177 187zM130 712q0 25 16.5 41.5t41.5 16.5t42 -16.5t17 -41.5q0 -24 -17 -41t-42 -17t-41.5 17t-16.5 41zM339 712q0 25 16.5 41.5t41.5 16.5t41.5 -16.5
t16.5 -41.5q0 -24 -16.5 -41t-41.5 -17t-41.5 17t-16.5 41z" />
    <glyph glyph-name="yacute" unicode="&#xfd;" horiz-adv-x="512" 
d="M30 -198l17 85q26 -11 54 -11q91 0 117 111l-201 563h109l81 -245q35 -107 58 -198h4q14 78 51 198l76 245h102l-191 -585q-27 -84 -75 -129.5t-131 -45.5q-43 0 -71 12zM479 749l-210 -127l-57 44l175 136z" />
    <glyph glyph-name="thorn" unicode="&#xfe;" horiz-adv-x="570" 
d="M520 294q0 -142 -68.5 -221.5t-186.5 -79.5q-49 0 -88 11v-195h-98v946h97v-249h4q44 51 133 51q93 0 150 -66.5t57 -196.5zM176 92q37 -15 86 -15q74 0 115.5 51t41.5 157q0 101 -38.5 145t-97.5 44q-30 0 -59.5 -14.5t-47.5 -38.5v-329z" />
    <glyph glyph-name="ydieresis" unicode="&#xff;" horiz-adv-x="512" 
d="M30 -198l17 85q26 -11 54 -11q91 0 117 111l-201 563h109l81 -245q35 -107 58 -198h4q14 78 51 198l76 245h102l-191 -585q-27 -84 -75 -129.5t-131 -45.5q-43 0 -71 12zM93 712q0 25 16.5 41.5t41.5 16.5t42 -16.5t17 -41.5q0 -24 -17 -41t-42 -17t-41.5 17t-16.5 41z
M302 712q0 25 16.5 41.5t41.5 16.5t41.5 -16.5t16.5 -41.5q0 -24 -16.5 -41t-41.5 -17t-41.5 17t-16.5 41z" />
    <glyph glyph-name="Amacron" unicode="&#x100;" horiz-adv-x="615" 
d="M261 477l-61 -198h213l-60 195q-36 124 -45 157h-4q-6 -23 -43 -154zM232 701h150l224 -701h-107l-59 192h-267l-60 -192h-103zM462 815h-309v78h309v-78z" />
    <glyph glyph-name="amacron" unicode="&#x101;" horiz-adv-x="545" 
d="M354 133v109q-95 5 -151.5 -19.5t-56.5 -76.5q0 -34 23 -56t64 -22q39 0 71 18.5t50 46.5zM251 559q196 0 196 -172v-240q0 -71 49 -71h15v-71q-19 -10 -42 -10q-75 0 -100 65h-4q-58 -70 -157 -70q-74 0 -117 43.5t-43 103.5q0 91 81 136.5t225 41.5v55q0 58 -26.5 81.5
t-78.5 23.5q-79 0 -116 -65l-71 55q70 94 189 94zM419 660h-309v78h309v-78z" />
    <glyph glyph-name="Abreve" unicode="&#x102;" horiz-adv-x="615" 
d="M261 477l-61 -198h213l-60 195q-36 124 -45 157h-4q-6 -23 -43 -154zM232 701h150l224 -701h-107l-59 192h-267l-60 -192h-103zM307 787q-124 0 -179 106l65 39q6 -13 16 -26.5t37 -29t61 -15.5t61 15.5t37 29t16 26.5l65 -39q-55 -106 -179 -106z" />
    <glyph glyph-name="abreve" unicode="&#x103;" horiz-adv-x="545" 
d="M354 133v109q-95 5 -151.5 -19.5t-56.5 -76.5q0 -34 23 -56t64 -22q39 0 71 18.5t50 46.5zM251 559q196 0 196 -172v-240q0 -71 49 -71h15v-71q-19 -10 -42 -10q-75 0 -100 65h-4q-58 -70 -157 -70q-74 0 -117 43.5t-43 103.5q0 91 81 136.5t225 41.5v55q0 58 -26.5 81.5
t-78.5 23.5q-79 0 -116 -65l-71 55q70 94 189 94zM265 632q-124 0 -179 106l65 39q6 -13 16 -26.5t37 -29t61 -15.5t61 15.5t37 29t16 26.5l65 -39q-55 -106 -179 -106z" />
    <glyph glyph-name="Aogonek" unicode="&#x104;" horiz-adv-x="615" 
d="M261 477l-61 -198h213l-60 195q-36 124 -45 157h-4q-6 -23 -43 -154zM624 -231q-32 -16 -88 -16q-64 0 -95.5 31t-31.5 79q0 79 89 141l-58 188h-267l-60 -192h-103l222 701h150l224 -701q-116 -61 -116 -126q0 -53 65 -53q30 0 52 12z" />
    <glyph glyph-name="aogonek" unicode="&#x105;" horiz-adv-x="545" 
d="M354 133v109q-95 5 -151.5 -19.5t-56.5 -76.5q0 -34 23 -56t64 -22q39 0 71 18.5t50 46.5zM251 559q196 0 196 -172v-240q0 -71 49 -71h15v-67l2 -3q-116 -61 -116 -126q0 -53 65 -53q30 0 52 12l17 -64q-32 -16 -88 -16q-64 0 -95.5 31t-31.5 79q0 79 91 142
q-27 18 -38 49h-4q-58 -70 -157 -70q-74 0 -117 43.5t-43 103.5q0 91 81 136.5t225 41.5v55q0 58 -26.5 81.5t-78.5 23.5q-79 0 -116 -65l-71 55q70 94 189 94z" />
    <glyph glyph-name="Cacute" unicode="&#x106;" horiz-adv-x="575" 
d="M57 345q0 173 75.5 269.5t217.5 96.5q124 0 196 -65l-65 -76q-54 52 -139 52q-182 0 -182 -270q0 -133 48.5 -202.5t142.5 -69.5q86 0 133 47l56 -71q-62 -66 -201 -66q-144 0 -213 93.5t-69 261.5zM552 904l-210 -127l-57 44l175 136z" />
    <glyph glyph-name="cacute" unicode="&#x107;" horiz-adv-x="481" 
d="M49 268q0 145 65.5 218.5t174.5 73.5q115 0 167 -64l-66 -69q-43 48 -104 48q-135 0 -135 -197q0 -203 135 -203q65 0 103 47l62 -64q-56 -67 -174 -67q-228 0 -228 277zM485 749l-210 -127l-57 44l175 136z" />
    <glyph glyph-name="Ccircumflex" unicode="&#x108;" horiz-adv-x="575" 
d="M57 345q0 173 75.5 269.5t217.5 96.5q124 0 196 -65l-65 -76q-54 52 -139 52q-182 0 -182 -270q0 -133 48.5 -202.5t142.5 -69.5q86 0 133 47l56 -71q-62 -66 -201 -66q-144 0 -213 93.5t-69 261.5zM537 835l-37 -59l-160 92l-161 -92l-35 59l196 124z" />
    <glyph glyph-name="ccircumflex" unicode="&#x109;" horiz-adv-x="481" 
d="M49 268q0 145 65.5 218.5t174.5 73.5q115 0 167 -64l-66 -69q-43 48 -104 48q-135 0 -135 -197q0 -203 135 -203q65 0 103 47l62 -64q-56 -67 -174 -67q-228 0 -228 277zM465 680l-37 -59l-160 92l-161 -92l-35 59l196 124z" />
    <glyph glyph-name="Cdotaccent" unicode="&#x10a;" horiz-adv-x="575" 
d="M57 345q0 173 75.5 269.5t217.5 96.5q124 0 196 -65l-65 -76q-54 52 -139 52q-182 0 -182 -270q0 -133 48.5 -202.5t142.5 -69.5q86 0 133 47l56 -71q-62 -66 -201 -66q-144 0 -213 93.5t-69 261.5zM271 865q0 29 19.5 48.5t47.5 19.5q29 0 48.5 -19.5t19.5 -48.5
q0 -28 -19.5 -47.5t-48.5 -19.5q-28 0 -47.5 19.5t-19.5 47.5z" />
    <glyph glyph-name="cdotaccent" unicode="&#x10b;" horiz-adv-x="481" 
d="M49 268q0 145 65.5 218.5t174.5 73.5q115 0 167 -64l-66 -69q-43 48 -104 48q-135 0 -135 -197q0 -203 135 -203q65 0 103 47l62 -64q-56 -67 -174 -67q-228 0 -228 277zM213 710q0 29 19.5 48.5t47.5 19.5q29 0 48.5 -19.5t19.5 -48.5q0 -28 -19.5 -47.5t-48.5 -19.5
q-28 0 -47.5 19.5t-19.5 47.5z" />
    <glyph glyph-name="Ccaron" unicode="&#x10c;" horiz-adv-x="575" 
d="M57 345q0 173 75.5 269.5t217.5 96.5q124 0 196 -65l-65 -76q-54 52 -139 52q-182 0 -182 -270q0 -133 48.5 -202.5t142.5 -69.5q86 0 133 47l56 -71q-62 -66 -201 -66q-144 0 -213 93.5t-69 261.5zM535 898l-197 -125l-196 125l35 59l161 -92l160 92z" />
    <glyph glyph-name="ccaron" unicode="&#x10d;" horiz-adv-x="481" 
d="M49 268q0 145 65.5 218.5t174.5 73.5q115 0 167 -64l-66 -69q-43 48 -104 48q-135 0 -135 -197q0 -203 135 -203q65 0 103 47l62 -64q-56 -67 -174 -67q-228 0 -228 277zM474 743l-197 -125l-196 125l35 59l161 -92l160 92z" />
    <glyph glyph-name="Dcaron" unicode="&#x10e;" horiz-adv-x="654" 
d="M91 0v701h193q162 0 238 -83.5t76 -257.5q0 -170 -75.5 -265t-238.5 -95h-193zM191 614v-527h89q113 0 163.5 63t50.5 199q0 143 -55 204t-163 61h-85zM512 898l-197 -125l-196 125l35 59l161 -92l160 92z" />
    <glyph glyph-name="dcaron" unicode="&#x10f;" horiz-adv-x="677" 
d="M577 495l-29 44q76 33 76 83q0 42 -56 67v8q0 26 18 44t46 18q33 0 54 -24t21 -65q0 -62 -39.5 -110t-90.5 -65zM393 541v218h98v-759h-75l-19 53h-4q-18 -25 -55 -44t-86 -19q-95 0 -149 64.5t-54 195.5q0 150 70.5 225.5t184.5 75.5q43 0 89 -10zM277 72q82 0 117 76
v304q-32 15 -80 15q-81 0 -122.5 -48.5t-41.5 -158.5q0 -98 35.5 -143t91.5 -45z" />
    <glyph glyph-name="Dcroat" unicode="&#x110;" horiz-adv-x="658" 
d="M97 0v318h-81v82h81v301h194q161 0 237 -83t76 -258q0 -360 -313 -360h-194zM198 614v-214h149v-82h-149v-231h89q113 0 163.5 63t50.5 199q0 143 -55 204t-163 61h-85z" />
    <glyph glyph-name="dcroat" unicode="&#x111;" horiz-adv-x="571" 
d="M393 541v80h-171v63h171v75h98v-75h58v-63h-58v-621l-75 -2l-19 55h-4q-18 -25 -55 -44t-86 -19q-95 0 -149 64.5t-54 195.5q0 150 70.5 225.5t184.5 75.5q43 0 89 -10zM277 72q46 0 78.5 25.5t38.5 75.5v279q-32 15 -80 15q-81 0 -122.5 -48.5t-41.5 -158.5
q0 -98 35.5 -143t91.5 -45z" />
    <glyph glyph-name="Emacron" unicode="&#x112;" horiz-adv-x="538" 
d="M488 0h-397v701h384v-87h-284v-215h248v-87h-248v-225h297v-87zM441 815h-309v78h309v-78z" />
    <glyph glyph-name="emacron" unicode="&#x113;" horiz-adv-x="551" 
d="M435 119l44 -74q-69 -53 -182 -53q-124 0 -186 69t-62 216q0 138 67.5 210.5t173.5 72.5q98 0 152 -58.5t54 -159.5q0 -50 -5 -96h-344q4 -90 43.5 -131t118.5 -41q77 0 126 45zM284 479q-57 0 -94 -39.5t-41 -119.5h251q1 16 1 30q-2 129 -117 129zM430 660h-309v78h309
v-78z" />
    <glyph glyph-name="Ebreve" unicode="&#x114;" horiz-adv-x="538" 
d="M488 0h-397v701h384v-87h-284v-215h248v-87h-248v-225h297v-87zM283 787q-124 0 -179 106l65 39q6 -13 16 -26.5t37 -29t61 -15.5t61 15.5t37 29t16 26.5l65 -39q-55 -106 -179 -106z" />
    <glyph glyph-name="ebreve" unicode="&#x115;" horiz-adv-x="551" 
d="M435 119l44 -74q-69 -53 -182 -53q-124 0 -186 69t-62 216q0 138 67.5 210.5t173.5 72.5q98 0 152 -58.5t54 -159.5q0 -50 -5 -96h-344q4 -90 43.5 -131t118.5 -41q77 0 126 45zM284 479q-57 0 -94 -39.5t-41 -119.5h251q1 16 1 30q-2 129 -117 129zM275 632
q-124 0 -179 106l65 39q6 -13 16 -26.5t37 -29t61 -15.5t61 15.5t37 29t16 26.5l65 -39q-55 -106 -179 -106z" />
    <glyph glyph-name="Edotaccent" unicode="&#x116;" horiz-adv-x="538" 
d="M488 0h-397v701h384v-87h-284v-215h248v-87h-248v-225h297v-87zM213 865q0 29 19.5 48.5t47.5 19.5q29 0 48.5 -19.5t19.5 -48.5q0 -28 -19.5 -47.5t-48.5 -19.5q-28 0 -47.5 19.5t-19.5 47.5z" />
    <glyph glyph-name="edotaccent" unicode="&#x117;" horiz-adv-x="551" 
d="M435 119l44 -74q-69 -53 -182 -53q-124 0 -186 69t-62 216q0 138 67.5 210.5t173.5 72.5q98 0 152 -58.5t54 -159.5q0 -50 -5 -96h-344q4 -90 43.5 -131t118.5 -41q77 0 126 45zM284 479q-57 0 -94 -39.5t-41 -119.5h251q1 16 1 30q-2 129 -117 129zM208 710
q0 29 19.5 48.5t47.5 19.5q29 0 48.5 -19.5t19.5 -48.5q0 -28 -19.5 -47.5t-48.5 -19.5q-28 0 -47.5 19.5t-19.5 47.5z" />
    <glyph glyph-name="Eogonek" unicode="&#x118;" horiz-adv-x="538" 
d="M506 -231q-32 -16 -88 -16q-64 0 -95.5 31t-31.5 79q0 76 84 137h-284v701h384v-87h-284v-215h248v-87h-248v-225h297v-87q-116 -61 -116 -126q0 -53 65 -53q30 0 52 12z" />
    <glyph glyph-name="eogonek" unicode="&#x119;" horiz-adv-x="551" 
d="M435 119l44 -74q-26 -19 -47 -28q-42 -23 -74.5 -55t-32.5 -66q0 -53 65 -53q30 0 52 12l17 -64q-32 -16 -88 -16q-64 0 -95.5 31t-31.5 79q0 56 49 107q-121 1 -182.5 70t-61.5 215q0 138 67.5 210.5t173.5 72.5q98 0 152 -58.5t54 -159.5q0 -50 -5 -96h-344
q4 -90 43.5 -131t118.5 -41q77 0 126 45zM284 479q-57 0 -94 -39.5t-41 -119.5h251q1 16 1 30q-2 129 -117 129z" />
    <glyph glyph-name="Ecaron" unicode="&#x11a;" horiz-adv-x="538" 
d="M488 0h-397v701h384v-87h-284v-215h248v-87h-248v-225h297v-87zM465 898l-197 -125l-196 125l35 59l161 -92l160 92z" />
    <glyph glyph-name="ecaron" unicode="&#x11b;" horiz-adv-x="551" 
d="M435 119l44 -74q-69 -53 -182 -53q-124 0 -186 69t-62 216q0 138 67.5 210.5t173.5 72.5q98 0 152 -58.5t54 -159.5q0 -50 -5 -96h-344q4 -90 43.5 -131t118.5 -41q77 0 126 45zM284 479q-57 0 -94 -39.5t-41 -119.5h251q1 16 1 30q-2 129 -117 129zM472 743l-197 -125
l-196 125l35 59l161 -92l160 92z" />
    <glyph glyph-name="Gcircumflex" unicode="&#x11c;" horiz-adv-x="642" 
d="M367 711q135 0 201 -66l-65 -74q-54 50 -141 50q-40 0 -73.5 -12t-64 -40t-47.5 -82t-17 -130q0 -147 50 -214t151 -67q72 0 107 22v260h101v-305q-80 -63 -229 -63q-283 0 -283 357q0 181 86 272.5t224 91.5zM553 835l-37 -59l-160 92l-161 -92l-35 59l196 124z" />
    <glyph glyph-name="gcircumflex" unicode="&#x11d;" horiz-adv-x="567" 
d="M488 526v-522q0 -107 -63 -162.5t-171 -55.5q-132 0 -193 63l57 77q49 -56 143 -56q69 0 99.5 32.5t30.5 102.5v44h-4q-45 -40 -126 -40q-94 0 -153 61.5t-59 195.5q0 132 68.5 211t199.5 79q108 0 171 -30zM390 459q-34 14 -81 14q-75 0 -117.5 -50.5t-42.5 -148.5
q0 -182 136 -182q67 0 105 47v320zM494 680l-37 -59l-160 92l-161 -92l-35 59l196 124z" />
    <glyph glyph-name="Gbreve" unicode="&#x11e;" horiz-adv-x="642" 
d="M367 711q135 0 201 -66l-65 -74q-54 50 -141 50q-40 0 -73.5 -12t-64 -40t-47.5 -82t-17 -130q0 -147 50 -214t151 -67q72 0 107 22v260h101v-305q-80 -63 -229 -63q-283 0 -283 357q0 181 86 272.5t224 91.5zM351 787q-124 0 -179 106l65 39q6 -13 16 -26.5t37 -29
t61 -15.5t61 15.5t37 29t16 26.5l65 -39q-55 -106 -179 -106z" />
    <glyph glyph-name="gbreve" unicode="&#x11f;" horiz-adv-x="567" 
d="M488 526v-522q0 -107 -63 -162.5t-171 -55.5q-132 0 -193 63l57 77q49 -56 143 -56q69 0 99.5 32.5t30.5 102.5v44h-4q-45 -40 -126 -40q-94 0 -153 61.5t-59 195.5q0 132 68.5 211t199.5 79q108 0 171 -30zM390 459q-34 14 -81 14q-75 0 -117.5 -50.5t-42.5 -148.5
q0 -182 136 -182q67 0 105 47v320zM299 632q-124 0 -179 106l65 39q6 -13 16 -26.5t37 -29t61 -15.5t61 15.5t37 29t16 26.5l65 -39q-55 -106 -179 -106z" />
    <glyph glyph-name="Gdotaccent" unicode="&#x120;" horiz-adv-x="642" 
d="M367 711q135 0 201 -66l-65 -74q-54 50 -141 50q-40 0 -73.5 -12t-64 -40t-47.5 -82t-17 -130q0 -147 50 -214t151 -67q72 0 107 22v260h101v-305q-80 -63 -229 -63q-283 0 -283 357q0 181 86 272.5t224 91.5zM280 865q0 29 19.5 48.5t47.5 19.5q29 0 48.5 -19.5
t19.5 -48.5q0 -28 -19.5 -47.5t-48.5 -19.5q-28 0 -47.5 19.5t-19.5 47.5z" />
    <glyph glyph-name="gdotaccent" unicode="&#x121;" horiz-adv-x="567" 
d="M488 526v-522q0 -107 -63 -162.5t-171 -55.5q-132 0 -193 63l57 77q49 -56 143 -56q69 0 99.5 32.5t30.5 102.5v44h-4q-45 -40 -126 -40q-94 0 -153 61.5t-59 195.5q0 132 68.5 211t199.5 79q108 0 171 -30zM390 459q-34 14 -81 14q-75 0 -117.5 -50.5t-42.5 -148.5
q0 -182 136 -182q67 0 105 47v320zM232 708q0 29 19.5 48.5t47.5 19.5q29 0 48.5 -19.5t19.5 -48.5q0 -28 -19.5 -47.5t-48.5 -19.5q-28 0 -47.5 19.5t-19.5 47.5z" />
    <glyph glyph-name="uni0122" unicode="&#x122;" horiz-adv-x="642" 
d="M316 -334l-22 36q63 26 63 74q0 24 -16.5 38.5t-47.5 29.5v5q0 26 16.5 43.5t43.5 17.5q33 0 53 -23.5t20 -63.5q0 -55 -33 -96.5t-77 -60.5zM367 711q135 0 201 -66l-65 -74q-54 50 -141 50q-40 0 -73.5 -12t-64 -40t-47.5 -82t-17 -130q0 -147 50 -214t151 -67
q72 0 107 22v260h101v-305q-80 -63 -229 -63q-283 0 -283 357q0 181 86 272.5t224 91.5z" />
    <glyph glyph-name="uni0123" unicode="&#x123;" horiz-adv-x="567" 
d="M367 893l28 -43q-75 -33 -75 -83q0 -41 55 -65v-9q0 -26 -17.5 -43.5t-44.5 -17.5q-33 0 -53.5 23.5t-20.5 64.5q0 60 39 108t89 65zM488 526v-522q0 -107 -63 -162.5t-171 -55.5q-132 0 -193 63l57 77q49 -56 143 -56q69 0 99.5 32.5t30.5 102.5v44h-4q-45 -40 -126 -40
q-94 0 -153 61.5t-59 195.5q0 132 68.5 211t199.5 79q108 0 171 -30zM390 459q-34 14 -81 14q-75 0 -117.5 -50.5t-42.5 -148.5q0 -182 136 -182q67 0 105 47v320z" />
    <glyph glyph-name="Hcircumflex" unicode="&#x124;" horiz-adv-x="698" 
d="M506 701h101v-701h-101v310h-315v-310h-100v701h100v-304h315v304zM545 835l-37 -59l-160 92l-161 -92l-35 59l196 124z" />
    <glyph glyph-name="hcircumflex" unicode="&#x125;" horiz-adv-x="585" 
d="M337 558q80 0 126 -47t46 -133v-378h-99v360q0 51 -25.5 81t-75.5 30q-45 0 -80.5 -25t-50.5 -61v-385h-99v759h99v-268h4q58 67 155 67zM323 839l-37 -59l-160 92l-161 -92l-35 59l196 124z" />
    <glyph glyph-name="Hbar" unicode="&#x126;" horiz-adv-x="712" 
d="M684 515h-70v-515h-101v310h-315v-310h-100v515h-71v63h71v123h100v-123h315v123h101v-123h70v-63zM198 397h315v118h-315v-118z" />
    <glyph glyph-name="hbar" unicode="&#x127;" horiz-adv-x="587" 
d="M343 621h-163v-130h4q58 67 155 67q80 0 126 -47t46 -133v-378h-99v360q0 51 -25.5 81t-75.5 30q-45 0 -80.5 -25t-50.5 -61v-385h-99v621h-65v63h65v75h99v-75h163v-63z" />
    <glyph glyph-name="Itilde" unicode="&#x128;" horiz-adv-x="300" 
d="M100 0v701h101v-701h-101zM76 913q30 0 77.5 -18t66.5 -18q41 0 67 34l39 -60q-9 -17 -35 -34t-63 -17q-25 0 -74 18.5t-69 18.5q-44 0 -71 -33l-39 60q35 49 101 49z" />
    <glyph glyph-name="itilde" unicode="&#x129;" horiz-adv-x="291" 
d="M98 0v550h99v-550h-99zM71 758q30 0 77.5 -18t66.5 -18q41 0 67 34l39 -60q-9 -17 -35 -34t-63 -17q-25 0 -74 18.5t-69 18.5q-44 0 -71 -33l-39 60q35 49 101 49z" />
    <glyph glyph-name="Imacron" unicode="&#x12a;" horiz-adv-x="300" 
d="M100 0v701h101v-701h-101zM305 815h-309v78h309v-78z" />
    <glyph glyph-name="imacron" unicode="&#x12b;" horiz-adv-x="291" 
d="M98 0v550h99v-550h-99zM300 660h-309v78h309v-78z" />
    <glyph glyph-name="Ibreve" unicode="&#x12c;" horiz-adv-x="300" 
d="M100 0v701h101v-701h-101zM151 787q-124 0 -179 106l65 39q6 -13 16 -26.5t37 -29t61 -15.5t61 15.5t37 29t16 26.5l65 -39q-55 -106 -179 -106z" />
    <glyph glyph-name="ibreve" unicode="&#x12d;" horiz-adv-x="291" 
d="M98 0v550h99v-550h-99zM146 632q-124 0 -179 106l65 39q6 -13 16 -26.5t37 -29t61 -15.5t61 15.5t37 29t16 26.5l65 -39q-55 -106 -179 -106z" />
    <glyph glyph-name="Iogonek" unicode="&#x12e;" horiz-adv-x="300" 
d="M219 -231q-32 -16 -88 -16q-64 0 -95.5 31t-31.5 79q0 80 96 146v692h101v-701q-116 -61 -116 -126q0 -53 65 -53q30 0 52 12z" />
    <glyph glyph-name="iogonek" unicode="&#x12f;" horiz-adv-x="291" 
d="M79 705q0 29 19 48t46 19q29 0 47.5 -19t18.5 -48q0 -27 -19 -45.5t-47 -18.5q-27 0 -46 18.5t-19 45.5zM215 -231q-32 -16 -88 -16q-64 0 -95.5 31t-31.5 79q0 83 98 147v540h99v-550q-116 -61 -116 -126q0 -53 65 -53q30 0 52 12z" />
    <glyph glyph-name="Idotaccent" unicode="&#x130;" horiz-adv-x="300" 
d="M100 0v701h101v-701h-101zM83 865q0 29 19.5 48.5t47.5 19.5q29 0 48.5 -19.5t19.5 -48.5q0 -28 -19.5 -47.5t-48.5 -19.5q-28 0 -47.5 19.5t-19.5 47.5z" />
    <glyph glyph-name="dotlessi" unicode="&#x131;" horiz-adv-x="291" 
d="M98 0v550h99v-550h-99z" />
    <glyph glyph-name="IJ" unicode="&#x132;" horiz-adv-x="704" 
d="M100 0v701h101v-701h-101zM309 11l32 91q42 -25 95 -25q42 0 59.5 19t17.5 61v544h101v-549q0 -74 -44.5 -119.5t-135.5 -45.5q-80 0 -125 24z" />
    <glyph glyph-name="ij" unicode="&#x133;" horiz-adv-x="554" 
d="M98 0v550h99v-550h-99zM79 705q0 29 19 48t46 19q29 0 47.5 -19t18.5 -48q0 -27 -19 -45.5t-47 -18.5q-27 0 -46 18.5t-19 45.5zM297 -221l-33 81q56 21 83 60.5t27 129.5v500h99v-503q0 -213 -176 -268zM355 705q0 29 19 48t46 19q29 0 47.5 -19t18.5 -48
q0 -27 -19 -45.5t-47 -18.5q-27 0 -46 18.5t-19 45.5z" />
    <glyph glyph-name="Jcircumflex" unicode="&#x134;" horiz-adv-x="404" 
d="M9 11l32 91q42 -25 95 -25q42 0 59.5 19t17.5 61v544h101v-549q0 -74 -44.5 -119.5t-135.5 -45.5q-80 0 -125 24zM459 835l-37 -59l-160 92l-161 -92l-35 59l196 124z" />
    <glyph glyph-name="jcircumflex" unicode="&#x135;" horiz-adv-x="275" 
d="M12 -235l-33 81q56 21 83 60.5t27 128.5v515h99v-518q0 -213 -176 -267zM338 680l-37 -59l-160 92l-161 -92l-35 59l196 124z" />
    <glyph glyph-name="uni0136" unicode="&#x136;" horiz-adv-x="598" 
d="M270 -330l-21 36q62 27 62 75q0 16 -11 30t-21.5 20.5t-31.5 17.5v5q0 26 16.5 43t43.5 17q33 0 53.5 -23.5t20.5 -63.5q0 -55 -33 -96t-78 -61zM191 701v-701h-100v701h100zM211 353l236 348h117l-240 -348l262 -353h-127l-248 349v4z" />
    <glyph glyph-name="uni0137" unicode="&#x137;" horiz-adv-x="522" 
d="M231 -330l-22 36q63 26 63 75q0 16 -11 30t-21.5 20.5t-31.5 17.5v5q0 26 16.5 43t43.5 17q33 0 53 -23.5t20 -63.5q0 -55 -32.5 -96t-77.5 -61zM178 759v-759h-99v759h99zM189 285v4l184 261h119l-191 -259v-4l200 -287h-122z" />
    <glyph glyph-name="kgreenlandic" unicode="&#x138;" horiz-adv-x="522" 
d="M79 550h99v-550h-99v550zM194 267v4l179 279h117l-185 -276v-4l196 -270h-122z" />
    <glyph glyph-name="Lacute" unicode="&#x139;" horiz-adv-x="496" 
d="M91 701h100v-614h289v-87h-389v701zM360 904l-210 -127l-57 44l175 136z" />
    <glyph glyph-name="lacute" unicode="&#x13a;" horiz-adv-x="296" 
d="M83 759h98v-616q0 -65 54 -65q15 0 39 8v-81q-32 -13 -70 -13q-59 0 -90 33t-31 92v642zM336 925l-210 -127l-57 44l175 136z" />
    <glyph glyph-name="uni013B" unicode="&#x13b;" horiz-adv-x="496" 
d="M238 -330l-21 36q63 27 63 75q0 12 -5 22.5t-16.5 19t-19.5 13.5t-24 13v5q0 26 17 43t44 17q33 0 53 -23.5t20 -63.5q0 -55 -33 -96t-78 -61zM91 701h100v-614h289v-87h-389v701z" />
    <glyph glyph-name="uni013C" unicode="&#x13c;" horiz-adv-x="299" 
d="M122 -330l-22 36q63 26 63 75q0 16 -11 30t-22 20.5t-32 17.5v5q0 26 17 43t44 17q33 0 53 -23.5t20 -63.5q0 -55 -32.5 -96t-77.5 -61zM83 759h98v-616q0 -65 54 -65q15 0 39 8v-81q-32 -13 -70 -13q-59 0 -90 33t-31 92v642z" />
    <glyph glyph-name="Lcaron" unicode="&#x13d;" horiz-adv-x="496" 
d="M284 477l-29 43q76 33 76 83q0 41 -56 68v8q0 26 18 44t45 18q34 0 55 -24.5t21 -65.5q0 -61 -39.5 -109t-90.5 -65zM91 701h100v-614h289v-87h-389v701z" />
    <glyph glyph-name="lcaron" unicode="&#x13e;" horiz-adv-x="379" 
d="M275 493l-29 44q76 33 76 83q0 41 -56 67v8q0 27 18 45t45 18q34 0 55 -24.5t21 -65.5q0 -61 -39.5 -109.5t-90.5 -65.5zM83 759h98v-616q0 -65 54 -65q15 0 39 8v-81q-32 -13 -70 -13q-59 0 -90 33t-31 92v642z" />
    <glyph glyph-name="Ldot" unicode="&#x13f;" horiz-adv-x="496" 
d="M298 380q0 29 19.5 48.5t46.5 19.5q29 0 48.5 -19.5t19.5 -48.5q0 -26 -20 -45.5t-48 -19.5q-27 0 -46.5 19.5t-19.5 45.5zM91 701h100v-614h289v-87h-389v701z" />
    <glyph glyph-name="ldot" unicode="&#x140;" horiz-adv-x="402" 
d="M279 397q0 29 19.5 48.5t46.5 19.5q29 0 48.5 -19.5t19.5 -48.5q0 -27 -20 -46t-48 -19q-27 0 -46.5 19t-19.5 46zM83 759h98v-616q0 -65 54 -65q15 0 39 8v-81q-32 -13 -70 -13q-59 0 -90 33t-31 92v642z" />
    <glyph glyph-name="Lslash" unicode="&#x141;" horiz-adv-x="501" 
d="M346 432l-149 -100v-245h289v-87h-389v265l-67 -45v81l67 45v355h100v-288l149 99v-80z" />
    <glyph glyph-name="lslash" unicode="&#x142;" horiz-adv-x="308" 
d="M281 450l-97 -72v-235q0 -65 54 -65q15 0 39 8v-81q-32 -13 -70 -13q-59 0 -90 33t-31 92v188l-58 -43v80l58 43v374h98v-301l97 72v-80z" />
    <glyph glyph-name="Nacute" unicode="&#x143;" horiz-adv-x="708" 
d="M189 578h-6q5 -105 5 -203v-375h-97v701h133l209 -395q63 -122 86 -174h6q-3 74 -3 211v358h95v-701h-130l-214 403q-29 55 -84 175zM572 904l-210 -127l-57 44l175 136z" />
    <glyph glyph-name="nacute" unicode="&#x144;" horiz-adv-x="585" 
d="M509 380v-380h-99v358q0 57 -27.5 87.5t-78.5 30.5q-44 0 -78 -25t-48 -64v-387h-99v550h76l20 -56h4q20 25 61 46.5t93 21.5q83 0 129 -46t47 -136zM511 749l-210 -127l-57 44l175 136z" />
    <glyph glyph-name="uni0145" unicode="&#x145;" horiz-adv-x="708" 
d="M313 -330l-22 36q63 27 63 75q0 12 -5 22.5t-16.5 19t-19.5 13.5t-24 13v5q0 26 17 43t44 17q33 0 53 -23.5t20 -63.5q0 -55 -32.5 -96t-77.5 -61zM189 578h-6q5 -105 5 -203v-375h-97v701h133l209 -395q63 -122 86 -174h6q-3 74 -3 211v358h95v-701h-130l-214 403
q-29 55 -84 175z" />
    <glyph glyph-name="uni0146" unicode="&#x146;" horiz-adv-x="585" 
d="M251 -330l-22 36q63 26 63 75q0 16 -11 30t-21.5 20.5t-31.5 17.5v5q0 26 16.5 43t43.5 17q33 0 53 -23.5t20 -63.5q0 -55 -32.5 -96t-77.5 -61zM509 380v-380h-99v358q0 57 -27.5 87.5t-78.5 30.5q-44 0 -78 -25t-48 -64v-387h-99v550h76l20 -56h4q20 25 61 46.5
t93 21.5q83 0 129 -46t47 -136z" />
    <glyph glyph-name="Ncaron" unicode="&#x147;" horiz-adv-x="708" 
d="M189 578h-6q5 -105 5 -203v-375h-97v701h133l209 -395q63 -122 86 -174h6q-3 74 -3 211v358h95v-701h-130l-214 403q-29 55 -84 175zM550 898l-197 -125l-196 125l35 59l161 -92l160 92z" />
    <glyph glyph-name="ncaron" unicode="&#x148;" horiz-adv-x="585" 
d="M509 380v-380h-99v358q0 57 -27.5 87.5t-78.5 30.5q-44 0 -78 -25t-48 -64v-387h-99v550h76l20 -56h4q20 25 61 46.5t93 21.5q83 0 129 -46t47 -136zM489 743l-197 -125l-196 125l35 59l161 -92l160 92z" />
    <glyph glyph-name="napostrophe" unicode="&#x149;" horiz-adv-x="726" 
d="M23 450l-32 49q83 37 83 90q0 45 -61 72v9q0 29 20 48.5t50 19.5q36 0 59 -26.5t23 -70.5q0 -67 -43.5 -119.5t-98.5 -71.5zM651 380v-380h-99v358q0 57 -27.5 87.5t-78.5 30.5q-44 0 -78 -25t-48 -64v-387h-99v550h76l20 -56h4q20 25 61 46.5t93 21.5q83 0 129 -46
t47 -136z" />
    <glyph glyph-name="Eng" unicode="&#x14a;" horiz-adv-x="708" 
d="M189 578h-6q5 -105 5 -204v-374h-97v701h133l209 -395q63 -122 86 -174h6q-3 74 -3 210v359h95v-669q0 -214 -176 -267l-33 81q50 18 77 51.5t32 102.5h-30l-214 403q-29 55 -84 175z" />
    <glyph glyph-name="eng" unicode="&#x14b;" horiz-adv-x="587" 
d="M332 -235l-32 81q56 21 83 60.5t27 128.5v323q0 57 -27 87.5t-78 30.5q-44 0 -78.5 -25t-48.5 -64v-387h-99v550h76l20 -56h4q20 25 61 46.5t93 21.5q83 0 129 -46t47 -136v-348q0 -213 -177 -267z" />
    <glyph glyph-name="Omacron" unicode="&#x14c;" horiz-adv-x="668" 
d="M160 355q0 -148 45.5 -212.5t130.5 -64.5q84 0 127.5 61.5t43.5 207.5q0 148 -45 212t-131 64q-82 0 -126.5 -61t-44.5 -207zM611 354q0 -187 -74.5 -275.5t-207.5 -88.5q-132 0 -202 84.5t-70 272.5q0 186 74.5 275t206.5 89q273 0 273 -357zM494 815h-309v78h309v-78z
" />
    <glyph glyph-name="omacron" unicode="&#x14d;" horiz-adv-x="568" 
d="M151 279q0 -104 32.5 -155t103.5 -51q70 0 100 48t30 151q0 105 -32 155.5t-104 50.5q-69 0 -99.5 -48.5t-30.5 -150.5zM281 -9q-124 0 -178 73.5t-54 208.5t57.5 211t180.5 76q124 0 178 -73.5t54 -208.5t-57.5 -211t-180.5 -76zM438 660h-309v78h309v-78z" />
    <glyph glyph-name="Obreve" unicode="&#x14e;" horiz-adv-x="668" 
d="M160 355q0 -148 45.5 -212.5t130.5 -64.5q84 0 127.5 61.5t43.5 207.5q0 148 -45 212t-131 64q-82 0 -126.5 -61t-44.5 -207zM611 354q0 -187 -74.5 -275.5t-207.5 -88.5q-132 0 -202 84.5t-70 272.5q0 186 74.5 275t206.5 89q273 0 273 -357zM340 787q-124 0 -179 106
l65 39q6 -13 16 -26.5t37 -29t61 -15.5t61 15.5t37 29t16 26.5l65 -39q-55 -106 -179 -106z" />
    <glyph glyph-name="obreve" unicode="&#x14f;" horiz-adv-x="568" 
d="M151 279q0 -104 32.5 -155t103.5 -51q70 0 100 48t30 151q0 105 -32 155.5t-104 50.5q-69 0 -99.5 -48.5t-30.5 -150.5zM281 -9q-124 0 -178 73.5t-54 208.5t57.5 211t180.5 76q124 0 178 -73.5t54 -208.5t-57.5 -211t-180.5 -76zM284 632q-124 0 -179 106l65 39
q6 -13 16 -26.5t37 -29t61 -15.5t61 15.5t37 29t16 26.5l65 -39q-55 -106 -179 -106z" />
    <glyph glyph-name="Ohungarumlaut" unicode="&#x150;" horiz-adv-x="668" 
d="M160 355q0 -148 45.5 -212.5t130.5 -64.5q84 0 127.5 61.5t43.5 207.5q0 148 -45 212t-131 64q-82 0 -126.5 -61t-44.5 -207zM611 354q0 -187 -74.5 -275.5t-207.5 -88.5q-132 0 -202 84.5t-70 272.5q0 186 74.5 275t206.5 89q273 0 273 -357zM654 881l-209 -114l-43 56
l194 124zM427 902l-195 -136l-51 50l177 145z" />
    <glyph glyph-name="ohungarumlaut" unicode="&#x151;" horiz-adv-x="568" 
d="M151 279q0 -104 32.5 -155t103.5 -51q70 0 100 48t30 151q0 105 -32 155.5t-104 50.5q-69 0 -99.5 -48.5t-30.5 -150.5zM281 -9q-124 0 -178 73.5t-54 208.5t57.5 211t180.5 76q124 0 178 -73.5t54 -208.5t-57.5 -211t-180.5 -76zM578 726l-209 -114l-43 56l194 124z
M351 747l-195 -136l-51 50l177 145z" />
    <glyph glyph-name="OE" unicode="&#x152;" horiz-adv-x="971" 
d="M922 0h-389v80h-3q-53 -90 -195 -90q-278 0 -278 357q0 186 76.5 275t210.5 89t186 -82h3v72h375v-87h-286v-215h250v-87h-250v-225h300v-87zM160 355q0 -277 183 -277q86 0 131.5 61.5t45.5 207.5q0 276 -182 276q-86 0 -132 -61t-46 -207z" />
    <glyph glyph-name="oe" unicode="&#x153;" horiz-adv-x="919" 
d="M469 90h-4q-54 -99 -184 -99q-124 0 -178 73.5t-54 208.5q0 287 237 287q132 0 180 -97h5q57 97 185 97q101 0 155.5 -59t54.5 -162q0 -49 -8 -95h-342v-6q8 -87 48 -125.5t115 -38.5q80 0 134 52l49 -72q-66 -62 -194 -62q-145 0 -199 98zM151 279q0 -104 33 -155
t104 -51t101 48.5t30 155.5q0 201 -139 201q-69 0 -99 -48t-30 -151zM648 479q-52 0 -87.5 -36t-43.5 -116l-1 -7h251q1 10 1 26q0 66 -31 99.5t-89 33.5z" />
    <glyph glyph-name="Racute" unicode="&#x154;" horiz-adv-x="600" 
d="M91 701h191q236 0 236 -200q0 -83 -44 -133t-111 -59v-4q45 -21 87 -94l123 -211h-121l-124 225q-31 57 -96 57h-41v-282h-100v701zM191 614v-248h81q143 0 143 126q0 64 -37 93t-110 29h-77zM491 904l-210 -127l-57 44l175 136z" />
    <glyph glyph-name="racute" unicode="&#x155;" horiz-adv-x="378" 
d="M372 555v-101q-32 8 -62 8q-40 0 -76.5 -16.5t-56.5 -46.5v-399h-98v550h76l21 -67h4q19 35 55 56t84 21q33 0 53 -5zM327 749l-210 -127l-57 44l175 136z" />
    <glyph glyph-name="uni0156" unicode="&#x156;" horiz-adv-x="600" 
d="M273 -330l-22 36q63 26 63 75q0 16 -11 30t-21.5 20.5t-31.5 17.5v5q0 26 16.5 43t43.5 17q33 0 53 -23.5t20 -63.5q0 -55 -32.5 -96t-77.5 -61zM91 701h191q236 0 236 -200q0 -83 -44 -133t-111 -59v-4q45 -21 87 -94l123 -211h-121l-124 225q-31 57 -96 57h-41v-282
h-100v701zM191 614v-248h81q143 0 143 126q0 64 -37 93t-110 29h-77z" />
    <glyph glyph-name="uni0157" unicode="&#x157;" horiz-adv-x="369" 
d="M85 -330l-21 36q62 27 62 75q0 16 -11 30t-21.5 20.5t-31.5 17.5v5q0 26 16.5 43t43.5 17q33 0 53 -23.5t20 -63.5q0 -55 -32.5 -96t-77.5 -61zM372 555v-101q-32 8 -62 8q-40 0 -76.5 -16.5t-56.5 -46.5v-399h-98v550h76l21 -67h4q19 35 55 56t84 21q33 0 53 -5z" />
    <glyph glyph-name="Rcaron" unicode="&#x158;" horiz-adv-x="600" 
d="M91 701h191q236 0 236 -200q0 -83 -44 -133t-111 -59v-4q45 -21 87 -94l123 -211h-121l-124 225q-31 57 -96 57h-41v-282h-100v701zM191 614v-248h81q143 0 143 126q0 64 -37 93t-110 29h-77zM497 898l-197 -125l-196 125l35 59l161 -92l160 92z" />
    <glyph glyph-name="rcaron" unicode="&#x159;" horiz-adv-x="378" 
d="M372 555v-101q-32 8 -62 8q-40 0 -76.5 -16.5t-56.5 -46.5v-399h-98v550h76l21 -67h4q19 35 55 56t84 21q33 0 53 -5zM394 743l-197 -125l-196 125l35 59l161 -92l160 92z" />
    <glyph glyph-name="Sacute" unicode="&#x15a;" horiz-adv-x="544" 
d="M267 79q62 0 95.5 28.5t33.5 73.5q0 34 -24.5 60t-61 42t-79.5 37.5t-79.5 43.5t-61 61.5t-24.5 91.5q0 83 63.5 138.5t161.5 55.5q120 0 190 -66l-62 -77q-61 53 -135 53q-54 0 -85 -27t-31 -70q0 -34 24.5 -61t61.5 -43t79.5 -37.5t79.5 -43.5t61.5 -61.5t24.5 -90.5
q0 -83 -64.5 -140t-178.5 -57q-143 0 -227 77l59 83q85 -71 179 -71zM501 904l-210 -127l-57 44l175 136z" />
    <glyph glyph-name="sacute" unicode="&#x15b;" horiz-adv-x="480" 
d="M331 148q0 30 -28 50.5t-68 34t-80 30.5t-68 52t-28 86q0 65 52 111.5t141 46.5q113 0 172 -64l-64 -66q-43 47 -111 47q-44 0 -68 -20t-24 -50t28 -50.5t68.5 -34.5t80.5 -31t68 -51.5t28 -86.5q0 -63 -52.5 -112t-150.5 -49q-69 0 -121.5 21.5t-81.5 51.5l60 72
q61 -63 148 -63q49 0 74 21t25 54zM461 749l-210 -127l-57 44l175 136z" />
    <glyph glyph-name="Scircumflex" unicode="&#x15c;" horiz-adv-x="544" 
d="M267 79q62 0 95.5 28.5t33.5 73.5q0 34 -24.5 60t-61 42t-79.5 37.5t-79.5 43.5t-61 61.5t-24.5 91.5q0 83 63.5 138.5t161.5 55.5q120 0 190 -66l-62 -77q-61 53 -135 53q-54 0 -85 -27t-31 -70q0 -34 24.5 -61t61.5 -43t79.5 -37.5t79.5 -43.5t61.5 -61.5t24.5 -90.5
q0 -83 -64.5 -140t-178.5 -57q-143 0 -227 77l59 83q85 -71 179 -71zM473 835l-37 -59l-160 92l-161 -92l-35 59l196 124z" />
    <glyph glyph-name="scircumflex" unicode="&#x15d;" horiz-adv-x="480" 
d="M331 148q0 30 -28 50.5t-68 34t-80 30.5t-68 52t-28 86q0 65 52 111.5t141 46.5q113 0 172 -64l-64 -66q-43 47 -111 47q-44 0 -68 -20t-24 -50t28 -50.5t68.5 -34.5t80.5 -31t68 -51.5t28 -86.5q0 -63 -52.5 -112t-150.5 -49q-69 0 -121.5 21.5t-81.5 51.5l60 72
q61 -63 148 -63q49 0 74 21t25 54zM437 680l-37 -59l-160 92l-161 -92l-35 59l196 124z" />
    <glyph glyph-name="uni015E" unicode="&#x15e;" horiz-adv-x="544" 
d="M267 79q62 0 95.5 28.5t33.5 73.5q0 34 -24.5 60t-61 42t-79.5 37.5t-79.5 43.5t-61 61.5t-24.5 91.5q0 83 63.5 138.5t161.5 55.5q120 0 190 -66l-62 -77q-61 53 -135 53q-54 0 -85 -27t-31 -70q0 -34 24.5 -61t61.5 -43t79.5 -37.5t79.5 -43.5t61.5 -61.5t24.5 -90.5
q0 -83 -64.5 -140t-178.5 -57q-143 0 -227 77l59 83q85 -71 179 -71zM332 -116q0 -93 -108 -128l-31 51q62 28 62 77q0 32 -25 61v4h84q18 -26 18 -65z" />
    <glyph glyph-name="uni015F" unicode="&#x15f;" horiz-adv-x="480" 
d="M331 148q0 30 -28 50.5t-68 34t-80 30.5t-68 52t-28 86q0 65 52 111.5t141 46.5q113 0 172 -64l-64 -66q-43 47 -111 47q-44 0 -68 -20t-24 -50t28 -50.5t68.5 -34.5t80.5 -31t68 -51.5t28 -86.5q0 -63 -52.5 -112t-150.5 -49q-69 0 -121.5 21.5t-81.5 51.5l60 72
q61 -63 148 -63q49 0 74 21t25 54zM302 -116q0 -93 -108 -128l-31 51q62 28 62 77q0 32 -25 61v4h84q18 -26 18 -65z" />
    <glyph glyph-name="Scaron" unicode="&#x160;" horiz-adv-x="544" 
d="M267 79q62 0 95.5 28.5t33.5 73.5q0 34 -24.5 60t-61 42t-79.5 37.5t-79.5 43.5t-61 61.5t-24.5 91.5q0 83 63.5 138.5t161.5 55.5q120 0 190 -66l-62 -77q-61 53 -135 53q-54 0 -85 -27t-31 -70q0 -34 24.5 -61t61.5 -43t79.5 -37.5t79.5 -43.5t61.5 -61.5t24.5 -90.5
q0 -83 -64.5 -140t-178.5 -57q-143 0 -227 77l59 83q85 -71 179 -71zM479 898l-197 -125l-196 125l35 59l161 -92l160 92z" />
    <glyph glyph-name="scaron" unicode="&#x161;" horiz-adv-x="480" 
d="M331 148q0 30 -28 50.5t-68 34t-80 30.5t-68 52t-28 86q0 65 52 111.5t141 46.5q113 0 172 -64l-64 -66q-43 47 -111 47q-44 0 -68 -20t-24 -50t28 -50.5t68.5 -34.5t80.5 -31t68 -51.5t28 -86.5q0 -63 -52.5 -112t-150.5 -49q-69 0 -121.5 21.5t-81.5 51.5l60 72
q61 -63 148 -63q49 0 74 21t25 54zM437 743l-197 -125l-196 125l35 59l161 -92l160 92z" />
    <glyph glyph-name="uni0162" unicode="&#x162;" horiz-adv-x="486" 
d="M201 -330l-22 36q63 26 63 75q0 16 -11 30t-21.5 20.5t-31.5 17.5v5q0 26 16.5 43t43.5 17q33 0 53 -23.5t20 -63.5q0 -55 -32.5 -96t-77.5 -61zM193 0v614h-184v87h468v-87h-183v-614h-101z" />
    <glyph glyph-name="uni0163" unicode="&#x163;" horiz-adv-x="387" 
d="M152 -330l-22 36q63 27 63 75q0 12 -5 22.5t-16.5 19t-19.5 13.5t-24 13v5q0 26 17 43t44 17q33 0 53 -23.5t20 -63.5q0 -55 -32.5 -96t-77.5 -61zM241 -5q-147 0 -147 160v317h-78v62l78 20l32 139h66v-143h147v-78h-147v-315q0 -78 73 -78q52 0 82 21l26 -77
q-43 -28 -132 -28z" />
    <glyph glyph-name="Tcaron" unicode="&#x164;" horiz-adv-x="486" 
d="M193 0v614h-184v87h468v-87h-183v-614h-101zM440 898l-197 -125l-196 125l35 59l161 -92l160 92z" />
    <glyph glyph-name="tcaron" unicode="&#x165;" horiz-adv-x="391" 
d="M274 612l-29 43q77 33 77 83q0 41 -56 67v9q0 26 18 44t45 18q33 0 54 -24.5t21 -65.5q0 -61 -39.5 -109t-90.5 -65zM241 -5q-147 0 -147 160v317h-78v62l78 20l32 139h66v-143h147v-78h-147v-315q0 -78 73 -78q52 0 82 21l26 -77q-43 -28 -132 -28z" />
    <glyph glyph-name="Tbar" unicode="&#x166;" horiz-adv-x="491" 
d="M411 314h-115v-314h-101v314h-115v76h115v224h-184v87h468v-87h-183v-224h115v-76z" />
    <glyph glyph-name="tbar" unicode="&#x167;" horiz-adv-x="387" 
d="M241 -5q-147 0 -147 160v127h-78v62l78 20v108h-78v62l78 20l32 139h66v-143h147v-78h-147v-112h143v-78h-143v-125q0 -78 73 -78q52 0 82 21l26 -77q-43 -28 -132 -28z" />
    <glyph glyph-name="Utilde" unicode="&#x168;" horiz-adv-x="686" 
d="M347 78q150 0 150 162v461h101v-448q0 -131 -71 -197t-193 -66q-120 0 -183 65.5t-63 179.5v466h100v-449q0 -174 159 -174zM268 913q30 0 77.5 -18t66.5 -18q41 0 67 34l39 -60q-9 -17 -35 -34t-63 -17q-25 0 -74 18.5t-69 18.5q-44 0 -71 -33l-39 60q35 49 101 49z" />
    <glyph glyph-name="utilde" unicode="&#x169;" horiz-adv-x="586" 
d="M76 176v374h99v-358q0 -121 108 -121q55 0 89 31t37 82v366h99v-550h-81l-16 55h-4q-53 -66 -154 -66q-174 0 -177 187zM219 758q30 0 77.5 -18t66.5 -18q41 0 67 34l39 -60q-9 -17 -35 -34t-63 -17q-25 0 -74 18.5t-69 18.5q-44 0 -71 -33l-39 60q35 49 101 49z" />
    <glyph glyph-name="Umacron" unicode="&#x16a;" horiz-adv-x="686" 
d="M347 78q150 0 150 162v461h101v-448q0 -131 -71 -197t-193 -66q-120 0 -183 65.5t-63 179.5v466h100v-449q0 -174 159 -174zM497 815h-309v78h309v-78z" />
    <glyph glyph-name="umacron" unicode="&#x16b;" horiz-adv-x="586" 
d="M76 176v374h99v-358q0 -121 108 -121q55 0 89 31t37 82v366h99v-550h-81l-16 55h-4q-53 -66 -154 -66q-174 0 -177 187zM447 660h-309v78h309v-78z" />
    <glyph glyph-name="Ubreve" unicode="&#x16c;" horiz-adv-x="686" 
d="M347 78q150 0 150 162v461h101v-448q0 -131 -71 -197t-193 -66q-120 0 -183 65.5t-63 179.5v466h100v-449q0 -174 159 -174zM343 787q-124 0 -179 106l65 39q6 -13 16 -26.5t37 -29t61 -15.5t61 15.5t37 29t16 26.5l65 -39q-55 -106 -179 -106z" />
    <glyph glyph-name="ubreve" unicode="&#x16d;" horiz-adv-x="586" 
d="M76 176v374h99v-358q0 -121 108 -121q55 0 89 31t37 82v366h99v-550h-81l-16 55h-4q-53 -66 -154 -66q-174 0 -177 187zM293 632q-124 0 -179 106l65 39q6 -13 16 -26.5t37 -29t61 -15.5t61 15.5t37 29t16 26.5l65 -39q-55 -106 -179 -106z" />
    <glyph glyph-name="Uring" unicode="&#x16e;" horiz-adv-x="686" 
d="M347 78q150 0 150 162v461h101v-448q0 -131 -71 -197t-193 -66q-120 0 -183 65.5t-63 179.5v466h100v-449q0 -174 159 -174zM227 867q0 50 32.5 82t84.5 32t83 -29.5t31 -78.5q0 -50 -32.5 -82.5t-84.5 -32.5t-83 30t-31 79zM400 869q0 27 -15.5 43t-43.5 16
q-27 0 -41.5 -15.5t-14.5 -41.5q0 -27 15.5 -43t42.5 -16t42 15t15 42z" />
    <glyph glyph-name="uring" unicode="&#x16f;" horiz-adv-x="586" 
d="M76 176v374h99v-358q0 -121 108 -121q55 0 89 31t37 82v366h99v-550h-81l-16 55h-4q-53 -66 -154 -66q-174 0 -177 187zM178 712q0 50 32.5 82t84.5 32t83 -29.5t31 -78.5q0 -50 -32.5 -82.5t-84.5 -32.5t-83 30t-31 79zM351 714q0 27 -15.5 43t-43.5 16
q-27 0 -41.5 -15.5t-14.5 -41.5q0 -27 15.5 -43t42.5 -16t42 15t15 42z" />
    <glyph glyph-name="Uhungarumlaut" unicode="&#x170;" horiz-adv-x="686" 
d="M347 78q150 0 150 162v461h101v-448q0 -131 -71 -197t-193 -66q-120 0 -183 65.5t-63 179.5v466h100v-449q0 -174 159 -174zM652 881l-209 -114l-43 56l194 124zM425 902l-195 -136l-51 50l177 145z" />
    <glyph glyph-name="uhungarumlaut" unicode="&#x171;" horiz-adv-x="586" 
d="M76 176v374h99v-358q0 -121 108 -121q55 0 89 31t37 82v366h99v-550h-81l-16 55h-4q-53 -66 -154 -66q-174 0 -177 187zM600 726l-209 -114l-43 56l194 124zM373 747l-195 -136l-51 50l177 145z" />
    <glyph glyph-name="Uogonek" unicode="&#x172;" horiz-adv-x="686" 
d="M347 78q150 0 150 162v461h101v-448q0 -187 -143 -242q-113 -62 -113 -125q0 -53 65 -53q30 0 52 12l17 -64q-32 -16 -88 -16q-64 0 -95.5 31t-31.5 79q0 62 57 115q-112 4 -171 69.5t-59 175.5v466h100v-449q0 -174 159 -174z" />
    <glyph glyph-name="uogonek" unicode="&#x173;" horiz-adv-x="586" 
d="M526 -231q-32 -16 -88 -16q-64 0 -95.5 31t-31.5 79q0 88 111 155l-11 37h-4q-53 -66 -154 -66q-174 0 -177 187v374h99v-358q0 -121 108 -121q55 0 89 31t37 82v366h99v-550q-116 -61 -116 -126q0 -53 65 -53q30 0 52 12z" />
    <glyph glyph-name="Wcircumflex" unicode="&#x174;" horiz-adv-x="936" 
d="M258 104h4q11 55 41 181l100 416h134l104 -419q26 -108 40 -177h4q23 121 42 195l100 401h101l-181 -701h-134l-100 408q-29 117 -43 192h-4q-18 -94 -39 -178l-104 -422h-135l-179 701h106l100 -390q34 -144 43 -207zM664 835l-37 -59l-160 92l-161 -92l-35 59l196 124z
" />
    <glyph glyph-name="wcircumflex" unicode="&#x175;" horiz-adv-x="777" 
d="M394 439h-4l-109 -439h-124l-146 550h101l72 -289q23 -97 37 -175h4q12 77 34 160l78 304h114l73 -302q26 -107 34 -162h4q19 97 40 178l72 286h92l-145 -550h-126zM585 680l-37 -59l-160 92l-161 -92l-35 59l196 124z" />
    <glyph glyph-name="Ycircumflex" unicode="&#x176;" horiz-adv-x="566" 
d="M567 701l-234 -456v-245h-100v245l-234 456h114l170 -353h4l171 353h109zM479 835l-37 -59l-160 92l-161 -92l-35 59l196 124z" />
    <glyph glyph-name="ycircumflex" unicode="&#x177;" horiz-adv-x="512" 
d="M30 -198l17 85q26 -11 54 -11q91 0 117 111l-201 563h109l81 -245q35 -107 58 -198h4q14 78 51 198l76 245h102l-191 -585q-27 -84 -75 -129.5t-131 -45.5q-43 0 -71 12zM452 680l-37 -59l-160 92l-161 -92l-35 59l196 124z" />
    <glyph glyph-name="Ydieresis" unicode="&#x178;" horiz-adv-x="566" 
d="M567 701l-234 -456v-245h-100v245l-234 456h114l170 -353h4l171 353h109zM120 867q0 25 16.5 41.5t41.5 16.5t42 -16.5t17 -41.5q0 -24 -17 -41t-42 -17t-41.5 17t-16.5 41zM329 867q0 25 16.5 41.5t41.5 16.5t41.5 -16.5t16.5 -41.5q0 -24 -16.5 -41t-41.5 -17t-41.5 17
t-16.5 41z" />
    <glyph glyph-name="Zacute" unicode="&#x179;" horiz-adv-x="527" 
d="M150 93v-4h342v-89h-450l-16 86l342 522v4h-308v89h413l16 -86zM474 904l-210 -127l-57 44l175 136z" />
    <glyph glyph-name="zacute" unicode="&#x17a;" horiz-adv-x="466" 
d="M151 87v-4h272v-83h-372l-15 88l264 375v4h-245v83h341l18 -88zM440 749l-210 -127l-57 44l175 136z" />
    <glyph glyph-name="Zdotaccent" unicode="&#x17b;" horiz-adv-x="527" 
d="M150 93v-4h342v-89h-450l-16 86l342 522v4h-308v89h413l16 -86zM196 865q0 29 19.5 48.5t47.5 19.5q29 0 48.5 -19.5t19.5 -48.5q0 -28 -19.5 -47.5t-48.5 -19.5q-28 0 -47.5 19.5t-19.5 47.5z" />
    <glyph glyph-name="zdotaccent" unicode="&#x17c;" horiz-adv-x="466" 
d="M151 87v-4h272v-83h-372l-15 88l264 375v4h-245v83h341l18 -88zM166 710q0 29 19.5 48.5t47.5 19.5q29 0 48.5 -19.5t19.5 -48.5q0 -28 -19.5 -47.5t-48.5 -19.5q-28 0 -47.5 19.5t-19.5 47.5z" />
    <glyph glyph-name="Zcaron" unicode="&#x17d;" horiz-adv-x="527" 
d="M150 93v-4h342v-89h-450l-16 86l342 522v4h-308v89h413l16 -86zM460 898l-197 -125l-196 125l35 59l161 -92l160 92z" />
    <glyph glyph-name="zcaron" unicode="&#x17e;" horiz-adv-x="466" 
d="M151 87v-4h272v-83h-372l-15 88l264 375v4h-245v83h341l18 -88zM430 743l-197 -125l-196 125l35 59l161 -92l160 92z" />
    <glyph glyph-name="longs" unicode="&#x17f;" horiz-adv-x="368" 
d="M212 619v-619h-99v620q0 68 43 110t127 42q59 0 105 -17l-21 -83q-39 17 -87 17q-68 0 -68 -70z" />
    <glyph glyph-name="florin" unicode="&#x192;" horiz-adv-x="524" 
d="M150 -12l43 337h-100v80h110l14 110q11 84 62.5 133t131.5 49q67 0 98 -18l-32 -85q-26 18 -71 18q-80 0 -91 -98l-13 -109h128v-80h-138l-44 -338q-11 -84 -63.5 -133t-132.5 -49q-70 0 -99 19l33 86q32 -20 71 -20q80 0 93 98z" />
    <glyph glyph-name="uni0218" unicode="&#x218;" horiz-adv-x="544" 
d="M242 -330l-22 36q63 27 63 75q0 12 -5 22.5t-16.5 19t-19.5 13.5t-24 13v5q0 26 17 43t44 17q33 0 53 -23.5t20 -63.5q0 -55 -32.5 -96t-77.5 -61zM267 79q62 0 95.5 28.5t33.5 73.5q0 34 -24.5 60t-61 42t-79.5 37.5t-79.5 43.5t-61 61.5t-24.5 91.5q0 83 63.5 138.5
t161.5 55.5q120 0 190 -66l-62 -77q-61 53 -135 53q-54 0 -85 -27t-31 -70q0 -34 24.5 -61t61.5 -43t79.5 -37.5t79.5 -43.5t61.5 -61.5t24.5 -90.5q0 -83 -64.5 -140t-178.5 -57q-143 0 -227 77l59 83q85 -71 179 -71z" />
    <glyph glyph-name="uni0219" unicode="&#x219;" horiz-adv-x="480" 
d="M199 -330l-22 36q63 27 63 75q0 12 -5 22.5t-16.5 19t-19.5 13.5t-24 13v5q0 26 17 43t44 17q33 0 53 -23.5t20 -63.5q0 -55 -32.5 -96t-77.5 -61zM331 148q0 30 -28 50.5t-68 34t-80 30.5t-68 52t-28 86q0 65 52 111.5t141 46.5q113 0 172 -64l-64 -66q-43 47 -111 47
q-44 0 -68 -20t-24 -50t28 -50.5t68.5 -34.5t80.5 -31t68 -51.5t28 -86.5q0 -63 -52.5 -112t-150.5 -49q-69 0 -121.5 21.5t-81.5 51.5l60 72q61 -63 148 -63q49 0 74 21t25 54z" />
    <glyph glyph-name="uni021A" unicode="&#x21a;" horiz-adv-x="486" 
d="M202 -330l-22 36q63 26 63 75q0 16 -11 30t-22 20.5t-32 17.5v5q0 26 17 43t44 17q33 0 53 -23.5t20 -63.5q0 -55 -32.5 -96t-77.5 -61zM193 0v614h-184v87h468v-87h-183v-614h-101z" />
    <glyph glyph-name="uni021B" unicode="&#x21b;" horiz-adv-x="387" 
d="M151 -330l-22 36q63 26 63 75q0 16 -11 30t-21.5 20.5t-31.5 17.5v5q0 26 16.5 43t43.5 17q33 0 53 -23.5t20 -63.5q0 -55 -32.5 -96t-77.5 -61zM241 -5q-147 0 -147 160v317h-78v62l78 20l32 139h66v-143h147v-78h-147v-315q0 -78 73 -78q52 0 82 21l26 -77
q-43 -28 -132 -28z" />
    <glyph glyph-name="uni0237" unicode="&#x237;" horiz-adv-x="264" 
d="M6 -235l-33 81q56 21 83 60.5t27 128.5v515h99v-518q0 -213 -176 -267z" />
    <glyph glyph-name="uni02BC" unicode="&#x2bc;" horiz-adv-x="247" 
d="M63 450l-32 49q83 37 83 90q0 25 -15 41.5t-45 30.5v9q0 29 19.5 48.5t49.5 19.5q36 0 59 -26.5t23 -70.5q0 -67 -43 -119.5t-99 -71.5z" />
    <glyph glyph-name="circumflex" unicode="&#x2c6;" horiz-adv-x="504" 
d="M448 680l-37 -59l-160 92l-161 -92l-35 59l196 124z" />
    <glyph glyph-name="caron" unicode="&#x2c7;" horiz-adv-x="504" 
d="M448 743l-197 -125l-196 125l35 59l161 -92l160 92z" />
    <glyph glyph-name="breve" unicode="&#x2d8;" horiz-adv-x="504" 
d="M252 632q-124 0 -179 106l65 39q6 -13 16 -26.5t37 -29t61 -15.5t61 15.5t37 29t16 26.5l65 -39q-55 -106 -179 -106z" />
    <glyph glyph-name="dotaccent" unicode="&#x2d9;" horiz-adv-x="504" 
d="M184 710q0 29 19.5 48.5t47.5 19.5q29 0 48.5 -19.5t19.5 -48.5q0 -28 -19.5 -47.5t-48.5 -19.5q-28 0 -47.5 19.5t-19.5 47.5z" />
    <glyph glyph-name="ring" unicode="&#x2da;" horiz-adv-x="504" 
d="M136 712q0 50 32.5 82t84.5 32t83 -29.5t31 -78.5q0 -50 -32.5 -82.5t-84.5 -32.5t-83 30t-31 79zM309 714q0 27 -15.5 43t-43.5 16q-27 0 -41.5 -15.5t-14.5 -41.5q0 -27 15.5 -43t42.5 -16t42 15t15 42z" />
    <glyph glyph-name="ogonek" unicode="&#x2db;" horiz-adv-x="504" 
d="M359 -219q-32 -16 -88 -16q-64 0 -95.5 31t-31.5 79q0 107 161 182l36 -45q-116 -61 -116 -126q0 -53 65 -53q30 0 52 12z" />
    <glyph glyph-name="tilde" unicode="&#x2dc;" horiz-adv-x="504" 
d="M177 758q30 0 77.5 -18t66.5 -18q41 0 67 34l39 -60q-9 -17 -35 -34t-63 -17q-25 0 -74 18.5t-69 18.5q-44 0 -71 -33l-39 60q35 49 101 49z" />
    <glyph glyph-name="hungarumlaut" unicode="&#x2dd;" horiz-adv-x="504" 
d="M488 726l-209 -114l-43 56l194 124zM261 747l-195 -136l-51 50l177 145z" />
    <glyph glyph-name="pi" unicode="&#x3c0;" horiz-adv-x="626" 
d="M85 39q27 38 36.5 72.5t9.5 108.5v249h-74v85h515v-85h-74v-469h-98v469h-171v-253q0 -151 -62 -225z" />
    <glyph glyph-name="danda" unicode="&#x964;" horiz-adv-x="496" 
d="M296 0h-96v651h96v-651z" />
    <glyph glyph-name="doubledanda" unicode="&#x965;" horiz-adv-x="757" 
d="M296 0h-96v651h96v-651zM557 0h-96v651h96v-651z" />
    <glyph glyph-name="bnAnji" unicode="&#x980;" horiz-adv-x="575" 
d="M301 336l16 -79q-39 -15 -82 -15q-81 0 -133 44t-52 130q0 95 67.5 164.5t173.5 69.5q80 0 121.5 -42t41.5 -115v-334q0 -37 10 -55t36 -18q32 0 54 26l47 -72q-40 -40 -103 -40q-64 0 -99.5 38.5t-35.5 113.5v337q0 75 -76 75q-59 0 -102.5 -44t-43.5 -104
q0 -88 105 -88q31 0 55 8z" />
    <glyph glyph-name="bnCandrabindu" unicode="&#x981;" 
d="M-138 800q95 0 142 81l67 -38q-28 -54 -83 -85.5t-126 -31.5t-126 31.5t-83 85.5l67 38q45 -81 142 -81zM-189 924q0 22 14 37t37 15q22 0 36.5 -15t14.5 -37q0 -23 -14.5 -37.5t-36.5 -14.5q-23 0 -37 14.5t-14 37.5z" />
    <glyph glyph-name="bnAnusvara" unicode="&#x982;" horiz-adv-x="453" 
d="M35 231l82 56l282 -247l-61 -48zM226 589q-33 0 -54.5 -22.5t-22.5 -55.5q0 -36 22 -60t56 -24q33 0 55 22t22 56q0 35 -22.5 59.5t-55.5 24.5zM228 358q-69 0 -116 40t-47 106q0 65 47 110t113 45q70 0 116.5 -40.5t46.5 -107.5q0 -65 -47 -109t-113 -44z" />
    <glyph glyph-name="bnVisarga" unicode="&#x983;" horiz-adv-x="441" 
d="M220 585q-30 0 -49.5 -20t-20.5 -50q0 -32 20 -53.5t51 -21.5q29 0 48.5 20t19.5 50q0 32 -19.5 53.5t-49.5 21.5zM221 372q-65 0 -108.5 37.5t-43.5 99.5q0 61 44 103t106 42q65 0 108.5 -38t43.5 -100q0 -60 -44 -102t-106 -42zM220 208q-30 0 -49.5 -20t-20.5 -50
q0 -33 20 -54t51 -21q29 0 48.5 19.5t19.5 49.5q0 32 -19.5 54t-49.5 22zM221 -6q-65 0 -108.5 37.5t-43.5 99.5q0 61 44 103t106 42q65 0 108.5 -38t43.5 -100q0 -60 -44 -102t-106 -42z" />
    <glyph glyph-name="bnA" unicode="&#x985;" horiz-adv-x="909" 
d="M283 375q0 62 43 103.5t114 41.5q82 0 134 -57t52 -145q0 -56 -21 -103l123 -87l4 1q-8 63 -8 187v257h-744v77h949v-77h-114v-501l42 -28l-65 -58l-234 161q-67 -65 -175 -65q-142 0 -231 103.5t-127 280.5l84 39q30 -155 97.5 -247.5t176.5 -92.5q71 0 111.5 43
t40.5 111q0 55 -24.5 85.5t-65.5 30.5q-32 0 -50.5 -17.5t-18.5 -48.5q0 -43 42 -64l-64 -48q-33 15 -52 47.5t-19 70.5z" />
    <glyph glyph-name="bnAA" unicode="&#x986;" horiz-adv-x="1190" 
d="M283 375q0 62 43 103.5t114 41.5q82 0 134 -57t52 -145q0 -56 -21 -103l123 -87l4 1q-8 63 -8 187v257h-744v77h958q53 0 79 -35h5q-16 45 -16 112v23h90v-100h114v-77h-114v-573h-93v480q0 51 -20.5 72t-63.5 21h-104v-501l42 -28l-65 -58l-234 161q-67 -65 -175 -65
q-142 0 -231 103.5t-127 280.5l84 39q30 -155 97.5 -247.5t176.5 -92.5q71 0 111.5 43t40.5 111q0 55 -24.5 85.5t-65.5 30.5q-32 0 -50.5 -17.5t-18.5 -48.5q0 -43 42 -64l-64 -48q-33 15 -52 47.5t-19 70.5z" />
    <glyph glyph-name="bnI" unicode="&#x987;" horiz-adv-x="500" 
d="M67 367q0 67 47 110t125 43q85 0 138 -51.5t53 -133.5q0 -83 -52 -132.5t-141 -60.5v-4q45 -12 139 -68l95 -58l-62 -62q-189 114 -236 138t-108 31v77h66q105 0 156.5 38.5t51.5 102.5q0 45 -27 72t-72 27q-37 0 -59 -20t-22 -54q0 -42 42 -65l-65 -49q-69 37 -69 119z
M13 930l88 16q-4 -22 -4 -35q0 -72 95 -72h55q80 0 131.5 -39.5t51.5 -112.5q0 -17 -3 -37h93v-77h-540v77h356q3 18 3 32q0 41 -26 58.5t-82 17.5h-44q-95 0 -135.5 40t-40.5 102q0 20 2 30z" />
    <glyph glyph-name="bnII" unicode="&#x988;" horiz-adv-x="669" 
d="M61 384q0 60 42.5 97.5t111.5 37.5q73 0 117 -43t55 -119l156 138l77 -37q-55 -113 -55 -289q0 -80 19 -175h-85q-21 72 -21 171q0 117 30 193l-121 -112q-12 -85 -59 -136t-120 -51q-63 0 -105.5 32.5t-59.5 75.5l70 47q30 -73 96 -73q50 0 74.5 45t24.5 118
q0 138 -90 138q-31 0 -49.5 -17.5t-18.5 -44.5q0 -44 33 -61l-63 -46q-27 15 -43 44t-16 67zM58 930l88 16l-3 -30q0 -77 100 -77h169q80 0 131.5 -39.5t51.5 -112.5q0 -17 -3 -37h97v-77h-709v77h522q3 18 3 32q0 41 -26 58.5t-82 17.5h-159q-96 0 -139 41t-43 103
q0 19 2 28z" />
    <glyph glyph-name="bnU" unicode="&#x989;" horiz-adv-x="685" 
d="M253 420v153h-265v77h533q3 18 3 32q0 41 -26 58.5t-82 17.5h-200q-96 0 -139 41t-43 103q0 19 2 28l88 16l-3 -30q0 -77 101 -77h210q80 0 131 -39.5t51 -112.5q0 -17 -3 -37h85v-77h-351v-149q0 -48 41 -48q26 0 74.5 22.5t95.5 63.5q33 -21 57.5 -66t24.5 -99
q0 -106 -73 -174t-194 -68q-149 0 -238.5 106t-95.5 261l88 20q4 -144 73 -223.5t174 -79.5q80 0 128 43t48 111q0 38 -14 58q-72 -60 -158 -60q-58 0 -90.5 35.5t-32.5 93.5z" />
    <glyph glyph-name="bnUU" unicode="&#x98a;" horiz-adv-x="700" 
d="M275 426v147h-295v77h559q4 16 4 32q0 41 -26 58.5t-82 17.5h-206q-96 0 -139 41t-43 103q0 10 2 28l88 16l-3 -30q0 -77 101 -77h216q79 0 130.5 -39.5t51.5 -112.5q0 -17 -3 -37h90v-77h-352v-143q0 -49 45 -49q56 0 158 85q36 -26 59.5 -72.5t23.5 -103.5
q0 -103 -69.5 -169.5t-188.5 -66.5q-85 0 -155 29t-113.5 76.5t-69 102t-32.5 110.5l61 18q7 -80 48.5 -153t125.5 -109l4 5q-68 38 -107 124.5t-35 189.5l66 16q-10 -146 45.5 -237t162.5 -91q80 0 124.5 43.5t44.5 110.5q0 43 -14 68q-76 -59 -150 -59q-61 0 -94 35.5
t-33 92.5z" />
    <glyph glyph-name="bnvR" unicode="&#x98b;" horiz-adv-x="765" 
d="M276 655q54 -42 84 -69q-7 35 -7 123v41h90v-409l157 -104l3 1q-9 47 -9 154v358h90v-100h101v-77h-101v-395l-82 -41l-159 104v-166l44 -27l-62 -62l-371 233v83q57 58 142.5 105.5t166.5 66.5v4q-16 13 -47 38.5t-44 36.5q-51 -94 -152 -94q-62 0 -98 35t-36 86
q0 41 16 70h88q-18 -32 -18 -60q0 -24 15.5 -39t40.5 -15q36 0 64.5 26t51.5 93h32zM361 127q-7 96 -7 180v76q-59 -16 -117 -51t-92 -71l212 -134h4z" />
    <glyph glyph-name="bnvL" unicode="&#x98c;" horiz-adv-x="626" 
d="M137 695q0 22 4 38l90 15q-5 -20 -5 -35q0 -38 19.5 -66.5t50.5 -47t68.5 -36t75 -40.5t68.5 -53.5t50.5 -81.5t19.5 -118q0 -126 -84.5 -198t-218.5 -77l-45 62q80 76 80 183q0 47 -22.5 74.5t-65.5 27.5q-37 0 -59.5 -19.5t-22.5 -55.5q0 -64 77 -73l-23 -75
q-63 7 -102.5 44.5t-39.5 103.5q0 76 47 116t119 40q79 0 126.5 -51t47.5 -131q0 -86 -43 -156q68 17 103.5 65.5t35.5 120.5q0 53 -19.5 92.5t-50.5 63.5t-68.5 43t-74.5 37.5t-68 41t-50.5 59.5t-19.5 87z" />
    <glyph glyph-name="bnE" unicode="&#x98f;" horiz-adv-x="720" 
d="M499 577q-57 0 -114 -58t-57 -111q0 -54 53 -54q34 0 59 22l33 -69q-37 -32 -98 -32q-64 0 -100.5 36t-36.5 96q0 86 82 169.5t184 83.5q61 0 91.5 -30.5t30.5 -86.5v-543h-84q-5 36 -37.5 55.5t-106.5 19.5q-15 0 -61.5 -1t-62.5 -1q-106 0 -165 47.5t-59 128.5
q0 65 36 112l87 -36q-30 -31 -30 -77q0 -94 151 -94q20 0 59.5 1.5t54.5 1.5q93 0 132 -33h4q-7 54 -7 210v205q0 38 -38 38z" />
    <glyph glyph-name="bnAI" unicode="&#x990;" horiz-adv-x="786" 
d="M499 577q-57 0 -114 -58t-57 -111q0 -54 53 -54q34 0 59 22l33 -69q-37 -32 -98 -32q-64 0 -100.5 36t-36.5 96q0 86 82 169.5t184 83.5q61 0 91.5 -30.5t30.5 -86.5v-43q35 7 58 32t23 64q0 81 -122 119l-200 61q-77 24 -122 69.5t-45 110.5q0 54 34 90l84 -32
q-24 -26 -24 -60q0 -36 29.5 -61t97.5 -47l160 -50q199 -62 199 -201q0 -67 -47 -117t-125 -59v-419h-84q-5 36 -37.5 55.5t-106.5 19.5q-15 0 -61.5 -1t-62.5 -1q-106 0 -165 47.5t-59 128.5q0 65 36 112l87 -36q-30 -31 -30 -77q0 -94 151 -94q20 0 59.5 1.5t54.5 1.5
q93 0 132 -33h4q-7 54 -7 210v205q0 38 -38 38z" />
    <glyph glyph-name="bnO" unicode="&#x993;" horiz-adv-x="611" 
d="M107 405q30 -132 98 -220.5t153 -88.5q51 0 79 28.5t28 72.5q0 75 -87 119q-33 -15 -72 -24l-45 76q156 32 156 129q0 37 -24.5 58.5t-63.5 21.5q-61 0 -113 -58l-62 62q71 78 174 78q75 0 127 -44.5t52 -118.5q0 -78 -56 -131q106 -64 106 -171q0 -78 -53 -131.5
t-146 -53.5q-65 0 -122 32.5t-97.5 87t-69 115.5t-46.5 127z" />
    <glyph glyph-name="bnAU" unicode="&#x994;" horiz-adv-x="737" 
d="M614 569q0 46 -34 83t-82.5 64t-97.5 56t-83 73.5t-34 101.5q0 45 28 83l87 -33q-21 -25 -21 -55q0 -37 34 -68.5t82.5 -58t97 -57.5t82.5 -80t34 -111q0 -95 -65 -146.5t-156 -51.5q-9 0 -29 2l-6 -6q106 -64 106 -171q0 -78 -53 -131.5t-146 -53.5q-65 0 -122 32.5
t-97.5 87t-69 115.5t-46.5 127l84 34q30 -132 98 -220.5t153 -88.5q51 0 79 28.5t28 72.5q0 75 -87 119q-33 -15 -72 -24l-45 76q156 32 156 129q0 37 -24.5 58.5t-63.5 21.5q-61 0 -113 -58l-62 62q71 78 174 78q75 0 127 -44.5t52 -118.5q0 -29 -8 -56q53 9 84 42.5
t31 86.5z" />
    <glyph glyph-name="bnKA" unicode="&#x995;" horiz-adv-x="705" 
d="M493 182q33 13 55.5 43.5t22.5 67.5q0 49 -37.5 81t-104.5 33v-329l45 -34l-69 -54l-359 277v81q142 116 293 137v88h-359v77h745v-77h-296v-82q107 -4 168.5 -62.5t61.5 -138.5q0 -57 -29 -103t-77 -71zM136 305l206 -164h4q-7 91 -7 193v67q-106 -19 -203 -96z" />
    <glyph glyph-name="bnKHA" unicode="&#x996;" horiz-adv-x="678" 
d="M492 340v410h92v-100h114v-77h-114v-497l47 -23l-60 -67l-526 252v84q135 9 201 51t66 108q0 37 -25 62q-22 -49 -61 -76.5t-89 -27.5q-62 0 -101 36t-39 90q0 51 24 85h91q-24 -41 -24 -79q0 -23 14 -37.5t42 -14.5q35 0 62 30.5t52 100.5h40q99 -71 99 -171
q0 -82 -53 -135t-153 -74v-4l304 -149l4 1q-7 106 -7 222z" />
    <glyph glyph-name="bnGA" unicode="&#x997;" horiz-adv-x="648" 
d="M461 750h93v-100h114v-77h-114v-573h-93v368q0 84 -51.5 140t-135.5 56q-52 0 -91 -24.5t-60 -57.5q33 15 81 15q60 0 102.5 -37.5t42.5 -103.5q0 -63 -43.5 -121t-116.5 -101l-70 68q136 74 136 158q0 33 -21.5 51t-56.5 18q-50 0 -95 -21l-61 65q25 75 93 126t154 51
q78 0 129 -31.5t78 -69.5h4q-18 51 -18 156v45z" />
    <glyph glyph-name="bnGHA" unicode="&#x998;" horiz-adv-x="631" 
d="M528 -14l-467 219v78l52 32q17 10 32.5 18t25 12t17.5 7t9 4v5q-67 8 -104 41t-37 87q0 48 29 84h-105v77h671v-77h-114v-498l47 -22zM444 573h-255q-40 -32 -40 -80q0 -36 26 -57.5t70 -21.5q45 0 94 30l38 -73l-209 -123l282 -133l4 1q-10 77 -10 182v275z" />
    <glyph glyph-name="bnNGA" unicode="&#x999;" horiz-adv-x="698" 
d="M343 510v-41q26 -8 52 -8q76 0 76 66q0 24 -17.5 41t-47.5 17q-63 0 -63 -75zM-20 573v77h210q22 -75 70 -128q2 63 41 99.5t103 36.5t107.5 -39t43.5 -95q0 -63 -44 -98.5t-115 -35.5q-25 0 -53 5v-36q0 -51 47 -51q67 0 185 88q34 -23 57 -65.5t23 -97.5
q0 -98 -74 -166.5t-197 -68.5q-150 0 -245 104.5t-99 251.5l86 18q4 -139 79 -214t180 -75q81 0 130.5 43.5t49.5 102.5q0 37 -13 55q-89 -59 -166 -59q-62 0 -96.5 36t-34.5 96v74q-79 49 -125 142h-150z" />
    <glyph glyph-name="bnCA" unicode="&#x99a;" horiz-adv-x="530" 
d="M341 420q71 -26 106.5 -65.5t35.5 -104.5q0 -94 -74 -173.5t-173 -79.5q-69 0 -106.5 36.5t-37.5 98.5v441h-112v77h570v-77h-373v-20q0 -39 23.5 -64.5t72.5 -43.5zM177 408q5 -35 5 -150v-125q0 -53 57 -53q51 0 102 53t51 118q0 31 -18 52t-63 37l-53 19
q-52 19 -77 49h-4z" />
    <glyph glyph-name="bnCHA" unicode="&#x99b;" horiz-adv-x="603" 
d="M154 573q6 -15 27 -25.5t56.5 -22.5t54.5 -21q28 8 62 8q80 0 134 -50t54 -131q0 -91 -64.5 -144.5t-190.5 -62.5v-4q42 -11 133 -57l143 -72l-57 -67q-233 123 -299 151.5t-133 35.5v77h125q126 0 189 38t63 106q0 44 -24.5 69t-66.5 30q4 -12 4 -30q0 -61 -46.5 -107
t-116.5 -46q-61 0 -95 31t-34 83v211h-92v77h643v-77h-469zM281 403q0 23 -21.5 35t-54 22t-46.5 22v-117q0 -41 43 -41q34 0 56.5 24t22.5 55z" />
    <glyph glyph-name="bnJA" unicode="&#x99c;" horiz-adv-x="824" 
d="M114 429q6 -128 71 -215t163 -87q55 0 84.5 26.5t29.5 64.5q0 27 -14 47l-87 4q-58 4 -90 31t-32 76q0 102 153 197h-412v77h864v-77h-324q13 -60 59.5 -102t136.5 -42h24l37 -67q-54 -98 -54 -216v-152h-91v158q0 63 15.5 118t31.5 80q-89 5 -150.5 54.5t-77.5 114.5
q-115 -75 -115 -132q0 -37 51 -40l116 -6q53 -48 53 -120q0 -74 -55.5 -127.5t-150.5 -53.5q-132 0 -222 105t-100 256z" />
    <glyph glyph-name="bnJHA" unicode="&#x99d;" horiz-adv-x="784" 
d="M361 129h4q-9 71 -9 188v92q-61 -20 -122.5 -58.5t-95.5 -74.5zM598 750h92v-100h114v-77h-114v-395l-84 -41l-159 106v-167l43 -28l-62 -62l-383 248v80q51 53 135 107t176 78v74h-376v77h467v-306l155 -106h4q-8 73 -8 189v323z" />
    <glyph glyph-name="bnNYA" unicode="&#x99e;" horiz-adv-x="970" 
d="M487 655q95 0 118 -75q17 29 55.5 53.5t92.5 24.5q67 0 107 -36.5t40 -94.5q0 -40 -21 -68.5t-56 -39.5v-4q39 -11 64 -39.5t25 -72.5q0 -58 -40.5 -97.5t-109.5 -39.5q-43 0 -83.5 21t-56.5 44q7 -31 7 -123v-108h-89q0 61 -48 90t-162 32q-150 5 -222 57t-72 141
q0 55 30 107l88 -28q-24 -39 -24 -82q0 -52 47 -80.5t159 -32.5q68 -2 114 -13t62 -21t36 -28h4q-15 73 -15 198v167q0 63 -58 63t-106 -46.5t-48 -98.5q0 -56 56 -56q37 0 59 22l33 -69q-37 -31 -101 -31q-66 0 -102.5 35.5t-36.5 94.5q0 87 75.5 160.5t178.5 73.5z
M742 579q-46 0 -81.5 -42.5t-35.5 -121.5q0 -76 34.5 -123t92.5 -47q32 0 50.5 18t18.5 45q0 32 -22 49.5t-63 17.5h-23v77h21q36 0 56 19t20 51q0 26 -17.5 41.5t-50.5 15.5z" />
    <glyph glyph-name="bnTTA" unicode="&#x99f;" horiz-adv-x="550" 
d="M182 573v-370q0 -31 17 -50t51 -19q61 0 107 48t46 111q0 36 -16 57.5t-47 21.5q-34 0 -55 -28l-45 72q38 42 103 42q66 0 108.5 -44.5t42.5 -119.5q0 -94 -72 -170t-178 -76q-70 0 -111 41.5t-41 106.5v377h-111v77h402q4 16 4 32q0 41 -26 58.5t-82 17.5h-96
q-96 0 -139 41t-43 103q0 10 2 28l88 16l-3 -30q0 -77 101 -77h105q80 0 131.5 -39.5t51.5 -112.5q0 -17 -3 -37h96v-77h-388z" />
    <glyph glyph-name="bnTTHA" unicode="&#x9a0;" horiz-adv-x="559" 
d="M512 236q0 -93 -61.5 -156.5t-164.5 -63.5q-106 0 -177 73t-73 175q94 25 140 73.5t46 131.5v76l-24 28h-218v77h164q-54 64 -54 137q0 72 48.5 116t126.5 40l18 -83q-46 5 -73.5 -16.5t-27.5 -61.5q0 -57 61 -132h336v-77h-276q60 -64 87.5 -95t61.5 -77.5t47 -84.5
t13 -80zM142 216q4 -39 43.5 -78t102.5 -39q60 0 96.5 39.5t36.5 96.5q0 31 -8.5 59.5t-31 60t-35 46.5t-46.5 53q1 -57 -14.5 -102t-43.5 -72t-51 -41t-49 -23z" />
    <glyph glyph-name="bnDDA" unicode="&#x9a1;" horiz-adv-x="685" 
d="M37 422l88 20q4 -144 73 -223.5t174 -79.5q80 0 128 43t48 111q0 38 -14 58q-72 -60 -158 -60q-58 0 -90.5 35.5t-32.5 93.5v153h-273v77h725v-77h-360v-149q0 -48 41 -48q26 0 74.5 22.5t95.5 63.5q33 -21 57.5 -66t24.5 -99q0 -106 -73 -174t-194 -68
q-149 0 -238.5 106t-95.5 261z" />
    <glyph glyph-name="bnDDHA" unicode="&#x9a2;" horiz-adv-x="553" 
d="M182 573v-374q0 -31 17.5 -50t52.5 -19q61 0 108.5 48t47.5 113q0 37 -17 59t-50 22q-34 0 -55 -19l-36 75q40 30 94 30q69 0 111.5 -45.5t42.5 -121.5q0 -97 -70.5 -172t-175.5 -75q-75 0 -117.5 41t-42.5 107v381h-112v77h592v-77h-390z" />
    <glyph glyph-name="bnNNA" unicode="&#x9a3;" horiz-adv-x="625" 
d="M134 443q0 -50 30 -78.5t79 -28.5q44 0 76 25l30 -80q-41 -30 -108 -30q-91 0 -145 54.5t-54 137.5q0 91 57.5 149t157.5 58q70 0 118 -31t72 -72l5 2q-13 39 -13 154v47h92v-100h114v-77h-114v-573h-94v314q0 111 -43 182t-131 71q-61 0 -95 -34.5t-34 -89.5z" />
    <glyph glyph-name="bnTA" unicode="&#x9a4;" horiz-adv-x="692" 
d="M376 240q-34 17 -54 51t-20 77q0 63 42.5 104t113.5 41q88 0 137 -60t49 -152q0 -111 -69 -181t-178 -70q-74 0 -134.5 31t-103 88t-71.5 128.5t-47 161.5l85 37q14 -77 35.5 -140t54 -114.5t78.5 -80t102 -28.5q72 0 114.5 49t42.5 121q0 57 -23 91.5t-67 34.5
q-31 0 -50 -18t-19 -49q0 -48 42 -68zM712 650v-77h-732v77h732z" />
    <glyph glyph-name="bnTHA" unicode="&#x9a5;" horiz-adv-x="687" 
d="M106 388q-49 39 -49 108q0 70 48.5 114t125.5 44t131 -46.5t54 -126.5q0 -79 -55.5 -139t-165.5 -81v-4l308 -144h4q-7 92 -7 195v442h93v-100h114v-77h-114v-498l46 -21l-59 -68l-520 237v93q140 6 203 52.5t63 111.5q0 40 -25.5 65t-67.5 25q-37 0 -60 -20.5t-23 -54.5
q0 -38 31 -67z" />
    <glyph glyph-name="bnDA" unicode="&#x9a6;" horiz-adv-x="558" 
d="M458 0h-94v190q0 104 30 192q-118 -77 -217 -220l-91 37v374h-106v77h598v-77h-399v-272q40 50 108.5 105.5t128.5 79.5l79 -44q-37 -105 -37 -253v-189z" />
    <glyph glyph-name="bnDHA" unicode="&#x9a7;" horiz-adv-x="611" 
d="M301 556q-35 17 -76 17q-37 0 -58 -18.5t-21 -51.5q0 -37 29 -57.5t82 -20.5q65 0 169 64v161h205v-77h-114v-496l45 -23l-55 -67l-442 219v81l56 33q19 11 40.5 21.5t32.5 14.5l12 5v5q-63 3 -107 40t-44 100q0 66 44 107t118 41q63 0 112 -26zM435 118q-9 97 -9 200v78
l-258 -145l263 -133h4z" />
    <glyph glyph-name="bnNA" unicode="&#x9a8;" horiz-adv-x="643" 
d="M166 218l-82 -36q-42 39 -42 103q0 76 48.5 121t131.5 45t143.5 -45t96.5 -115h4q-10 57 -10 182v100h-476v77h683v-77h-114v-573h-93v17q0 79 -27 157.5t-81 134.5t-120 56q-45 0 -69 -21.5t-24 -59.5t31 -66z" />
    <glyph glyph-name="bnPA" unicode="&#x9aa;" horiz-adv-x="667" 
d="M135 513q115 -18 159 -148l156 103q-52 108 -169 108q-88 0 -146 -63zM126 255l99 65q-37 113 -128 125q-10 2 -28 4l-49 68q38 58 103.5 99t152.5 41q82 0 136.5 -35t82.5 -83h3q-18 54 -18 175v36h93v-100h114v-77h-114v-573h-92v320q0 36 -6 68l-304 -201z" />
    <glyph glyph-name="bnPHA" unicode="&#x9ab;" horiz-adv-x="768" 
d="M470 72l42 -26l-61 -61l-393 241v85l138 106l-130 131v25h-86v77h808v-77h-625v-4l122 -122v-66l-140 -108l239 -149h4q-10 108 -10 196v163q61 29 132 29q90 0 149.5 -50.5t59.5 -137.5q0 -67 -35 -111t-86 -66l-52 72q37 12 61 39.5t24 65.5q0 51 -32 77.5t-80 26.5
q-21 0 -49 -7v-349z" />
    <glyph glyph-name="bnBA" unicode="&#x9ac;" horiz-adv-x="555" 
d="M369 573h-389v77h595v-77h-114v-498l43 -27l-62 -62l-396 250v80q47 48 140.5 107t182.5 86v64zM369 419q-59 -22 -128.5 -65.5t-101.5 -76.5l235 -149h4q-9 82 -9 188v103z" />
    <glyph glyph-name="bnBHA" unicode="&#x9ad;" horiz-adv-x="741" 
d="M33 442l82 39q12 -55 28.5 -102.5t43 -95t59 -81t79 -54t101.5 -20.5q84 0 131.5 44t47.5 112q0 54 -28 98h-4q-51 -119 -156 -119q-64 0 -102 37t-38 93q0 42 21 74l88 -14q-19 -22 -19 -56q0 -53 55 -53q33 0 60.5 32t56.5 107h71q34 -30 59.5 -85t25.5 -117
q0 -105 -71.5 -173t-198.5 -68q-68 0 -126.5 23t-100 61t-75 91.5t-54.5 108.5t-36 118zM761 573h-781v77h781v-77z" />
    <glyph glyph-name="bnMA" unicode="&#x9ae;" horiz-adv-x="596" 
d="M416 187l3 2q-7 115 -7 182v202h-259v-4q33 -33 62.5 -96.5t29.5 -143.5v-5q54 -15 99 -53t72 -84zM616 573h-114v-573h-87q-13 77 -63.5 146t-119.5 97q-13 -39 -37.5 -57.5t-51.5 -18.5q-31 0 -50.5 18t-19.5 49q0 34 22.5 60t61.5 35v2q0 75 -38.5 139t-83.5 88v15
h-55v77h636v-77z" />
    <glyph glyph-name="bnYA" unicode="&#x9af;" horiz-adv-x="572" 
d="M459 -15l-401 241v85l138 106l-130 131v25h-86v77h612v-77h-114v-501l42 -26zM163 573v-4l122 -122v-66l-140 -108l247 -151h4q-9 99 -9 197v254h-224z" />
    <glyph glyph-name="bnRA" unicode="&#x9b0;" horiz-adv-x="555" 
d="M89 -18q0 27 16.5 43.5t42.5 16.5q25 0 41.5 -16.5t16.5 -43.5q0 -26 -16.5 -43t-41.5 -17q-26 0 -42.5 17t-16.5 43zM369 573h-389v77h595v-77h-114v-498l43 -27l-62 -62l-396 250v80q47 48 140.5 107t182.5 86v64zM369 419q-59 -22 -128.5 -65.5t-101.5 -76.5l235 -149
h4q-9 82 -9 188v103z" />
    <glyph glyph-name="bnLA" unicode="&#x9b2;" horiz-adv-x="751" 
d="M337 101q-33 -12 -74 -12q-95 0 -153 56t-58 148q0 84 50.5 135t121.5 51q55 0 89 -25.5t43 -56.5h4q7 33 37 59t74 26q55 0 90 -38h4v129h-585v77h791v-77h-114v-573h-92v345q-7 20 -29.5 36.5t-53.5 16.5q-36 0 -59 -25t-23 -68v-37h-88v36q0 45 -22.5 68t-58.5 23
t-61.5 -27t-25.5 -74q0 -57 34.5 -90t87.5 -33q32 0 59 12z" />
    <glyph glyph-name="bnSHA" unicode="&#x9b6;" horiz-adv-x="703" 
d="M70 573h-90v77h92q108 0 163 -74q58 74 156 74q54 0 88 -19t48 -39h4q-12 39 -12 122v36h90v-100h114v-77h-114v-573h-92v435q0 64 -35 98.5t-90 34.5q-46 0 -79 -31t-33 -84q0 -49 33 -78t82 -29q21 0 36 5v-83q-24 -4 -39 -4q-106 0 -159 76q-50 -78 -155 -78
q-29 0 -57 8v83q17 -8 54 -8q53 0 83.5 29.5t30.5 79.5q0 58 -32 88.5t-87 30.5z" />
    <glyph glyph-name="bnSSA" unicode="&#x9b7;" horiz-adv-x="582" 
d="M462 -15l-407 242v82l139 119l-142 120v25h-72v77h622v-77h-120v-502l42 -25zM149 573v-3l242 -202v205h-242zM400 120q-6 62 -8 151l-127 106l-122 -105l253 -152h4z" />
    <glyph glyph-name="bnSA" unicode="&#x9b8;" horiz-adv-x="670" 
d="M164 134q-61 0 -101.5 31t-56.5 73l69 47q31 -68 89 -68q38 0 58.5 26.5t20.5 65.5q0 50 -21 87t-70 91l-56 61v25h-116v77h710v-77h-114v-573h-93v268q0 25 -13 39t-37 14q-12 0 -22.5 -4.5t-24 -16.5t-20 -19t-24.5 -28t-23 -27q-79 -92 -155 -92zM486 393
q-3 48 -3 115v65h-288v-4l44 -51q73 -87 77 -149q2 -20 2 -31q56 72 112 72q32 0 56 -17z" />
    <glyph glyph-name="bnHA" unicode="&#x9b9;" horiz-adv-x="498" 
d="M239 137q55 -15 140 -66l95 -58l-64 -63q-188 114 -235 138t-108 31v77h66q105 0 156.5 38.5t51.5 102.5q0 45 -27.5 72t-72.5 27q-36 0 -59.5 -20.5t-23.5 -53.5q0 -43 42 -64l-65 -48q-33 17 -51 48.5t-18 69.5q0 65 48.5 108.5t126.5 43.5q85 0 137.5 -51.5
t52.5 -133.5q0 -83 -52 -133t-140 -61v-4zM-20 573v77h538v-77h-538z" />
    <glyph glyph-name="bnNukta" unicode="&#x9bc;" 
d="M-515 -93q0 27 16.5 43.5t42.5 16.5t42.5 -16.5t16.5 -43.5t-16.5 -43.5t-42.5 -16.5t-42.5 16.5t-16.5 43.5z" />
    <glyph glyph-name="bnAvagraha" unicode="&#x9bd;" horiz-adv-x="472" 
d="M220 187v-4q34 -7 134 -59l120 -63l-53 -62q-194 106 -251.5 133.5t-111.5 33.5v77h62q104 0 150 29.5t46 88.5q0 42 -24.5 68t-66.5 26q-36 0 -57.5 -20t-21.5 -52q0 -41 38 -61l-59 -43q-66 34 -66 110q0 43 23.5 77t64.5 51q-31 56 -113 56h-30v77h25q155 0 203 -119
q77 -3 124.5 -50.5t47.5 -121.5q0 -149 -184 -172z" />
    <glyph glyph-name="bnmAA" unicode="&#x9be;" horiz-adv-x="281" 
d="M97 727v23h90v-100h114v-77h-114v-573h-93v480q0 51 -20.5 72t-63.5 21h-30v77h49q53 0 79 -35h5q-16 45 -16 112z" />
    <glyph glyph-name="bnmI" unicode="&#x9bf;" horiz-adv-x="281" 
d="M634 753q-58 49 -135 80t-158 31q-73 0 -113.5 -40.5t-40.5 -103.5v-70h114v-77h-114v-573h-93v573h-114v77h114v78q0 93 66 156.5t180 63.5q103 0 194 -38t153 -91z" />
    <glyph glyph-name="bnmII" unicode="&#x9c0;" horiz-adv-x="281" 
d="M-105 816l12 -7v-159h-85v74q-57 -19 -126 -19q-92 0 -145.5 37t-53.5 99q0 67 62.5 108t172.5 41q194 0 319 -93t135 -247h114v-77h-113v-573h-93v573h-114v77h113q-9 126 -106.5 193.5t-247.5 67.5q-148 0 -148 -71q0 -60 119 -60q85 0 185 36z" />
    <glyph glyph-name="bnmU" unicode="&#x9c1;" 
d="M-278 -259q44 0 68.5 34.5t24.5 88.5v12q-48 24 -93 24q-42 0 -65 -22.5t-23 -59.5q0 -34 24.5 -55.5t63.5 -21.5zM25 -314q-66 81 -124 131q-12 -70 -57 -110.5t-124 -40.5t-126 43.5t-47 109.5q0 70 46.5 112.5t118.5 42.5q51 0 103 -19v85h91v-132q83 -56 182 -172z
" />
    <glyph glyph-name="bnmUU" unicode="&#x9c2;" 
d="M-60 -270q-63 -63 -161 -63q-79 0 -126 43.5t-47 109.5q0 65 44.5 108.5t113.5 47.5q16 1 51 -2v66h91v-151q-47 17 -106 17q-50 0 -78 -24t-28 -62q0 -35 24 -57t63 -22q89 0 149 97q78 -52 162 -145l-61 -51q-30 37 -91 88z" />
    <glyph glyph-name="bnmvR" unicode="&#x9c3;" 
d="M-94 0l-109 -114l244 -122l-55 -62l-327 163l171 175z" />
    <glyph glyph-name="bnmvRR" unicode="&#x9c4;" 
d="M10 -19l63 -37l-80 -83l113 -74l-53 -47l-169 111zM-242 -42l68 -46l-96 -97l180 -121l-62 -55l-246 163z" />
    <glyph glyph-name="bnmE" unicode="&#x9c7;" horiz-adv-x="282" 
d="M276 56l-45 -74q-85 32 -132.5 113.5t-47.5 196.5q0 154 73 281h-144v77h322v-77h-77q-37 -53 -59.5 -128.5t-22.5 -153.5q0 -176 133 -235z" />
    <glyph glyph-name="bnmAI" unicode="&#x9c8;" horiz-adv-x="282" 
d="M231 -18q-85 32 -132.5 113.5t-47.5 196.5q0 154 73 281h-144v77h183q3 15 3 28q0 36 -25.5 53t-82.5 24q-198 22 -198 147q0 10 2 28l90 16l-3 -30q0 -32 26.5 -52t95.5 -28q185 -22 185 -153q0 -17 -3 -33h49v-77h-77q-37 -53 -59.5 -128.5t-22.5 -153.5
q0 -176 133 -235z" />
    <glyph glyph-name="bnmO" unicode="&#x9cb;" horiz-adv-x="1223" 
d="M276 56l-45 -74q-85 32 -132.5 113.5t-47.5 196.5q0 154 73 281h-144v77h322v-77h-77q-37 -53 -59.5 -128.5t-22.5 -153.5q0 -176 133 -235zM421 517q0 19 12.5 31.5t31.5 12.5t31.5 -12.5t12.5 -31.5q0 -20 -12.5 -32.5t-31.5 -12.5t-31.5 12.5t-12.5 32.5zM339 407
q0 19 13 31.5t33 12.5q18 0 31 -12.5t13 -31.5t-13 -31.5t-31 -12.5q-20 0 -33 12.5t-13 31.5zM326 281q0 19 12.5 32t31.5 13t31.5 -12.5t12.5 -32.5q0 -19 -12.5 -31t-31.5 -12t-31.5 12t-12.5 31zM378 165q0 19 12.5 31.5t31.5 12.5t31.5 -12.5t12.5 -31.5t-12.5 -31.5
t-31.5 -12.5q-20 0 -32 12.5t-12 31.5zM479 90q0 18 13 31t32 13t31.5 -13t12.5 -31q0 -20 -12.5 -33t-31.5 -13t-32 13t-13 33zM606 74q0 20 12 32t32 12t32.5 -12.5t12.5 -31.5t-12.5 -31.5t-32.5 -12.5t-32 12t-12 32zM727 127q0 19 12.5 31.5t31.5 12.5t32 -12.5
t13 -31.5t-13 -31.5t-32 -12.5t-31.5 12.5t-12.5 31.5zM800 225q0 19 13 32t32 13q18 0 30.5 -13t12.5 -32t-12.5 -31.5t-30.5 -12.5q-19 0 -32 12.5t-13 31.5zM810 359q0 19 12 31.5t32 12.5q19 0 31.5 -12.5t12.5 -31.5t-12.5 -31.5t-31.5 -12.5q-20 0 -32 12.5t-12 31.5z
M760 477q0 19 12.5 32t31.5 13t31.5 -12.5t12.5 -32.5q0 -19 -12.5 -31.5t-31.5 -12.5t-31.5 12.5t-12.5 31.5zM665 545q0 19 12.5 32t32.5 13q19 0 31 -12.5t12 -32.5q0 -18 -12.5 -31t-30.5 -13q-19 0 -32 13t-13 31zM539 560q0 20 12.5 32t31.5 12t31.5 -12t12.5 -32
t-12.5 -32t-31.5 -12t-31.5 12t-12.5 32zM1039 727v23h90v-100h114v-77h-114v-573h-93v480q0 51 -20.5 72t-63.5 21h-30v77h49q53 0 79 -35h5q-16 45 -16 112z" />
    <glyph glyph-name="bnmAU" unicode="&#x9cc;" horiz-adv-x="1223" 
d="M276 56l-45 -74q-85 32 -132.5 113.5t-47.5 196.5q0 154 73 281h-144v77h322v-77h-77q-37 -53 -59.5 -128.5t-22.5 -153.5q0 -176 133 -235zM421 517q0 19 12.5 31.5t31.5 12.5t31.5 -12.5t12.5 -31.5q0 -20 -12.5 -32.5t-31.5 -12.5t-31.5 12.5t-12.5 32.5zM339 407
q0 19 13 31.5t33 12.5q18 0 31 -12.5t13 -31.5t-13 -31.5t-31 -12.5q-20 0 -33 12.5t-13 31.5zM326 281q0 19 12.5 32t31.5 13t31.5 -12.5t12.5 -32.5q0 -19 -12.5 -31t-31.5 -12t-31.5 12t-12.5 31zM378 165q0 19 12.5 31.5t31.5 12.5t31.5 -12.5t12.5 -31.5t-12.5 -31.5
t-31.5 -12.5q-20 0 -32 12.5t-12 31.5zM479 90q0 18 13 31t32 13t31.5 -13t12.5 -31q0 -20 -12.5 -33t-31.5 -13t-32 13t-13 33zM606 74q0 20 12 32t32 12t32.5 -12.5t12.5 -31.5t-12.5 -31.5t-32.5 -12.5t-32 12t-12 32zM727 127q0 19 12.5 31.5t31.5 12.5t32 -12.5
t13 -31.5t-13 -31.5t-32 -12.5t-31.5 12.5t-12.5 31.5zM800 225q0 19 13 32t32 13q18 0 30.5 -13t12.5 -32t-12.5 -31.5t-30.5 -12.5q-19 0 -32 12.5t-13 31.5zM810 359q0 19 12 31.5t32 12.5q19 0 31.5 -12.5t12.5 -31.5t-12.5 -31.5t-31.5 -12.5q-20 0 -32 12.5t-12 31.5z
M760 477q0 19 12.5 32t31.5 13t31.5 -12.5t12.5 -32.5q0 -19 -12.5 -31.5t-31.5 -12.5t-31.5 12.5t-12.5 31.5zM665 545q0 19 12.5 32t32.5 13q19 0 31 -12.5t12 -32.5q0 -18 -12.5 -31t-30.5 -13q-19 0 -32 13t-13 31zM539 560q0 20 12.5 32t31.5 12t31.5 -12t12.5 -32
t-12.5 -32t-31.5 -12t-31.5 12t-12.5 32zM1036 678q0 43 -24.5 64t-81.5 21h-48q-96 0 -139 41t-43 103q0 18 2 27l88 17q-3 -30 -3 -31q0 -77 101 -77h54q81 0 134 -42.5t53 -117.5v-33h114v-77h-114v-573h-93v573h-114v77h114v28z" />
    <glyph glyph-name="bnVirama" unicode="&#x9cd;" 
d="M-145 -63l225 -159l-49 -68l-225 157z" />
    <glyph glyph-name="bnTAkhanda" unicode="&#x9ce;" horiz-adv-x="532" 
d="M261 422q42 0 65.5 20t23.5 53q0 34 -25 54.5t-68 20.5q-83 0 -115 -83q35 -65 119 -65zM331 205q83 -29 126 -66.5t43 -105.5q0 -12 -2 -38l-90 -15q2 16 2 39q0 47 -29.5 68.5t-107.5 49.5q-10 3 -15 5q-220 79 -220 266q0 109 58.5 175t158.5 66q78 0 129.5 -42
t51.5 -112q0 -71 -45.5 -110.5t-121.5 -39.5q-85 0 -141 54q2 -42 18 -74t47 -54.5t61 -36t77 -29.5z" />
    <glyph glyph-name="bnAUlengthmark" unicode="&#x9d7;" horiz-adv-x="281" 
d="M94 678q0 43 -24.5 64t-81.5 21h-48q-96 0 -139 41t-43 103q0 18 2 27l88 17q-3 -30 -3 -31q0 -77 101 -77h54q81 0 134 -42.5t53 -117.5v-33h114v-77h-114v-573h-93v573h-114v77h114v28z" />
    <glyph glyph-name="bnDDxA" unicode="&#x9dc;" horiz-adv-x="685" 
d="M309 -88q0 27 17 43.5t42 16.5q26 0 42.5 -16.5t16.5 -43.5q0 -26 -16.5 -43t-42.5 -17q-25 0 -42 17t-17 43zM37 422l88 20q4 -144 73 -223.5t174 -79.5q80 0 128 43t48 111q0 38 -14 58q-72 -60 -158 -60q-58 0 -90.5 35.5t-32.5 93.5v153h-273v77h725v-77h-360v-149
q0 -48 41 -48q26 0 74.5 22.5t95.5 63.5q33 -21 57.5 -66t24.5 -99q0 -106 -73 -174t-194 -68q-149 0 -238.5 106t-95.5 261z" />
    <glyph glyph-name="bnDDHxA" unicode="&#x9dd;" horiz-adv-x="553" 
d="M191 -88q0 27 16.5 43.5t42.5 16.5q25 0 41.5 -16.5t16.5 -43.5q0 -26 -16.5 -43t-41.5 -17q-26 0 -42.5 17t-16.5 43zM182 573v-374q0 -31 17.5 -50t52.5 -19q61 0 108.5 48t47.5 113q0 37 -17 59t-50 22q-34 0 -55 -19l-36 75q40 30 94 30q69 0 111.5 -45.5
t42.5 -121.5q0 -97 -70.5 -172t-175.5 -75q-75 0 -117.5 41t-42.5 107v381h-112v77h592v-77h-390z" />
    <glyph glyph-name="bnYxA" unicode="&#x9df;" horiz-adv-x="572" 
d="M91 -15q0 26 16 41.5t41 15.5q24 0 40 -15.5t16 -41.5q0 -25 -16 -41t-40 -16q-25 0 -41 16t-16 41zM459 -15l-401 241v85l138 106l-130 131v25h-86v77h612v-77h-114v-501l42 -26zM163 573v-4l122 -122v-66l-140 -108l247 -151h4q-9 99 -9 197v254h-224z" />
    <glyph glyph-name="bnvRR" unicode="&#x9e0;" horiz-adv-x="765" 
d="M276 655q54 -42 84 -69q-7 35 -7 123v41h90v-409l157 -104l3 1q-9 47 -9 154v358h90v-100h101v-77h-101v-395l-82 -41l-159 104v-166l44 -27l-62 -62l-113 71l-64 -63l202 -128l-59 -61l-273 170l126 125l-190 119v83q57 58 142.5 105.5t166.5 66.5v4q-16 13 -47 38.5
t-44 36.5q-51 -94 -152 -94q-62 0 -98 35t-36 86q0 41 16 70h88q-18 -32 -18 -60q0 -24 15.5 -39t40.5 -15q36 0 64.5 26t51.5 93h32zM361 127q-7 96 -7 180v76q-59 -16 -117 -51t-92 -71l212 -134h4z" />
    <glyph glyph-name="bnvLL" unicode="&#x9e1;" horiz-adv-x="626" 
d="M488 271q0 53 -19.5 92.5t-50.5 63.5t-68.5 43t-74.5 37.5t-68 41t-50.5 59.5t-19.5 87q0 22 4 38l90 15q-5 -20 -5 -35q0 -38 19.5 -66.5t50.5 -47t68.5 -36t75 -40.5t68.5 -53.5t50.5 -81.5t19.5 -118q0 -126 -84.5 -198t-218.5 -77l-45 62q80 76 80 183
q0 47 -22.5 74.5t-65.5 27.5q-37 0 -59.5 -19.5t-22.5 -55.5q0 -64 77 -73l-23 -75q-63 7 -102.5 44.5t-39.5 103.5q0 76 47 116t119 40q79 0 126.5 -51t47.5 -131q0 -86 -43 -156q68 17 103.5 65.5t35.5 120.5zM528 -2q0 40 31 73l58 -32q-16 -17 -16 -43q0 -24 23 -71.5
t23 -87.5q0 -154 -208 -154q-32 0 -68 6l-11 63q107 13 107 90q0 44 -41 44q-18 0 -28 -10t-10 -26q0 -21 15 -36l-49 -29q-31 33 -31 70q0 44 28 70.5t70 26.5q51 0 79.5 -31.5t28.5 -77.5q0 -59 -40 -95q89 13 89 91q0 33 -25 81.5t-25 77.5z" />
    <glyph glyph-name="bnmvL" unicode="&#x9e2;" 
d="M-52 -80q0 40 30 73l58 -32q-16 -19 -16 -43t23 -72t23 -87q0 -154 -208 -154q-32 0 -67 6l-12 63q108 13 108 90q0 44 -42 44q-17 0 -27 -10t-10 -27q0 -20 15 -35l-49 -29q-31 30 -31 70q0 44 28 70.5t70 26.5q51 0 79.5 -32t28.5 -77q0 -59 -40 -95q89 13 89 90
q0 33 -25 82t-25 78z" />
    <glyph glyph-name="bnmvLL" unicode="&#x9e3;" 
d="M187 -86q0 30 23 55l44 -24q-12 -13 -12 -32q0 -18 17.5 -54t17.5 -66q0 -112 -152 -112q-17 0 -26 1l-2 9h-1l-5 37q49 14 49 59q0 34 -35 34q-26 0 -44 -21q5 -22 5 -41q0 -154 -208 -154q-32 0 -67 6l-12 63q108 13 108 90q0 44 -42 44q-17 0 -27 -10t-10 -27
q0 -20 15 -35l-49 -29q-31 30 -31 70q0 44 28 70.5t70 26.5q51 0 79.5 -32t28.5 -77q0 -59 -40 -95q89 13 89 90q0 33 -25 82t-25 78q0 40 30 73l58 -32q-16 -19 -16 -43q0 -22 23 -72q29 25 61 25q38 0 60.5 -25t22.5 -60t-19 -55q57 13 57 64q0 25 -19 61t-19 58z" />
    <glyph glyph-name="bnZero" unicode="&#x9e6;" horiz-adv-x="610" 
d="M168 331q0 -85 36 -130.5t104 -45.5q135 0 135 169q0 174 -141 174q-65 0 -99.5 -43t-34.5 -124zM303 73q-114 0 -171 69t-57 183q0 116 59.5 186t173.5 70q115 0 171.5 -68.5t56.5 -182.5q0 -117 -59.5 -187t-173.5 -70z" />
    <glyph glyph-name="bnOne" unicode="&#x9e7;" horiz-adv-x="530" 
d="M379 217q0 43 -21 78.5t-52.5 58t-68 48.5t-68 50.5t-52.5 64t-21 88.5q0 21 5 38l91 16q-5 -25 -5 -39q0 -34 15.5 -63t40.5 -50t55 -41.5t60.5 -44t55.5 -50.5t40.5 -67t15.5 -88q0 -92 -56.5 -154t-166.5 -62q-96 0 -152 46.5t-56 118.5q0 87 77 119l51 -62
q-35 -15 -35 -57q0 -34 30 -56.5t84 -22.5q64 0 98.5 36.5t34.5 94.5z" />
    <glyph glyph-name="bnTwo" unicode="&#x9e8;" horiz-adv-x="482" 
d="M86 605q0 10 4 38l90 16q-5 -25 -5 -39q0 -26 25 -48t60.5 -42t71.5 -43.5t61 -63.5t25 -92q0 -70 -48.5 -114.5t-137.5 -45.5v-4q66 -27 137 -71l89 -55l-62 -64l-374 227l54 71l22 -12q50 -26 106 -26q55 0 89 24t34 70q0 36 -24.5 64t-60 48t-70.5 40.5t-60 51.5
t-26 70z" />
    <glyph glyph-name="bnThree" unicode="&#x9e9;" horiz-adv-x="736" 
d="M371 282q-71 42 -71 135q0 67 41.5 113.5t116.5 46.5q98 0 145 -72t47 -178q0 -123 -70 -203t-196 -80q-108 0 -181.5 64t-106 169.5t-32.5 245.5l85 26q0 -422 235 -422q84 0 129.5 56t45.5 146q0 70 -22.5 116.5t-74.5 46.5q-32 0 -51.5 -21.5t-19.5 -56.5
q0 -53 47 -82z" />
    <glyph glyph-name="bnFour" unicode="&#x9ea;" horiz-adv-x="508" 
d="M259 -11q-96 0 -158.5 47.5t-62.5 129.5q0 103 123 165q-46 23 -76.5 63.5t-30.5 93.5q0 77 56.5 122.5t143.5 45.5q88 0 146 -47t58 -120q0 -103 -111 -162q124 -50 124 -162q0 -83 -60.5 -129.5t-151.5 -46.5zM369 488q0 38 -31.5 62.5t-81.5 24.5q-49 0 -81 -24
t-32 -65q0 -43 30 -72.5t74 -43.5q60 26 91 51.5t31 66.5zM258 71q53 0 87.5 25.5t34.5 70.5q0 39 -33 70.5t-87 48.5q-36 -16 -50 -23t-37.5 -22.5t-32.5 -33.5t-9 -42q0 -44 35.5 -69t91.5 -25z" />
    <glyph glyph-name="bnFive" unicode="&#x9eb;" horiz-adv-x="621" 
d="M138 311q0 -101 78 -157t208 -70q-67 62 -67 149q0 99 97 167q-120 30 -122 151q-96 -32 -145 -95t-49 -145zM542 66l-16 -66q-235 1 -357 82.5t-122 229.5q0 132 92.5 223t244.5 119l33 -60q-4 -24 -4 -32q0 -57 35 -83t102 -33l23 -81q-127 -43 -127 -144
q0 -92 96 -155z" />
    <glyph glyph-name="bnSix" unicode="&#x9ec;" horiz-adv-x="654" 
d="M111 610q38 40 102 40q63 0 99.5 -38t36.5 -113v-101q0 -48 40 -48q51 0 149 87q33 -21 58 -68t25 -104q0 -109 -71.5 -176t-193.5 -67q-145 0 -240 106t-100 255l90 20q3 -141 77 -218t174 -77q80 0 126.5 42t46.5 112q0 42 -14 64q-66 -61 -136 -61q-59 0 -92 35.5
t-33 93.5v97q0 38 -9 55.5t-34 17.5q-34 0 -55 -25z" />
    <glyph glyph-name="bnSeven" unicode="&#x9ed;" horiz-adv-x="575" 
d="M354 152v112q-58 -32 -126 -32q-84 0 -137.5 45t-53.5 129q0 101 68 172.5t175 71.5q80 0 122.5 -42.5t42.5 -114.5v-334q0 -37 10 -55t36 -18q34 0 54 26l47 -72q-38 -40 -103 -40q-64 0 -99.5 38.5t-35.5 113.5zM238 317q60 0 116 36v136q0 75 -78 75q-59 0 -103 -46
t-44 -109q0 -46 29 -69t80 -23z" />
    <glyph glyph-name="bnEight" unicode="&#x9ee;" horiz-adv-x="715" 
d="M195 499v-99q56 31 116 31q85 0 134 -46q22 32 77 32h16q35 0 49.5 13t14.5 47q0 18 -4 30l86 -17q4 -18 4 -42q0 -117 -125 -117h-17q-42 0 -56 -30q5 -27 5 -51q0 -101 -62 -175.5t-166 -74.5q-77 0 -120.5 42.5t-43.5 114.5v334q0 37 -9.5 55t-35.5 18q-34 0 -55 -25
l-46 71q38 40 102 40t100 -37.5t36 -113.5zM271 87q57 0 94.5 49.5t37.5 117.5q0 90 -105 90q-54 0 -103 -32v-150q0 -75 76 -75z" />
    <glyph glyph-name="bnNine" unicode="&#x9ef;" horiz-adv-x="636" 
d="M193 74l-30 -79q-61 7 -98 52.5t-37 117.5q0 87 50.5 138.5t137.5 51.5q86 0 139.5 -51t53.5 -138q0 -42 -12 -82q103 43 103 151q0 57 -44 98.5t-107 67t-126.5 50.5t-107.5 64.5t-44 94.5q0 23 4 37l91 16q-4 -16 -4 -36q0 -33 32 -59t79.5 -43t103 -42t103 -53
t79.5 -78.5t32 -116.5q0 -106 -67 -169.5t-174 -69.5l-51 53q28 45 28 107q0 57 -30 87.5t-79 30.5q-47 0 -75 -29.5t-28 -77.5q0 -87 78 -93z" />
    <glyph glyph-name="asRA" unicode="&#x9f0;" horiz-adv-x="563" 
d="M380 573h-400v77h603v-77h-114v-499l42 -25l-64 -66l-401 253v79q48 49 144.5 110t189.5 88v60zM139 279l248 -157h4q-5 38 -7 96l-178 114q-34 -22 -67 -53zM383 427q-60 -21 -120 -59l118 -75q0 91 2 134z" />
    <glyph glyph-name="asWA" unicode="&#x9f1;" horiz-adv-x="555" 
d="M369 573h-389v77h595v-77h-114v-498l43 -27l-62 -62l-396 250v80q47 48 140.5 107t182.5 86v64zM369 419q-59 -22 -128.5 -65.5t-101.5 -76.5l235 -149h4q-9 82 -9 188v103zM200 -48l-140 87l57 64l141 -88z" />
    <glyph glyph-name="bnTaka" unicode="&#x9f2;" horiz-adv-x="419" 
d="M15 436l17 85q166 -12 255.5 -129.5t109.5 -313.5l-84 -20q-23 177 -94 271.5t-204 106.5z" />
    <glyph glyph-name="bnBangladeshitaka" unicode="&#x9f3;" horiz-adv-x="626" 
d="M476 294q0 34 -16.5 54t-48.5 20q-28 0 -46 -18l-45 71q36 33 94 33q66 0 108.5 -42.5t42.5 -117.5q0 -122 -67 -208t-189 -86q-80 0 -127.5 41t-47.5 117v201h-88v77h88v57q0 41 -14.5 58t-52.5 17h-20v82q22 2 34 2q73 0 109 -41t36 -115v-60h57v-77h-57v-201
q0 -38 22.5 -56.5t60.5 -18.5q77 0 122 60t45 151z" />
    <glyph glyph-name="bnNumeratorone" unicode="&#x9f4;" horiz-adv-x="405" 
d="M87 28l-57 63q100 95 164.5 211.5t116.5 279.5l77 -28q-45 -159 -120.5 -298t-180.5 -228z" />
    <glyph glyph-name="bnNumeratortwo" unicode="&#x9f5;" horiz-adv-x="683" 
d="M343 28l-67 55q26 42 26 107q0 57 -26 88t-74 31q-36 0 -56.5 -20t-20.5 -55q0 -43 42 -63l-65 -49q-68 37 -68 119q0 66 43.5 109t121.5 43q84 0 132 -51.5t48 -136.5v-9q108 141 187 386l78 -29q-44 -156 -121.5 -297t-179.5 -228z" />
    <glyph glyph-name="bnNumeratorthree" unicode="&#x9f6;" horiz-adv-x="640" 
d="M178 329l-71 -34q-32 34 -32 86q0 58 38 95t103 37q70 0 106.5 -41t36.5 -104q0 -72 -36.5 -115t-112.5 -47q-80 -3 -80 -55q0 -30 27.5 -45.5t69.5 -15.5q62 0 110.5 31t79 81t51 119.5t28.5 141t8 149.5l82 -10q0 -81 -8 -155.5t-32 -156.5t-62 -141.5t-103.5 -98.5
t-151.5 -39q-81 0 -133 35.5t-52 103.5q0 54 34.5 87.5t105.5 39.5q52 5 73.5 28t21.5 65q0 29 -15.5 47.5t-46.5 18.5q-28 0 -42.5 -15.5t-14.5 -42.5q0 -25 18 -49z" />
    <glyph glyph-name="bnNumeratorfour" unicode="&#x9f7;" horiz-adv-x="281" 
d="M187 650v-650h-93v650h93z" />
    <glyph glyph-name="bnNumeratoroneless" unicode="&#x9f8;" horiz-adv-x="580" 
d="M86 577h93v-291l237 200l78 -44v-386h-96v294l-223 -188l-89 38v377z" />
    <glyph glyph-name="bnDenominatorsixteen" unicode="&#x9f9;" horiz-adv-x="552" 
d="M89 329q0 86 52.5 137.5t136.5 51.5q85 0 137.5 -51.5t52.5 -137.5t-52.5 -138t-137.5 -52q-84 0 -136.5 52t-52.5 138zM180 328q0 -48 26.5 -76t71.5 -28q46 0 72.5 28.5t26.5 76.5t-26.5 75.5t-72.5 27.5q-45 0 -71.5 -28.5t-26.5 -75.5z" />
    <glyph glyph-name="bnIsshar" unicode="&#x9fa;" horiz-adv-x="644" 
d="M213 420q0 26 16.5 43t41.5 17q26 0 42.5 -17t16.5 -43q0 -24 -17 -40.5t-42 -16.5t-41.5 16.5t-16.5 40.5zM272 160q-89 0 -154 45.5t-96 115.5l74 43q22 -48 65 -84t111 -36q51 0 93.5 22t74 63t54.5 86.5t45 107.5l78 -36q-19 -55 -36 -94.5t-47 -86.5t-64 -76.5
t-85 -49.5t-113 -20z" />
    <glyph glyph-name="bnGanda" unicode="&#x9fb;" horiz-adv-x="280" 
d="M388 -99l-53 -69l-212 154q-107 76 -107 178q0 75 48 126.5t146 60.5l23 -83q-126 -15 -126 -105q0 -35 18 -59.5t53 -49.5z" />
    <glyph glyph-name="Wgrave" unicode="&#x1e80;" horiz-adv-x="936" 
d="M258 104h4q11 55 41 181l100 416h134l104 -419q26 -108 40 -177h4q23 121 42 195l100 401h101l-181 -701h-134l-100 408q-29 117 -43 192h-4q-18 -94 -39 -178l-104 -422h-135l-179 701h106l100 -390q34 -144 43 -207zM261 904l92 53l175 -136l-57 -44z" />
    <glyph glyph-name="wgrave" unicode="&#x1e81;" horiz-adv-x="777" 
d="M394 439h-4l-109 -439h-124l-146 550h101l72 -289q23 -97 37 -175h4q12 77 34 160l78 304h114l73 -302q26 -107 34 -162h4q19 97 40 178l72 286h92l-145 -550h-126zM178 749l92 53l175 -136l-57 -44z" />
    <glyph glyph-name="Wacute" unicode="&#x1e82;" horiz-adv-x="936" 
d="M258 104h4q11 55 41 181l100 416h134l104 -419q26 -108 40 -177h4q23 121 42 195l100 401h101l-181 -701h-134l-100 408q-29 117 -43 192h-4q-18 -94 -39 -178l-104 -422h-135l-179 701h106l100 -390q34 -144 43 -207zM668 904l-210 -127l-57 44l175 136z" />
    <glyph glyph-name="wacute" unicode="&#x1e83;" horiz-adv-x="777" 
d="M394 439h-4l-109 -439h-124l-146 550h101l72 -289q23 -97 37 -175h4q12 77 34 160l78 304h114l73 -302q26 -107 34 -162h4q19 97 40 178l72 286h92l-145 -550h-126zM593 749l-210 -127l-57 44l175 136z" />
    <glyph glyph-name="Wdieresis" unicode="&#x1e84;" horiz-adv-x="936" 
d="M258 104h4q11 55 41 181l100 416h134l104 -419q26 -108 40 -177h4q23 121 42 195l100 401h101l-181 -701h-134l-100 408q-29 117 -43 192h-4q-18 -94 -39 -178l-104 -422h-135l-179 701h106l100 -390q34 -144 43 -207zM305 867q0 25 16.5 41.5t41.5 16.5t42 -16.5
t17 -41.5q0 -24 -17 -41t-42 -17t-41.5 17t-16.5 41zM514 867q0 25 16.5 41.5t41.5 16.5t41.5 -16.5t16.5 -41.5q0 -24 -16.5 -41t-41.5 -17t-41.5 17t-16.5 41z" />
    <glyph glyph-name="wdieresis" unicode="&#x1e85;" horiz-adv-x="777" 
d="M394 439h-4l-109 -439h-124l-146 550h101l72 -289q23 -97 37 -175h4q12 77 34 160l78 304h114l73 -302q26 -107 34 -162h4q19 97 40 178l72 286h92l-145 -550h-126zM225 712q0 25 16.5 41.5t41.5 16.5t42 -16.5t17 -41.5q0 -24 -17 -41t-42 -17t-41.5 17t-16.5 41z
M434 712q0 25 16.5 41.5t41.5 16.5t41.5 -16.5t16.5 -41.5q0 -24 -16.5 -41t-41.5 -17t-41.5 17t-16.5 41z" />
    <glyph glyph-name="Ygrave" unicode="&#x1ef2;" horiz-adv-x="566" 
d="M567 701l-234 -456v-245h-100v245l-234 456h114l170 -353h4l171 353h109zM66 904l92 53l175 -136l-57 -44z" />
    <glyph glyph-name="ygrave" unicode="&#x1ef3;" horiz-adv-x="512" 
d="M30 -198l17 85q26 -11 54 -11q91 0 117 111l-201 563h109l81 -245q35 -107 58 -198h4q14 78 51 198l76 245h102l-191 -585q-27 -84 -75 -129.5t-131 -45.5q-43 0 -71 12zM48 749l92 53l175 -136l-57 -44z" />
    <glyph glyph-name="uni200C" unicode="&#x200c;" 
d="M-25 -250v1000h50v-1000h-50z" />
    <glyph glyph-name="uni200D" unicode="&#x200d;" 
d="M-104 824l31 30l73 -73l73 73l30 -32l-72 -72l73 -73l-32 -30l-47 47v-944h-50v944l-48 -48l-31 31l73 73z" />
    <glyph glyph-name="endash" unicode="&#x2013;" horiz-adv-x="430" 
d="M430 262h-430v85h430v-85z" />
    <glyph glyph-name="emdash" unicode="&#x2014;" horiz-adv-x="697" 
d="M697 262h-697v85h697v-85z" />
    <glyph glyph-name="quoteleft" unicode="&#x2018;" horiz-adv-x="266" 
d="M185 738l23 -44q-41 -15 -64 -41t-23 -53q0 -15 5.5 -27t20.5 -23.5t22 -15.5t29 -16v-5q0 -31 -20 -52t-52 -21q-39 0 -63.5 28.5t-24.5 75.5q0 71 45 123t102 71z" />
    <glyph glyph-name="quoteright" unicode="&#x2019;" horiz-adv-x="266" 
d="M81 440l-23 45q41 15 64 41t23 53q0 15 -5.5 27t-20.5 23t-22 15t-29 16v6q0 31 20.5 51.5t52.5 20.5q39 0 63 -28t24 -75q0 -71 -45 -123t-102 -72z" />
    <glyph glyph-name="quotesinglbase" unicode="&#x201a;" horiz-adv-x="257" 
d="M67 -152l-31 49q83 35 83 90q0 45 -61 72v9q0 29 19.5 48.5t50.5 19.5q37 0 59.5 -26.5t22.5 -71.5q0 -66 -43.5 -118.5t-99.5 -71.5z" />
    <glyph glyph-name="quotedblleft" unicode="&#x201c;" horiz-adv-x="485" 
d="M185 738l23 -44q-41 -15 -64 -41t-23 -53q0 -15 5.5 -27t20.5 -23.5t22 -15.5t29 -16v-5q0 -31 -20 -52t-52 -21q-39 0 -63.5 28.5t-24.5 75.5q0 71 45 123t102 71zM403 738l24 -44q-42 -15 -65 -41t-23 -53q0 -15 5.5 -27t20.5 -23.5t22 -15.5t29 -16v-5q0 -31 -20 -52
t-52 -21q-39 0 -63 28.5t-24 75.5q0 71 45 123t101 71z" />
    <glyph glyph-name="quotedblright" unicode="&#x201d;" horiz-adv-x="485" 
d="M300 440l-23 45q41 15 64 41t23 53q0 6 -1.5 12t-3 11t-5.5 10t-6 8t-8.5 8t-9 7t-11 7t-10.5 6t-11.5 6t-10.5 6v6q0 31 20 51.5t52 20.5q39 0 63 -28t24 -75q0 -71 -44.5 -123t-101.5 -72zM81 440l-23 45q41 15 64 41t23 53q0 15 -5.5 27t-20.5 23t-22 15t-29 16v6
q0 31 20.5 51.5t52.5 20.5q39 0 63 -28t24 -75q0 -71 -45 -123t-102 -72z" />
    <glyph glyph-name="quotedblbase" unicode="&#x201e;" horiz-adv-x="475" 
d="M285 -152l-31 49q83 35 83 90q0 45 -61 72v9q0 29 19.5 48.5t50.5 19.5q37 0 59.5 -26.5t22.5 -71.5q0 -66 -43.5 -118.5t-99.5 -71.5zM67 -152l-32 49q83 35 83 90q0 45 -61 72v9q0 29 20 48.5t50 19.5q37 0 59.5 -26.5t22.5 -71.5q0 -66 -43.5 -118.5t-98.5 -71.5z" />
    <glyph glyph-name="dagger" unicode="&#x2020;" horiz-adv-x="530" 
d="M212 -148l11 614l-180 -12v100l180 -12l-13 214h109l-14 -214l182 12v-100l-181 12l12 -614h-106z" />
    <glyph glyph-name="daggerdbl" unicode="&#x2021;" horiz-adv-x="530" 
d="M221 464l-177 -10v100l179 -12l-13 214h110l-14 -214l181 12v-100l-179 11l4 -161l-3 -161l178 11v-100l-181 11l14 -213h-109l13 213l-181 -11v100l178 -12l-3 162z" />
    <glyph glyph-name="bullet" unicode="&#x2022;" horiz-adv-x="454" 
d="M94 353q0 56 38 94t95 38q58 0 95.5 -38t37.5 -94t-38 -94t-94 -38q-60 0 -97 37.5t-37 94.5z" />
    <glyph glyph-name="ellipsis" unicode="&#x2026;" horiz-adv-x="812" 
d="M48 68q0 31 21 52.5t50 21.5q31 0 52.5 -21t21.5 -53q0 -29 -21.5 -50t-52.5 -21q-29 0 -50 21t-21 50zM333 68q0 31 21 52.5t50 21.5q32 0 53 -21t21 -53q0 -29 -21.5 -50t-52.5 -21q-29 0 -50 21t-21 50zM619 68q0 31 21 52.5t50 21.5q32 0 53 -21t21 -53
q0 -29 -21.5 -50t-52.5 -21q-29 0 -50 21t-21 50z" />
    <glyph glyph-name="perthousand" unicode="&#x2030;" horiz-adv-x="1224" 
d="M360 516q0 -95 -43.5 -144.5t-115.5 -49.5q-74 0 -114.5 47t-40.5 143q0 93 43.5 142t116.5 49q72 0 113 -47t41 -140zM204 387q39 0 57.5 29.5t18.5 95.5q0 126 -80 126q-74 0 -74 -125q0 -126 78 -126zM195 23l-52 46l520 609l53 -46zM797 184q0 -95 -43 -144.5
t-115 -49.5q-74 0 -114.5 47.5t-40.5 143.5q0 92 43 141t116 49t113.5 -46.5t40.5 -140.5zM642 55q76 0 76 125q0 127 -80 127q-74 0 -74 -125q0 -127 78 -127zM1178 184q0 -95 -43.5 -144.5t-115.5 -49.5q-74 0 -114.5 47.5t-40.5 143.5q0 92 43.5 141t116.5 49
q72 0 113 -47t41 -140zM1022 55q39 0 57.5 29.5t18.5 95.5q0 127 -80 127q-74 0 -74 -125q0 -127 78 -127z" />
    <glyph glyph-name="guilsinglleft" unicode="&#x2039;" horiz-adv-x="311" 
d="M42 274l167 225l64 -50l-125 -175l125 -175l-64 -49z" />
    <glyph glyph-name="guilsinglright" unicode="&#x203a;" horiz-adv-x="311" 
d="M273 274l-167 -224l-64 49l125 175l-125 175l64 50z" />
    <glyph glyph-name="fraction" unicode="&#x2044;" horiz-adv-x="179" 
d="M347 664l-460 -662l-54 33l460 664z" />
    <glyph glyph-name="four.superior" unicode="&#x2074;" horiz-adv-x="376" 
d="M224 479h-188l-15 56l188 270h91v-265h56v-61h-56v-89h-76v89zM231 734h-2q-24 -40 -43 -70l-83 -124h121v108q1 17 2.5 35t3 32.5t1.5 18.5z" />
    <glyph glyph-name="rupee" unicode="&#x20a8;" horiz-adv-x="1080" 
d="M91 701h191q236 0 236 -200q0 -83 -44 -133t-111 -59v-4q45 -21 87 -94l123 -211h-121l-124 225q-31 57 -96 57h-41v-282h-100v701zM191 614v-248h81q143 0 143 126q0 64 -37 93t-110 29h-77zM931 148q0 30 -28 50.5t-68 34t-80 30.5t-68 52t-28 86q0 65 52 111.5
t141 46.5q113 0 172 -64l-64 -66q-43 47 -111 47q-44 0 -68 -20t-24 -50t28 -50.5t68.5 -34.5t80.5 -31t68 -51.5t28 -86.5q0 -63 -52.5 -112t-150.5 -49q-69 0 -121.5 21.5t-81.5 51.5l60 72q61 -63 148 -63q49 0 74 21t25 54z" />
    <glyph glyph-name="Euro" unicode="&#x20ac;" horiz-adv-x="600" 
d="M448 456l-20 -75h-219q0 -60 1 -71h201l-19 -75h-173q28 -156 169 -156q31 0 57.5 9t39 18t28.5 24l55 -73q-64 -66 -192 -66q-220 0 -257 244h-83v75h76v71h-76v75h85q22 118 89.5 182t179.5 64q125 0 186 -64l-64 -78q-56 54 -132 54q-64 0 -106.5 -39.5t-57.5 -118.5
h232z" />
    <glyph glyph-name="indianrupee" unicode="&#x20b9;" horiz-adv-x="500" 
d="M380 9v-9h-116l-170 209l-60 62l21 76q78 -19 139 4t72 90h-225v75h219q-25 67 -114 67h-105v75h457l-35 -75h-155v-4q34 -21 48 -63h142l-35 -75h-99q-6 -56 -41 -96t-79.5 -56.5t-90.5 -14.5l-1 -3q29 -28 79 -86z" />
    <glyph glyph-name="trademark" unicode="&#x2122;" horiz-adv-x="614" 
d="M514 642h-4l-69 -194h-48l-69 196h-4l2 -88v-132h-55v277h85l66 -192l63 192h85v-277h-55v128zM5 654v47h218v-47h-78v-229h-58v229h-82z" />
    <glyph glyph-name="uni2126" unicode="&#x2126;" horiz-adv-x="766" 
d="M227 83q-69 31 -110 101.5t-41 178.5q0 166 84 256.5t228 90.5q145 0 226.5 -87.5t81.5 -253.5q0 -106 -43.5 -181t-108.5 -105v-4l166 9v-88h-273v101q154 46 154 259q0 132 -56.5 198.5t-151.5 66.5t-148.5 -63.5t-53.5 -195.5q0 -116 43 -180.5t111 -84.5v-101h-273
v88l165 -9v4z" />
    <glyph glyph-name="estimated" unicode="&#x212e;" horiz-adv-x="674" 
d="M556 150l47 -28q-77 -132 -251 -132q-132 0 -212 79.5t-80 205.5q0 124 79.5 205t209.5 81q124 0 197 -74t73 -198q0 -6 -2 -30h-406v-171q58 -43 143 -43q142 0 202 105zM479 311v158q-51 38 -128 38q-89 0 -140 -43v-153h268z" />
    <glyph glyph-name="partialdiff" unicode="&#x2202;" horiz-adv-x="541" 
d="M105 694h144q92 -50 164 -163t72 -258q0 -133 -58.5 -206.5t-164.5 -73.5q-102 0 -156.5 55.5t-54.5 166.5q0 106 59.5 169.5t145.5 63.5q70 0 106 -25l2 2q-55 153 -259 261v8zM390 255q0 49 -7 78q-41 34 -113 34q-124 0 -124 -145q0 -71 32.5 -109t87.5 -38
q124 0 124 180z" />
    <glyph glyph-name="uni2206" unicode="&#x2206;" horiz-adv-x="663" 
d="M607 0h-550l-47 67l277 634h94l272 -634zM330 596l-65 -166l-98 -223l-59 -123h444l-57 123l-98 222l-63 167h-4z" />
    <glyph glyph-name="product" unicode="&#x220f;" horiz-adv-x="662" 
d="M78 -113q27 38 36.5 73.5t9.5 110.5v630h421v-854h-98v769h-224v-549q0 -156 -62 -228z" />
    <glyph glyph-name="summation" unicode="&#x2211;" horiz-adv-x="526" 
d="M209 7l-51 -92v-4l107 4h215v-84h-396l-34 65l198 370l-198 371l34 64h396v-84h-218l-104 4v-4l52 -93l138 -258z" />
    <glyph glyph-name="minus" unicode="&#x2212;" horiz-adv-x="533" 
d="M29 301v83h475v-83h-475z" />
    <glyph glyph-name="uni2215" unicode="&#x2215;" horiz-adv-x="179" 
d="M347 664l-460 -662l-54 33l460 664z" />
    <glyph glyph-name="uni2219" unicode="&#x2219;" horiz-adv-x="253" 
d="M54 349q0 31 20.5 52.5t50.5 21.5q31 0 52.5 -21.5t21.5 -52.5q0 -29 -21.5 -50t-52.5 -21q-30 0 -50.5 21t-20.5 50z" />
    <glyph glyph-name="radical" unicode="&#x221a;" horiz-adv-x="669" 
d="M342 -68h4l73 275l209 742h85l-312 -1109h-111l-203 552h-116l19 76h162l111 -302z" />
    <glyph glyph-name="infinity" unicode="&#x221e;" horiz-adv-x="840" 
d="M136 346q0 -41 26 -68t71 -27q68 0 135 95q-23 27 -39 43.5t-43 32t-54 15.5q-45 0 -70.5 -25t-25.5 -66zM419 286q-42 -51 -87 -80.5t-106 -29.5q-84 0 -129.5 44.5t-45.5 121.5q0 76 49 123t131 47q59 0 102.5 -28.5t86.5 -80.5q89 111 193 111q83 0 129.5 -45
t46.5 -120t-49.5 -123t-130.5 -48q-60 0 -103.5 28t-86.5 80zM703 346q0 39 -25.5 65.5t-70.5 26.5q-69 0 -135 -95q35 -43 66 -66t70 -23q46 0 70.5 24.5t24.5 67.5z" />
    <glyph glyph-name="integral" unicode="&#x222b;" horiz-adv-x="421" 
d="M303 727l-94 -728q-12 -93 -64.5 -140t-135.5 -47q-65 0 -109 22l37 78q28 -15 69 -15q92 0 105 104l94 727q12 93 64.5 140.5t135.5 47.5q61 0 109 -22l-37 -78q-30 14 -69 14q-92 0 -105 -103z" />
    <glyph glyph-name="approxequal" unicode="&#x2248;" horiz-adv-x="546" 
d="M450 515l79 -14q-26 -132 -145 -132q-43 0 -119 30q-68 29 -100 29q-50 0 -69 -64l-79 15q26 132 153 132q37 0 111 -31q66 -29 99 -29q28 0 44 14t26 50zM450 317l79 -13q-26 -133 -145 -133q-40 0 -119 31q-68 29 -100 29q-50 0 -69 -65l-79 16q26 131 153 131
q37 0 111 -31q68 -28 99 -28q28 0 44 13.5t26 49.5z" />
    <glyph glyph-name="notequal" unicode="&#x2260;" horiz-adv-x="533" 
d="M130 79l42 109h-143v84h175l54 141h-229v84h261l41 106h77l-40 -106h136v-84h-169l-53 -141h222v-84h-254l-42 -109h-78z" />
    <glyph glyph-name="lessequal" unicode="&#x2264;" horiz-adv-x="533" 
d="M137 364v-4l146 -57l221 -95v-100l-475 213v84l475 213v-100l-222 -97zM504 15h-475v83h475v-83z" />
    <glyph glyph-name="greaterequal" unicode="&#x2265;" horiz-adv-x="533" 
d="M396 364l-146 57l-221 97v100l475 -213v-84l-475 -213v100l221 95l146 57v4zM29 15v83h475v-83h-475z" />
    <glyph glyph-name="lozenge" unicode="&#x25ca;" horiz-adv-x="560" 
d="M21 350l203 351h104l202 -351l-204 -350h-104zM424 349l-99 174l-49 91h-2l-51 -92l-96 -171l94 -165l53 -100h2l55 101z" />
    <glyph glyph-name="uni25CC" unicode="&#x25cc;" horiz-adv-x="660" 
d="M139 517q0 19 12.5 31.5t31.5 12.5t31.5 -12.5t12.5 -31.5q0 -20 -12.5 -32.5t-31.5 -12.5t-31.5 12.5t-12.5 32.5zM57 407q0 19 13 31.5t33 12.5q18 0 31 -12.5t13 -31.5t-13 -31.5t-31 -12.5q-20 0 -33 12.5t-13 31.5zM44 281q0 19 12.5 32t31.5 13t31.5 -12.5
t12.5 -32.5q0 -19 -12.5 -31t-31.5 -12t-31.5 12t-12.5 31zM96 165q0 19 12.5 31.5t31.5 12.5t31.5 -12.5t12.5 -31.5t-12.5 -31.5t-31.5 -12.5q-20 0 -32 12.5t-12 31.5zM197 90q0 18 13 31t32 13t31.5 -13t12.5 -31q0 -20 -12.5 -33t-31.5 -13t-32 13t-13 33zM324 74
q0 20 12 32t32 12t32.5 -12.5t12.5 -31.5t-12.5 -31.5t-32.5 -12.5t-32 12t-12 32zM445 127q0 19 12.5 31.5t31.5 12.5t32 -12.5t13 -31.5t-13 -31.5t-32 -12.5t-31.5 12.5t-12.5 31.5zM518 225q0 19 13 32t32 13q18 0 30.5 -13t12.5 -32t-12.5 -31.5t-30.5 -12.5
q-19 0 -32 12.5t-13 31.5zM528 359q0 19 12 31.5t32 12.5q19 0 31.5 -12.5t12.5 -31.5t-12.5 -31.5t-31.5 -12.5q-20 0 -32 12.5t-12 31.5zM478 477q0 19 12.5 32t31.5 13t31.5 -12.5t12.5 -32.5q0 -19 -12.5 -31.5t-31.5 -12.5t-31.5 12.5t-12.5 31.5zM383 545
q0 19 12.5 32t32.5 13q19 0 31 -12.5t12 -32.5q0 -18 -12.5 -31t-30.5 -13q-19 0 -32 13t-13 31zM257 560q0 20 12.5 32t31.5 12t31.5 -12t12.5 -32t-12.5 -32t-31.5 -12t-31.5 12t-12.5 32z" />
    <glyph glyph-name="bnK_SSA" horiz-adv-x="899" 
d="M562 135q-9 106 -9 198v9h-59q-77 0 -121 43.5t-44 124.5v63h-182q36 -52 41 -122q68 -14 115.5 -69.5t47.5 -134.5v-2q71 -7 130 -41t81 -69zM645 -7h-85q-16 65 -77 115.5t-142 59.5q-13 -41 -37 -60.5t-51 -19.5q-29 0 -47 17t-18 46t21.5 53.5t58.5 35.5
q0 50 -24.5 84t-64.5 50q-12 -38 -36 -57t-50 -19q-29 0 -47.5 17t-18.5 47t21 53.5t58 33.5q-6 75 -58 124h-68v77h939v-77h-274v-148h32q88 0 137.5 -43.5t49.5 -115.5q0 -114 -105 -162l-52 68q30 11 50 35.5t20 59.5q0 75 -96 75h-36v-349zM490 425h63v148h-136v-65
q0 -83 73 -83z" />
    <glyph glyph-name="bnJ_NYA" horiz-adv-x="851" 
d="M390 573q-32 -35 -58 -86.5t-26 -88.5q0 -39 61 -45l124 -10v1q-90 66 -98 229h-3zM671 61q-87 0 -135 64q-24 -44 -70 -70t-111 -26q-132 0 -221 105.5t-99 256.5l84 26q6 -127 71 -214t163 -87q56 0 87 26.5t31 67.5q0 23 -12 55l-110 8q-132 10 -132 118q0 84 67 182
h-304v77h891v-77h-393q4 -83 42 -139q48 82 143 82q60 0 96 -34.5t36 -87.5q0 -36 -18.5 -62t-48.5 -37v-4q33 -10 55.5 -36.5t22.5 -66.5q0 -53 -36.5 -90t-98.5 -37zM654 441q-41 0 -71 -38t-30 -111q0 -70 29 -112.5t81 -42.5q28 0 44.5 16t16.5 41q0 29 -20 45t-56 16
h-21v70h19q32 0 49.5 17.5t17.5 47.5q0 23 -15.5 37t-43.5 14z" />
    <glyph glyph-name="ITF" horiz-adv-x="1599" 
d="M94 0v650h201v-650h-201zM336 460v190h201v-190h-201zM578 0v650h201v-650h-201zM820 460v190h201v-190h-201zM1062 0v650h201v-650h-201zM1304 460v190h201v-190h-201zM1304 230v190h201v-190h-201z" />
    <glyph glyph-name="bnNull" 
 />
    <glyph glyph-name="bnReph" 
d="M-186 771l292 205l45 -65l-293 -209z" />
    <glyph glyph-name="bnRAc2" 
d="M-183 110h89v-307h-85q-14 100 -101 100q-19 0 -52.5 -2.5t-56.5 -2.5q-94 0 -136 53t-45 137l90 18q-1 -54 22 -90t74 -36q18 0 50.5 2t49.5 2q72 0 109 -51h4q-12 44 -12 115v62z" />
    <glyph glyph-name="bnYAc2" horiz-adv-x="261" 
d="M111 573h-131v77h301v-77h-16q-47 0 -79.5 -32.5t-32.5 -97.5q0 -47 27 -134.5t27 -144.5q0 -61 -27.5 -113t-76.5 -86l-68 55q81 62 81 149q0 49 -28.5 135t-28.5 141q0 79 52 124v4z" />
    <glyph glyph-name="bnBAc2" 
d="M-182 134h88v-341l57 -28l-60 -62l-363 181v88q135 102 278 144v18zM-180 -165h5q-7 90 -7 187v7q-96 -37 -189 -97z" />
    <glyph glyph-name="bnK" horiz-adv-x="679" 
d="M698 573h-291v-35q108 -4 166 -53.5t58 -117.5q0 -113 -107 -160l-50 67q72 25 72 93q0 42 -36 66t-103 27v-285l-63 1l-296 132v85q117 115 271 139v41h-339v77h718v-77zM327 274q-8 98 -8 178q-100 -23 -184 -96l187 -82h5z" />
    <glyph glyph-name="bnKH" horiz-adv-x="609" 
d="M524 145h-77l-422 149v81q266 2 266 128q0 33 -22 53q-42 -98 -141 -98q-59 0 -93.5 34t-34.5 88q0 32 15 70h83q-17 -29 -17 -66q0 -53 55 -53q32 0 56.5 28.5t48.5 90.5h47q37 -26 59.5 -65t22.5 -83q0 -75 -47 -118.5t-145 -58.5v-5l258 -92l4 1q-7 102 -7 214v307h91
v-100h105v-77h-105v-428z" />
    <glyph glyph-name="bnG" horiz-adv-x="609" 
d="M515 750v-100h119v-77h-119v-376h-84v196q0 78 -49 131.5t-128 53.5q-49 0 -86.5 -23.5t-57.5 -55.5q37 15 78 15q56 0 95 -33.5t39 -92.5q0 -104 -138 -183l-59 64q111 57 111 123q0 28 -18.5 43t-51.5 15q-56 0 -101 -24l-58 58q23 70 90 121t152 51q127 0 194 -96h4
q-16 48 -16 146v44h84z" />
    <glyph glyph-name="bnGH" horiz-adv-x="583" 
d="M402 124l-349 114v78l46 28q20 12 38 21t28.5 13.5t11.5 4.5v4q-60 5 -94 36t-34 81q0 40 21 69h-90v77h623v-77h-114v-449h-87zM410 203l3 1q-8 85 -8 175v194h-241q-31 -26 -31 -66q0 -34 23 -52t61 -18q46 0 94 29l34 -69l-192 -113z" />
    <glyph glyph-name="bnNG" horiz-adv-x="670" 
d="M326 525v-37q21 -7 50 -7q35 0 54.5 17t19.5 45q0 24 -17 39t-45 15q-62 0 -62 -72zM-20 573v77h200l2 1q22 -73 69 -119q1 61 36.5 96t96.5 35q62 0 101.5 -33t39.5 -88q0 -60 -41 -92.5t-109 -32.5q-22 0 -49 5v-23q0 -49 47 -49q64 0 173 86q31 -23 52 -62t21 -89
q0 -89 -67 -145.5t-183 -56.5q-144 0 -233 94.5t-95 230.5l80 18q7 -129 77 -197.5t171 -68.5q78 0 122 34.5t44 87.5q0 33 -13 52q-80 -58 -155 -58q-57 0 -88.5 33t-31.5 88v54q-75 42 -116 122h-151z" />
    <glyph glyph-name="bnC" horiz-adv-x="476" 
d="M496 573h-337q15 -32 81 -57l56 -21q67 -24 98.5 -58t31.5 -93q0 -77 -63.5 -137t-155.5 -60q-64 0 -99 33.5t-35 91.5v301h-93v77h516v-77zM151 481q5 -100 5 -139v-66q0 -52 54 -52q49 0 91 34.5t42 85.5q0 29 -15.5 46t-58.5 33l-43 15q-47 16 -71 43h-4z" />
    <glyph glyph-name="bnCH" horiz-adv-x="555" 
d="M139 573q6 -14 26 -23.5t54 -20.5t52 -20q27 7 56 7q75 0 125.5 -47t50.5 -123q0 -86 -60.5 -136t-181.5 -58v-3q42 -12 126 -54l139 -71l-56 -59q-217 116 -279.5 142.5t-124.5 33.5v70h116q120 0 179.5 35.5t59.5 100.5q0 41 -23 65t-62 29q4 -12 4 -29q0 -57 -44 -100
t-110 -43q-55 0 -88 28.5t-33 74.5v201h-85v77h595v-77h-436zM266 413q0 22 -21.5 33.5t-54.5 21t-47 21.5v-111q0 -40 43 -40q35 0 57.5 23t22.5 52z" />
    <glyph glyph-name="bnJ" horiz-adv-x="745" 
d="M93 455q5 -119 66 -200t153 -81q51 0 79 24t28 60q0 28 -14 44l-81 8q-113 11 -113 99q0 82 133 164h-364v77h785v-77h-307q12 -55 59 -96t132 -41h22l34 -60q-46 -81 -46 -200v-97h-79v102q0 111 36 183q-83 4 -144 52t-76 108q-31 -21 -46.5 -32.5t-33.5 -32.5t-18 -39
q0 -35 56 -39l101 -9q48 -45 48 -111q0 -69 -51 -117t-139 -48q-123 0 -206.5 97.5t-91.5 237.5z" />
    <glyph glyph-name="bnJH" horiz-adv-x="665" 
d="M312 268h4q-8 85 -8 169v31q-87 -36 -180 -101zM386 178h-66l-271 147v79q129 99 259 146v23h-328v77h406v-258l125 -69v427h78v-100h96v-77h-96v-328l-62 -17l-141 79v-129z" />
    <glyph glyph-name="bnNY" horiz-adv-x="783" 
d="M405 655q74 0 96 -53q41 54 118 54q56 0 89 -29.5t33 -78.5q0 -64 -59 -87v-3q69 -21 69 -90q0 -49 -33.5 -81.5t-90.5 -32.5q-30 0 -62.5 14t-49.5 33q8 -29 8 -91v-89h-79q0 49 -37 71.5t-128 26.5q-122 4 -181 47t-59 116q0 45 25 90l79 -24q-20 -30 -20 -68
q0 -41 36.5 -62.5t124.5 -24.5q113 -4 165 -43h4q-11 52 -11 148v134q0 47 -44 47q-45 0 -81.5 -35.5t-36.5 -77.5q0 -41 40 -41q31 0 49 20l31 -63q-37 -27 -87 -27q-54 0 -84.5 29.5t-30.5 78.5q0 71 61.5 131.5t145.5 60.5zM611 587q-35 0 -63 -34t-28 -95q0 -59 27 -96
t72 -37q23 0 37 13.5t14 33.5q0 50 -65 50h-22v70h20q27 0 42 14t15 38q0 19 -13 31t-36 12z" />
    <glyph glyph-name="bnTT" horiz-adv-x="506" 
d="M164 573v-272q0 -66 71 -66q58 0 96.5 36t38.5 89q0 71 -60 71q-33 0 -53 -27l-42 71q36 40 97 40q63 0 103 -41.5t40 -112.5q0 -87 -63.5 -148.5t-160.5 -61.5q-68 0 -109 37.5t-41 101.5v283h-101v77h378q4 15 4 31q0 39 -25 56t-79 17h-87q-90 0 -130 38.5t-40 96.5
q0 18 2 26l81 16l-3 -30q0 -73 95 -73h97q76 0 124 -36.5t48 -105.5q0 -16 -3 -36h84v-77h-362z" />
    <glyph glyph-name="bnTTH" horiz-adv-x="554" 
d="M501 274q0 -88 -57.5 -147t-153.5 -59q-99 0 -165.5 68t-68.5 163q88 23 131 69t43 125v72l-9 9h-241v76h191q-54 64 -54 130q0 67 47 108.5t120 37.5l17 -76q-44 4 -70.5 -16.5t-26.5 -58.5q0 -55 59 -125h309v-76h-255q55 -58 81 -86.5t54.5 -68t38.5 -73t10 -72.5z
M153 255q4 -37 41.5 -74t97.5 -37q57 0 91.5 37.5t34.5 91.5q0 39 -19.5 79t-38 62.5t-59.5 66.5q2 -54 -13 -97t-41.5 -68.5t-48 -38.5t-45.5 -22z" />
    <glyph glyph-name="bnDD" horiz-adv-x="625" 
d="M26 474l81 18q4 -133 67 -208t160 -75q73 0 118.5 40.5t45.5 98.5q0 32 -15 56q-74 -57 -142 -57q-53 0 -83 32.5t-30 84.5v110h-248v76h664v-76h-334v-106q0 -46 39 -46q25 0 67.5 21.5t85.5 58.5q30 -19 53.5 -59.5t23.5 -92.5q0 -96 -67.5 -156.5t-178.5 -60.5
q-138 0 -219.5 98.5t-87.5 242.5z" />
    <glyph glyph-name="bnDDH" horiz-adv-x="506" 
d="M164 573v-272q0 -66 71 -66q58 0 96.5 36t38.5 89q0 71 -60 71q-33 0 -53 -27l-42 71q36 40 97 40q63 0 103 -41.5t40 -112.5q0 -87 -63.5 -148.5t-160.5 -61.5q-68 0 -109 37.5t-41 101.5v283h-101v77h546v-77h-362z" />
    <glyph glyph-name="bnNN" horiz-adv-x="570" 
d="M115 462q0 -46 26.5 -72t69.5 -26q46 0 83 39l30 -70q-47 -45 -114 -45q-79 0 -128 49.5t-49 124.5q0 84 52.5 138.5t144.5 54.5q114 0 171 -95l4 1q-11 37 -11 142v47h82v-100h114v-77h-114v-317h-84v91q0 105 -37.5 170t-118.5 65q-58 0 -89.5 -33.5t-31.5 -86.5z" />
    <glyph glyph-name="bnT" horiz-adv-x="692" 
d="M406 -40l225 -159l-49 -68l-225 157zM376 240q-34 17 -54 51t-20 77q0 63 42.5 104t113.5 41q88 0 137 -60t49 -152q0 -111 -69 -181t-178 -70q-74 0 -134.5 31t-103 88t-71.5 128.5t-47 161.5l85 37q14 -77 35.5 -140t54 -114.5t78.5 -80t102 -28.5q72 0 114.5 49
t42.5 121q0 57 -23 91.5t-67 34.5q-31 0 -50 -18t-19 -49q0 -48 42 -68zM712 650v-77h-732v77h732z" />
    <glyph glyph-name="bnTH" horiz-adv-x="606" 
d="M96 412q-46 35 -46 100q0 64 45 104.5t115 40.5q71 0 120.5 -40.5t49.5 -114.5q0 -154 -202 -183v-3l257 -106h4q-6 74 -6 182v358h82v-100h107v-77h-107v-442h-81l-377 155v84q241 4 241 131q0 37 -23 59t-63 22q-35 0 -57 -19.5t-22 -51.5q0 -36 30 -63z" />
    <glyph glyph-name="bnD" horiz-adv-x="506" 
d="M525 574h-364v-200q40 43 101 88t117 68l74 -40q-33 -95 -33 -217v-72h-82v72q0 97 22 166q-114 -77 -200 -186l-84 39v282h-96v76h545v-76z" />
    <glyph glyph-name="bnDH" horiz-adv-x="546" 
d="M266 566q-30 21 -68 21q-29 0 -47 -16t-18 -43q0 -32 27 -47.5t69 -15.5q61 0 150 56v130h185v-77h-107v-433h-80l-320 128v71l51 30q18 11 37 20.5t29 13.5l11 4v4q-59 4 -96 34.5t-37 84.5q0 56 38 91.5t102 35.5q63 0 99 -31zM387 215q-8 96 -8 181v44l-235 -131
l239 -94h4z" />
    <glyph glyph-name="bnN" horiz-adv-x="550" 
d="M464 233l-88 1q-26 90 -71 141t-102 51q-36 0 -55.5 -17t-19.5 -46q0 -42 44 -68l-67 -40q-63 37 -63 111q0 63 41.5 102.5t112.5 39.5q61 0 111 -36.5t74 -92.5l4 1q-11 51 -11 168v25h-394v77h590v-77h-106v-340z" />
    <glyph glyph-name="bnP" horiz-adv-x="667" 
d="M141 513q108 -15 148 -111l146 101q-55 73 -148 73q-91 0 -146 -63zM131 293l89 61q-30 74 -109 87q-18 7 -39 8l-48 68q37 57 103.5 98.5t154.5 41.5q81 0 135.5 -35t82.5 -83h4q-19 57 -19 175v36h93v-100h109v-77h-109v-360h-91v107q0 62 -16 110l-294 -206z" />
    <glyph glyph-name="bnPH" horiz-adv-x="790" 
d="M507 119h-76l-336 130v84l140 96l-132 119v25h-123v77h830v-77h-609v-4l121 -108v-68l-136 -94l235 -90h4q-9 99 -9 197v86q59 28 133 28q89 0 148 -46.5t59 -130.5q0 -120 -121 -171l-52 71q85 30 85 101q0 43 -30.5 67.5t-76.5 24.5q-32 0 -54 -7v-310z" />
    <glyph glyph-name="bnB" horiz-adv-x="516" 
d="M536 573h-108v-405h-81l-284 138v90q135 87 278 149v28h-361v77h556v-77zM345 260h5q-9 96 -9 188v6q-91 -42 -188 -101z" />
    <glyph glyph-name="bnBH" horiz-adv-x="682" 
d="M37 470l74 34q27 -130 101.5 -220t183.5 -90q76 0 118.5 38.5t42.5 96.5q0 43 -27 87h-4q-48 -111 -145 -111q-57 0 -91.5 34t-34.5 84q0 38 19 68l79 -13q-18 -20 -18 -51q0 -51 50 -51q32 0 58 29.5t53 100.5h62q78 -74 78 -179q0 -94 -63 -152t-177 -58q-74 0 -136 30
t-105 81.5t-72 111.5t-46 130zM702 573h-722v77h722v-77z" />
    <glyph glyph-name="bnM" horiz-adv-x="624" 
d="M415 427q68 0 68 74q0 31 -18 51.5t-54 20.5h-198q10 -20 15 -55q35 -10 93 -50.5t94 -40.5zM187 443q-24 0 -39.5 -14t-15.5 -38q0 -29 26 -52l-69 -38q-44 37 -44 94q0 46 23.5 79t66.5 44q-9 33 -26 55h-129v77h665v-77h-100q28 -34 28 -87q0 -59 -35.5 -101.5
t-112.5 -42.5q-41 0 -77 16t-58 34.5t-49.5 34.5t-53.5 16z" />
    <glyph glyph-name="bnY" horiz-adv-x="489" 
d="M337 146l-298 133v75l128 88l-120 109v22h-67v77h527v-77h-95v-427h-75zM134 573v-4l109 -100v-59l-128 -88l220 -96l4 1q-8 98 -8 179v167h-197z" />
    <glyph glyph-name="bnR" horiz-adv-x="516" 
d="M536 573h-108v-405h-81l-284 138v90q135 87 278 149v28h-361v77h556v-77zM345 260h5q-9 96 -9 188v6q-91 -42 -188 -101zM88 128q0 25 16 41.5t40 16.5q25 0 41 -16.5t16 -41.5q0 -24 -16.5 -40t-40.5 -16t-40 16.5t-16 39.5z" />
    <glyph glyph-name="bnL" horiz-adv-x="687" 
d="M707 573h-106v-424l-86 -1v243q-7 20 -27.5 36t-50.5 16q-35 0 -56 -24.5t-21 -66.5v-36h-83v35q0 44 -21.5 66.5t-56.5 22.5t-58.5 -24t-23.5 -70q0 -51 29.5 -77.5t76.5 -26.5q16 0 24 2l7 -79q-24 -4 -38 -4q-78 0 -132 49.5t-54 134.5q0 81 47 128.5t116 47.5
q52 0 83.5 -24.5t41.5 -54.5h4q8 33 35.5 57.5t69.5 24.5q55 0 83 -38h5v87h-535v77h727v-77z" />
    <glyph glyph-name="bnSH" horiz-adv-x="662" 
d="M65 573h-85v77h87q107 0 154 -72q49 72 147 72q85 0 123 -57h4q-12 42 -12 122v35h90v-100h109v-77h-109v-358h-92v220q0 66 -29 99.5t-83 33.5q-45 0 -74 -27t-29 -79q0 -51 29 -78t77 -27q31 0 50 8v-82q-21 -8 -53 -8q-100 0 -150 73q-47 -75 -146 -75q-25 0 -57 8v84
q19 -9 54 -9q52 0 78.5 27.5t26.5 78.5q0 54 -28.5 82.5t-81.5 28.5z" />
    <glyph glyph-name="bnSS" horiz-adv-x="523" 
d="M543 573h-108q38 -47 38 -119q0 -95 -59.5 -148.5t-152.5 -53.5q-92 0 -151 54t-59 148q0 71 37 119h-108v77h563v-77zM261 575q-37 0 -67 -19l177 -158q12 26 12 57q0 51 -34 85.5t-88 34.5zM142 455q0 -54 33 -88.5t86 -34.5q40 0 70 19l-178 157q-11 -25 -11 -53z" />
    <glyph glyph-name="bnS" horiz-adv-x="656" 
d="M70 496q41 -56 84 -56q69 0 85 133h-259v77h696v-77h-75q8 -26 8 -57q0 -67 -40.5 -108.5t-112.5 -41.5q-56 0 -97.5 31t-63.5 85q-35 -116 -141 -116q-80 0 -137 71zM509 573h-161q10 -57 35.5 -94.5t67.5 -37.5q37 0 52 24.5t15 54.5q0 35 -9 53z" />
    <glyph glyph-name="bnH" horiz-adv-x="472" 
d="M220 187v-4q34 -7 134 -59l120 -63l-53 -62q-194 106 -251.5 133.5t-111.5 33.5v77h62q104 0 150 29.5t46 88.5q0 42 -25 68t-67 26q-35 0 -57.5 -20t-22.5 -52q0 -41 38 -61l-59 -43q-66 33 -66 110q0 61 46 101.5t120 40.5q81 0 131 -48t50 -124q0 -149 -184 -172z
M492 573h-512v77h512v-77z" />
    <glyph glyph-name="bnK_SS" horiz-adv-x="904" 
d="M562 135q-9 106 -9 198v9h-59q-77 0 -121 43.5t-44 124.5v63h-182q36 -52 41 -122q68 -14 115.5 -69.5t47.5 -134.5v-2q71 -7 130 -41t81 -69zM645 -7h-85q-16 65 -77 115.5t-142 59.5q-13 -41 -37 -60.5t-51 -19.5q-29 0 -47 17t-18 46t21.5 53.5t58.5 35.5
q0 50 -24.5 84t-64.5 50q-12 -38 -36 -57t-50 -19q-29 0 -47.5 17t-18.5 47t21 53.5t58 33.5q-6 75 -58 124h-68v77h939v-77h-274v-148h32q88 0 137.5 -43.5t49.5 -115.5q0 -114 -105 -162l-52 68q30 11 50 35.5t20 59.5q0 75 -96 75h-36v-349zM490 425h63v148h-136v-65
q0 -83 73 -83zM573 -70l225 -159l-49 -68l-225 157z" />
    <glyph glyph-name="bnJ_NY" horiz-adv-x="851" 
d="M390 573q-32 -35 -58 -86.5t-26 -88.5q0 -39 61 -45l124 -10v1q-90 66 -98 229h-3zM671 61q-87 0 -135 64q-24 -44 -70 -70t-111 -26q-132 0 -221 105.5t-99 256.5l84 26q6 -127 71 -214t163 -87q56 0 87 26.5t31 67.5q0 23 -12 55l-110 8q-132 10 -132 118q0 84 67 182
h-304v77h891v-77h-393q4 -83 42 -139q48 82 143 82q60 0 96 -34.5t36 -87.5q0 -36 -18.5 -62t-48.5 -37v-4q33 -10 55.5 -36.5t22.5 -66.5q0 -53 -36.5 -90t-98.5 -37zM654 441q-41 0 -71 -38t-30 -111q0 -70 29 -112.5t81 -42.5q28 0 44.5 16t16.5 41q0 29 -20 45t-56 16
h-21v70h19q32 0 49.5 17.5t17.5 47.5q0 23 -15.5 37t-43.5 14zM434 -63l225 -159l-49 -68l-225 157z" />
    <glyph glyph-name="asR" horiz-adv-x="491" 
d="M322 573h-342v77h528v-77h-108v-456h-78l-282 181v72q39 41 120.5 92.5t161.5 74.5v36zM118 337l209 -131h3q-1 7 -6 81l-148 96q-35 -25 -58 -46zM324 462q-52 -20 -99 -49l97 -62q0 74 2 111z" />
    <glyph glyph-name="asW" horiz-adv-x="522" 
d="M542 573h-114v-405h-81l-284 138v90q135 87 278 149v28h-361v77h562v-77zM56 150l49 67l148 -75l-49 -67zM345 260h5q-9 96 -9 188v6q-91 -42 -188 -101z" />
    <glyph glyph-name="bnDDx" horiz-adv-x="624" 
d="M26 485l81 18q4 -133 67 -208t160 -75q73 0 118.5 40.5t45.5 98.5q0 32 -15 56q-74 -57 -142 -57q-53 0 -83 32.5t-30 84.5v99h-248v76h664v-76h-334v-95q0 -46 39 -46q25 0 67 21.5t86 58.5q30 -19 53.5 -59t23.5 -92q0 -96 -67.5 -157t-178.5 -61q-138 0 -219.5 98.5
t-87.5 242.5zM264 17q0 25 16 41t40 16q25 0 41 -16t16 -41q0 -24 -16 -40t-41 -16q-24 0 -40 16t-16 40z" />
    <glyph glyph-name="bnDDHx" horiz-adv-x="506" 
d="M164 573v-272q0 -66 71 -66q58 0 96.5 36t38.5 89q0 71 -60 71q-33 0 -53 -27l-42 71q36 40 97 40q63 0 103 -41.5t40 -112.5q0 -87 -63.5 -148.5t-160.5 -61.5q-68 0 -109 37.5t-41 101.5v283h-101v77h546v-77h-362zM175 27q0 25 16 41.5t39 16.5q26 0 42 -16.5
t16 -41.5q0 -24 -16.5 -40t-41.5 -16q-23 0 -39 16t-16 40z" />
    <glyph glyph-name="bnYx" horiz-adv-x="490" 
d="M337 146l-298 133v75l128 88l-120 109v22h-67v77h527v-77h-95v-427h-75zM132 573v-3l111 -101v-59l-128 -88l220 -96h3q-7 87 -7 180v167h-199zM84 94q0 25 16 41.5t40 16.5q25 0 41 -16.5t16 -41.5q0 -23 -16 -39t-41 -16q-24 0 -40 16t-16 39z" />
    <glyph glyph-name="bnK_KA" horiz-adv-x="690" 
d="M710 573h-296v-29q108 -3 164 -55t56 -121q0 -75 -45 -118l-73 45q33 30 33 73t-35 68t-100 27v-197q108 -3 164 -55t56 -121q0 -54 -28 -94t-74 -62l-50 67q67 33 67 89q0 43 -35 68t-100 27v-244l47 -22l-62 -64l-343 170v90q68 68 163 110l-163 77v90q49 49 120 89.5
t151 55.5v36h-347v77h730v-77zM334 265q-7 88 -7 183v5q-93 -23 -186 -98l189 -90h4zM334 -18q-7 87 -7 183v10h-1q-94 -24 -185 -97l189 -96h4z" />
    <glyph glyph-name="bnNG_KA" horiz-adv-x="709" 
d="M465 573q0 -54 19 -84t55 -30q56 0 56 70q0 26 -6 44h-124zM-20 573v77h749v-77h-62q8 -23 8 -54q0 -59 -35 -96.5t-100 -37.5q-69 0 -114.5 48.5t-45.5 139.5h-400zM398 -4l46 -23l-60 -63l-342 169v89q49 49 120.5 89t150.5 55v30q0 58 -25.5 90.5t-70.5 32.5
q-33 0 -52.5 -19.5t-19.5 -52.5q0 -42 38 -65l-63 -46q-63 42 -63 116q0 63 42 104t115 41q84 0 134 -57t50 -145v-22q110 -3 166.5 -55.5t56.5 -123.5q0 -52 -28 -91.5t-75 -61.5l-50 67q67 33 67 89q0 43 -35.5 68.5t-101.5 26.5v-242zM320 35q-7 87 -7 183v10
q-95 -23 -186 -97l189 -96h4z" />
    <glyph glyph-name="bnL_KA" horiz-adv-x="881" 
d="M-20 573v77h921v-77h-270v-254q108 -3 164 -55t56 -121q0 -108 -103 -157l-50 67q67 33 67 90q0 43 -34.5 68t-99.5 27v-244l46 -23l-61 -64l-344 171v89q50 49 121 89.5t150 55.5v60q-7 21 -28 37t-51 16q-36 0 -57.5 -25t-21.5 -68v-36h-86v36q0 43 -22.5 66t-58.5 23
q-35 0 -58.5 -27.5t-23.5 -74.5q0 -96 91 -116l-31 -78q-70 15 -111 67t-41 127q0 83 49.5 134t119.5 51q53 0 84.5 -22t43.5 -53h4q9 33 37 55.5t71 22.5q54 0 86 -32h4v98h-563zM550 34q-7 88 -7 183v11q-96 -25 -186 -98l189 -96h4z" />
    <glyph glyph-name="bnSS_KA" horiz-adv-x="651" 
d="M671 573h-211q37 -48 37 -118q0 -72 -38 -124q80 -16 120.5 -64t40.5 -105q0 -54 -28 -94t-75 -62l-49 67q66 33 66 89q0 43 -34.5 68t-99.5 27v-244l46 -22l-61 -64l-344 170v90q54 54 130 94q-92 54 -92 174q0 71 36 118h-135v77h691v-77zM287 575q-38 0 -68 -19
l178 -159q13 28 13 58q0 51 -34.5 85.5t-88.5 34.5zM167 455q0 -54 33.5 -89t86.5 -35q41 0 70 20l-179 157q-11 -25 -11 -53zM315 54h5q-8 99 -8 183v10q-92 -23 -186 -97z" />
    <glyph glyph-name="bnS_KA" horiz-adv-x="692" 
d="M75 489q45 -54 86 -54q72 0 87 138h-268v77h732v-77h-110q6 -29 6 -57q0 -59 -28 -101t-80 -54q78 -17 118 -64.5t40 -104.5q0 -108 -103 -157l-50 67q67 33 67 90q0 43 -34.5 68t-99.5 27v-244l46 -23l-61 -63l-344 170v90q56 54 137 97.5t170 51.5q-63 23 -91 92
q-37 -102 -134 -102q-40 0 -76.5 20.5t-61.5 55.5zM514 573h-171q2 -60 29.5 -99.5t75.5 -39.5q37 0 54.5 24t17.5 63q0 31 -6 52zM357 83q-7 88 -7 183v11q-96 -25 -186 -98l189 -96h4z" />
    <glyph glyph-name="bnNG_KHA" horiz-adv-x="757" 
d="M256 549v-32q22 -5 42 -5q57 0 57 48q0 18 -13 32t-37 14q-49 0 -49 -57zM-20 573v77h134q21 -55 64 -93q3 48 32.5 80.5t90.5 32.5q58 0 93 -33t35 -81q0 -47 -36 -78t-96 -31q-21 0 -41 3v-13q0 -37 43 -37q57 0 151 63q26 -18 43 -51.5t17 -73.5q0 -85 -72 -134
q35 -28 56.5 -70t21.5 -88q0 -68 -42 -111t-121 -59v-4l225 -69l3 1q-6 100 -6 202v744h88v-100h115v-77h-115v-795l46 -15l-55 -65l-468 140v80q249 8 249 129q0 36 -19 57q-37 -122 -147 -122q-63 0 -97 34.5t-34 89.5q0 12 4 38h85q-6 -22 -6 -35q0 -22 13 -36.5
t38 -14.5q35 0 56 29t37 85q-37 -7 -68 -7q-117 0 -190.5 73.5t-85.5 187.5l74 24q10 -101 64 -155t139 -54q63 0 98.5 28.5t35.5 69.5q0 16 -7 32q-60 -44 -130 -44q-56 0 -88.5 30t-32.5 81v38q-69 34 -108 97h-86z" />
    <glyph glyph-name="bnS_KHA" horiz-adv-x="843" 
d="M247 86q263 5 263 135q0 32 -20 54q-19 -51 -59 -80t-91 -29q-63 0 -99.5 34.5t-36.5 94.5q0 23 5 48h90q-6 -18 -6 -44q0 -51 51 -51q62 0 96 112h-2q-113 0 -158 110q-39 -109 -138 -109q-78 0 -137 71l54 58q40 -55 83 -55q67 0 85 138h-247v77h587q31 -67 31 -129
q0 -108 -81 -145q80 -68 80 -156q0 -143 -169 -176v-4l232 -79l5 1q-8 93 -8 213v575h92v-100h114v-77h-114v-639l45 -14l-58 -71l-489 158v79zM499 573h-169q3 -61 30 -99.5t74 -38.5q35 0 53.5 24t18.5 61q0 28 -7 53z" />
    <glyph glyph-name="bnG_GA" horiz-adv-x="671" 
d="M373 360q0 -14 -3 -28q72 -18 115 -71v110q0 86 -50.5 141t-135.5 55q-50 0 -90 -24t-61 -58q33 15 77 15q62 0 105 -37t43 -103zM241 -153l-70 63q107 69 107 142q0 33 -21 49.5t-57 16.5q-58 0 -105 -25l-64 64q23 72 90 124t153 59q4 9 4 22q0 33 -21 50t-57 17
q-58 0 -105 -25l-64 66q28 77 100 130t163 53q135 0 205 -98h4q-19 50 -19 156v39h93v-100h115v-77h-115v-731h-92v217q0 86 -49.5 141t-134.5 55q-52 0 -91.5 -23t-61.5 -59q31 14 79 14q61 0 102.5 -36t41.5 -102q0 -57 -35 -109.5t-95 -92.5z" />
    <glyph glyph-name="bnNG_GA" horiz-adv-x="713" 
d="M391 287v-15q33 14 79.5 32.5t78 31.5t47.5 21l61 -57q-45 -95 -45 -204v-149h-87v143q0 90 30 161l-181 -79q-22 -63 -65 -98.5t-101 -35.5q-62 0 -105 32.5t-60 75.5l70 47q31 -73 96 -73q48 0 73.5 46t25.5 120q0 66 -22 109t-70 43q-31 0 -49.5 -18t-18.5 -50
q0 -37 33 -59l-63 -46q-59 37 -59 108q0 63 41 103t112 40q86 0 132.5 -64.5t46.5 -164.5zM363 573h-383v77h753v-77h-83q7 -21 7 -54q0 -61 -35.5 -96.5t-98.5 -35.5q-69 0 -114.5 48t-45.5 138zM448 573q0 -53 19.5 -83.5t55.5 -30.5q56 0 56 70q0 27 -7 44h-124z" />
    <glyph glyph-name="bnDD_GA" horiz-adv-x="1170" 
d="M29 442l88 20q4 -144 72 -223.5t172 -79.5q79 0 127 43t48 111q0 37 -14 59q-73 -61 -154 -61q-58 0 -90.5 36t-32.5 94v132h-265v77h810q78 0 129 -31.5t78 -69.5h4q-18 51 -18 156v45h93v-100h113v-77h-113v-573h-93v368q0 84 -51.5 140t-135.5 56q-52 0 -91 -24.5
t-60 -57.5q33 15 81 15q60 0 102.5 -37.5t42.5 -103.5q0 -60 -39 -115.5t-104 -97.5l-70 67q119 71 119 149q0 33 -21.5 51t-57.5 18q-45 0 -93 -20q21 -42 21 -91q0 -108 -72 -175.5t-194 -67.5q-149 0 -237 106t-94 262zM457 573h-119v-128q0 -48 40 -48q26 0 71.5 21.5
t89.5 59.5q25 59 71 101l-1 2q-64 -8 -152 -8z" />
    <glyph glyph-name="bnD_GA" horiz-adv-x="1046" 
d="M177 573v-272q40 50 108 105.5t128 79.5q23 51 69 92l-2 3q-64 -8 -146 -8h-157zM672 564q-51 0 -90 -24t-61 -58q33 15 81 15q60 0 102.5 -37.5t42.5 -103.5q0 -63 -43.5 -122t-116.5 -101l-70 68q136 74 136 158q0 33 -21.5 51t-57.5 18q-48 0 -91 -20
q-27 -95 -27 -219v-189h-94v190q0 104 30 192q-118 -77 -217 -220l-91 37v374h-104v77h686q79 0 130.5 -31.5t76.5 -69.5h4q-18 51 -18 156v45h93v-100h114v-77h-114v-573h-92v368q0 84 -52 140t-136 56z" />
    <glyph glyph-name="bnDDx_GA" horiz-adv-x="1174" 
d="M298 -79q0 27 16.5 44t42.5 17t43 -17t17 -44q0 -25 -17 -41.5t-43 -16.5q-25 0 -42 16.5t-17 41.5zM34 442l88 20q4 -144 71.5 -223.5t171.5 -79.5q80 0 128 43t48 111q0 35 -14 59q-75 -61 -154 -61q-58 0 -91 36t-33 94v132h-269v77h815q78 0 129 -31.5t78 -69.5h4
q-19 47 -19 156v45h93v-100h114v-77h-114v-573h-92v368q0 84 -51.5 140t-135.5 56q-52 0 -91 -24t-61 -58q35 15 81 15q60 0 102.5 -37.5t42.5 -103.5q0 -60 -38.5 -115.5t-104.5 -97.5l-70 67q119 70 119 149q0 33 -21.5 51t-56.5 18q-46 0 -93 -20q21 -42 21 -91
q0 -108 -72 -175.5t-194 -67.5q-149 0 -237 106t-94 262zM461 573h-119v-128q0 -48 41 -48q25 0 71 21.5t90 59.5q25 59 71 101l-2 2q-64 -8 -152 -8z" />
    <glyph glyph-name="bnL_GA" horiz-adv-x="741" 
d="M-20 573v77h781v-77h-114v-778h-93v168q0 85 -43 137t-124 52q-47 0 -83.5 -24t-54.5 -56q38 20 90 18q54 -3 88.5 -36t34.5 -89q1 -54 -37 -103t-95 -82l-63 67q102 55 102 117q-1 61 -75 63q-48 0 -99 -30l-59 61q25 72 91.5 123.5t152.5 52.5q117 0 174 -76v218
q-8 21 -29 37t-52 16q-35 0 -57 -25.5t-22 -67.5v-22h-87v20q0 42 -22.5 66.5t-59.5 24.5t-60.5 -21.5t-23.5 -60.5q0 -67 70 -95l-48 -69q-49 15 -82.5 60.5t-33.5 105.5q0 72 49.5 119t122.5 47q54 0 86 -23t45 -55h4q8 33 36 56.5t73 23.5q59 0 86 -33h5v93h-574z" />
    <glyph glyph-name="bnNG_GHA" horiz-adv-x="1182" 
d="M320 516v-40q26 -8 52 -8q36 0 55 17t19 47q0 25 -16.5 42.5t-48.5 17.5q-61 0 -61 -76zM-20 573v77h188q22 -74 72 -124q2 61 39.5 97t100.5 36q30 0 54 -9h768v-77h-114v-498l47 -22l-56 -67l-465 221q-17 -75 -83 -118.5t-167 -43.5q-148 0 -238.5 100t-96.5 241
l81 17q7 -131 79.5 -203t174.5 -72q80 0 124.5 35t44.5 88q0 34 -13 53q-83 -56 -155 -56q-62 0 -96 33.5t-34 89.5v71q-75 46 -122 131h-133zM995 298v275h-255q-41 -32 -41 -80q0 -36 26 -57.5t72 -21.5q44 0 94 30l37 -73l-208 -123l281 -133l4 1q-10 90 -10 182z
M544 411q62 -44 73 -125l49 30q21 13 40.5 22.5t30.5 13.5t12 5v4q-66 7 -104 40.5t-38 87.5q0 49 30 84h-120q8 -22 8 -45q0 -59 -42.5 -92.5t-110.5 -33.5q-24 0 -52 5v-30q0 -49 47 -49q65 0 177 83z" />
    <glyph glyph-name="bnD_GHA" horiz-adv-x="1046" 
d="M484 201v86l45 28q17 10 32.5 18t25 12t17.5 7t9 4v5q-101 11 -130 77q-34 -106 -34 -227v-130h-91v129q0 118 32 192q-99 -69 -212 -207l-91 51v327h-107v77h1086v-77h-114v-498l47 -22l-56 -67zM866 115l3 1q-9 81 -9 182v275h-255q-40 -32 -40 -80q0 -36 26 -57.5
t70 -21.5t94 30l38 -73l-209 -123zM180 327q46 51 111 103t121 76l61 -34q-1 5 -1 17q0 48 29 84h-321v-246z" />
    <glyph glyph-name="bnL_GHA" horiz-adv-x="1055" 
d="M320 106q-33 -12 -74 -12q-94 0 -150 56.5t-56 146.5q0 85 48.5 137t121.5 52q54 0 86 -25t43 -57h4q8 34 35 59.5t71 25.5q13 0 33 -4q4 49 38 88h-540v77h1095v-77h-114v-514l47 -22l-56 -67l-466 218v78l53 33q17 10 32.5 18.5t25 12.5t17.5 7.5t9 3.5v4
q-63 6 -100 37h-1q-23 23 -60 23q-36 0 -56.5 -25t-20.5 -69v-36h-88v36q0 43 -21.5 66.5t-59.5 23.5q-36 0 -59.5 -29t-23.5 -76q0 -58 31 -88t83 -30q36 0 61 11zM869 573h-244q-51 -40 -51 -97q0 -36 25.5 -57t70.5 -21q44 0 94 30l38 -74l-209 -122l282 -134l3 1
q-9 82 -9 183v291z" />
    <glyph glyph-name="bnC_CA" horiz-adv-x="877" 
d="M689 420q71 -26 106 -65.5t35 -104.5q0 -94 -74 -173.5t-173 -79.5q-69 0 -106.5 36.5t-37.5 98.5v134q-20 -70 -79 -116t-133 -46q-70 0 -109 36.5t-39 98.5v334h-99v77h917v-77h-372v-20q0 -39 23 -64.5t72 -43.5zM524 408q5 -35 5 -150v-125q0 -53 57 -53q51 0 102 53
t51 118q0 31 -18 52t-63 37l-53 19q-52 19 -77 49h-4zM310 487q105 -37 129 -110v196h-274q14 -40 95 -68zM162 468q7 -25 7 -150v-76q0 -55 58 -55q49 0 90 40.5t41 96.5q0 29 -18 49t-61 35l-36 13q-49 17 -77 47h-4z" />
    <glyph glyph-name="bnNY_CA" horiz-adv-x="789" 
d="M161 189l215 -101h5q-8 102 -8 188v39q-111 -61 -212 -126zM509 26l-60 -62l-370 171v100q138 94 262 156q-54 129 -143 129q-36 0 -55 -18t-19 -47q0 -30 23 -57l-74 -30q-35 39 -35 92q0 62 41 101.5t112 39.5q61 0 108.5 -32.5t74.5 -86.5l4 1q-8 56 -8 150v17h90v-9
q0 -53 -7 -95l3 -1q45 58 130 58q68 0 108 -39t40 -100q0 -41 -20.5 -71t-54.5 -43v-4q38 -12 62.5 -42.5t24.5 -76.5q0 -61 -40 -104t-108 -43q-89 0 -138 60v-91zM575 523q-48 0 -81.5 -46t-33.5 -130q0 -82 33.5 -133.5t92.5 -51.5q34 0 53 20t19 50q0 34 -23 53.5
t-65 19.5h-24v79h22q37 0 57 20.5t20 55.5q0 28 -18.5 45.5t-51.5 17.5z" />
    <glyph glyph-name="bnSH_CA" horiz-adv-x="952" 
d="M-20 573v77h98q108 0 163 -76q58 76 154 76h577v-77h-373v-20q0 -39 23.5 -64.5t72.5 -43.5l68 -25q71 -26 106.5 -65.5t35.5 -104.5q0 -94 -74 -173.5t-173 -79.5q-69 0 -106.5 36.5t-37.5 98.5v441h-116q-48 0 -80 -33.5t-32 -89.5q0 -50 33 -79.5t82 -29.5q27 0 50 10
v-85q-28 -7 -53 -7q-102 0 -159 78q-53 -79 -155 -79q-36 0 -57 9v83q19 -9 54 -9q51 0 82.5 31t31.5 79q0 59 -32.5 90.5t-86.5 31.5h-96zM599 408q5 -35 5 -150v-125q0 -53 57 -53q51 0 102 53t51 118q0 31 -18 52t-63 37l-53 19q-52 19 -77 49h-4z" />
    <glyph glyph-name="bnC_CHA" horiz-adv-x="962" 
d="M518 573q6 -15 27 -25.5t56.5 -22.5t54.5 -21q28 8 62 8q80 0 134 -50t54 -131q0 -91 -65 -145t-190 -63v-4q46 -12 133 -56l144 -72l-59 -67q-226 119 -290.5 147.5t-125.5 36.5v80h110q126 0 189 38t63 106q0 43 -25 69t-66 30q4 -12 4 -30q0 -61 -46.5 -107
t-116.5 -46q-95 0 -121 70q-5 -83 -67.5 -143t-149.5 -60q-70 0 -109 36.5t-39 98.5v323h-99v77h1002v-77h-464zM645 403q0 23 -21.5 35t-54 22t-46.5 22v-117q0 -41 42 -41q34 0 57 24t23 55zM260 509l47 -17q105 -37 129 -108v189h-268q16 -37 92 -64zM167 473h-4
q6 -42 6 -150v-71q0 -55 59 -55q48 0 86.5 39.5t38.5 93.5q0 29 -16.5 48.5t-59.5 34.5l-32 11q-55 19 -78 49z" />
    <glyph glyph-name="bnNY_CHA" horiz-adv-x="714" 
d="M242 118q52 0 92 29q-78 62 -113 151q-39 -21 -59.5 -44t-20.5 -57q0 -37 27 -58t74 -21zM511 576q-43 0 -72.5 -39.5t-29.5 -109.5q0 -71 30.5 -111.5t80.5 -40.5q28 0 44.5 15t16.5 41q0 58 -79 58h-20v74h20q69 0 69 60q0 25 -16 39t-44 14zM108 -46h129q187 0 187 85
q0 31 -23 56q-62 -60 -157 -60q-83 0 -137.5 42.5t-54.5 119.5q0 55 29 95t70 63t82 42t70 44t29 56q0 35 -26.5 57t-69.5 22q-41 0 -65 -20.5t-24 -55.5q0 -38 30 -60l-65 -46q-52 39 -52 107q0 69 49 112t126 43q99 0 149 -68q48 66 132 66q62 0 101 -34.5t39 -92.5
q0 -32 -16 -58t-45 -38v-4q33 -11 52 -38t19 -63q0 -56 -36.5 -92.5t-102.5 -36.5q-75 0 -121.5 46t-60.5 123q-15 -11 -56 -34q17 -44 46.5 -79t59 -57.5t56.5 -44.5t44 -50.5t17 -65.5q0 -59 -44.5 -94.5t-122.5 -44.5v-4q56 -3 163 -44l127 -50l-47 -70q-216 82 -313 113
t-167 32v81z" />
    <glyph glyph-name="bnSH_CHA" horiz-adv-x="1019" 
d="M68 573h-87v77h89q108 0 163 -76q58 76 154 76h652v-77h-464q6 -15 27 -25.5t56.5 -22.5t54.5 -21q28 8 62 8q80 0 134 -50t54 -131q0 -91 -64.5 -144.5t-190.5 -62.5v-4q42 -11 133 -57l147 -74l-62 -66q-232 123 -297.5 151t-133.5 36v78h125q126 0 189 38t63 106
q0 44 -24.5 69t-66.5 30q4 -12 4 -30q0 -61 -46.5 -107t-116.5 -46q-61 0 -95 31t-34 83v211h-103q-48 0 -80 -33.5t-32 -89.5q0 -50 33 -79.5t82 -29.5q27 0 50 10v-85q-28 -7 -53 -7q-102 0 -159 78q-53 -79 -155 -79q-33 0 -57 9v83q20 -9 54 -9q51 0 82.5 31t31.5 79
q0 59 -32.5 90.5t-86.5 31.5zM702 403q0 23 -21.5 35t-54 22t-46.5 22v-117q0 -41 43 -41q34 0 56.5 24t22.5 55z" />
    <glyph glyph-name="bnNY_JA" horiz-adv-x="788" 
d="M606 -125v167q0 85 25 156q-26 -8 -53 -8q-77 0 -123 44.5t-61 120.5q-6 -7 -21.5 -23.5t-22 -25t-16 -21.5t-13.5 -24.5t-4 -22.5q0 -43 66 -52l98 -13q49 -44 49 -116q0 -74 -47 -120t-140 -46q-132 0 -218.5 104t-96.5 255l86 28q6 -129 68.5 -215.5t159.5 -86.5
q49 0 74.5 22.5t25.5 59.5q0 25 -11 42l-77 11q-60 8 -94 40.5t-34 82.5q0 41 24 80t52 64t52 57t24 61q0 37 -26 59t-70 22q-39 0 -63 -21.5t-24 -57.5q0 -40 31 -65l-66 -47q-53 42 -53 111q0 75 49.5 117t125.5 42q101 0 148 -69q49 68 139 68q63 0 100 -35.5t37 -88.5
q0 -37 -18 -63.5t-49 -37.5v-4q34 -12 56 -38.5t22 -66.5q0 -33 -14 -61l33 -27q-43 -84 -43 -196v-162h-87zM559 577q-44 0 -73.5 -38t-29.5 -112q0 -73 29.5 -115.5t82.5 -42.5q31 0 47.5 15.5t16.5 43.5q0 60 -78 60h-22v72h20q69 0 69 62q0 25 -16.5 40t-45.5 15z" />
    <glyph glyph-name="bnJ_JA" horiz-adv-x="1197" 
d="M859 475q15 -32 28.5 -52t38 -41t62.5 -31.5t90 -10.5h43l37 -67q-54 -98 -54 -216v-152h-87v158q0 109 44 197q-93 6 -155.5 35.5t-101.5 97.5q-84 -64 -84 -107q0 -34 51 -39l116 -10q51 -46 51 -124q0 -75 -54.5 -127t-149.5 -52q-78 0 -143 38t-109 105
q-54 -36 -128 -36q-132 0 -222 105t-100 255l87 28q5 -128 70.5 -215t163.5 -87q55 0 84 26.5t29 64.5q0 30 -14 47l-87 7q-57 5 -88.5 34t-31.5 78q0 52 42 102t105 87h-412v77h1237v-77h-698q20 -54 73.5 -76t148.5 -22h118zM732 19q55 0 84.5 27t29.5 65q0 30 -15 49
l-88 8q-58 5 -89.5 33t-31.5 76q0 62 62 124q-84 2 -145.5 32t-86.5 83q-45 -27 -78 -61.5t-33 -62.5q0 -35 50 -40l117 -11q51 -48 51 -121q0 -38 -15 -71q31 -60 79.5 -95t108.5 -35z" />
    <glyph glyph-name="bnN_JA" horiz-adv-x="899" 
d="M922 573h-484v-67q55 -47 150 -76t197 -29h42l38 -67q-52 -96 -52 -234v-190h-88v195q0 131 42 218q-88 0 -176.5 22t-152.5 64v-117q0 -45 53 -50l102 -10q52 -52 52 -122q0 -81 -55 -132.5t-159 -51.5q-113 0 -199 72.5t-123 181.5l75 48q30 -97 94.5 -156.5
t151.5 -59.5q61 0 91.5 26.5t30.5 69.5q0 30 -14 47l-72 7q-94 9 -115 77q-35 83 -71.5 129.5t-88.5 46.5q-34 0 -52.5 -18t-18.5 -47q0 -30 25 -63l-70 -34q-41 41 -41 102q0 62 41.5 101.5t111.5 39.5q106 0 166 -105l4 1q-10 47 -10 155v26h-367v77h942v-77z" />
    <glyph glyph-name="bnB_JA" horiz-adv-x="859" 
d="M879 573h-481v-66q55 -48 149.5 -77t197.5 -29h42l38 -67q-52 -99 -52 -234v-190h-87v195q0 133 41 218q-88 0 -176.5 22t-152.5 64v-117q0 -45 53 -50l103 -10q51 -51 51 -122q0 -81 -55 -132.5t-159 -51.5q-110 0 -194.5 68.5t-122.5 173.5l74 48q30 -92 93.5 -148
t148.5 -56q61 0 92 27t31 69q0 28 -15 47l-70 7q-32 3 -55 13l-325 139v81q40 37 111 81t150 71v26h-329v77h899v-77zM309 289v172q-94 -39 -169 -97z" />
    <glyph glyph-name="bnNY_JHA" horiz-adv-x="860" 
d="M662 -7h4q-6 68 -6 183v2q-40 0 -78.5 20t-53.5 42q6 -29 6 -109v-72zM396 655q91 0 117 -76q16 28 52 52t87 24q61 0 99.5 -35.5t38.5 -90.5q0 -77 -68 -106v-4q34 -10 56.5 -37.5t22.5 -70.5q0 -75 -59 -111v-265l-77 -32l-131 65v-117l48 -23l-59 -62l-347 170v93
q84 68 222 124q-39 15 -128 25q-123 14 -181 58.5t-58 122.5q0 59 34 109l79 -30q-25 -33 -25 -77q0 -43 37.5 -66.5t117.5 -31.5q82 -9 119 -23t62 -39h5q-15 77 -15 187v126q0 61 -55 61q-54 0 -89.5 -38t-35.5 -88q0 -54 53 -54q31 0 57 20l29 -64q-36 -30 -92 -30
q-60 0 -96 35t-36 92q0 83 61 145t155 62zM641 575q-43 0 -76.5 -39.5t-33.5 -115.5q0 -74 31.5 -117.5t87.5 -43.5q32 0 49.5 17.5t17.5 43.5q0 29 -20.5 46t-57.5 17h-25v71h20q34 0 53 18t19 48q0 25 -17 40t-48 15zM451 -109h4q-7 88 -7 172v22q-91 -38 -185 -99z" />
    <glyph glyph-name="bnJ_JHA" horiz-adv-x="1034" 
d="M862 -57q-7 80 -7 188v442h-352q12 -59 62 -101.5t141 -42.5h24l37 -67q-49 -89 -49 -216v-131l140 -72h4zM637 -158q-7 88 -7 172v21q-99 -41 -183 -99l186 -94h4zM718 -199l48 -23l-60 -62l-346 171v93q46 37 124 78t146 62v32q0 117 39 198q-90 5 -154 55t-81 114
q-33 -21 -50 -33t-35.5 -34t-18.5 -41q0 -35 59 -39l107 -10q53 -48 53 -120q0 -74 -53 -123.5t-149 -49.5q-132 0 -221.5 104t-100.5 253l87 28q5 -127 70 -213.5t164 -86.5q55 0 82.5 23t27.5 61q0 30 -14 47l-87 9q-121 11 -121 105q0 91 140 174h-394v77h1074v-77h-114
v-690l-80 -32l-142 72v-122z" />
    <glyph glyph-name="bnC_NYA" horiz-adv-x="1030" 
d="M-20 573v77h1070v-77h-888q18 -35 84 -59l55 -20q81 -29 111 -76q65 63 160 63q90 0 115 -72q15 27 51 50t86 23q61 0 99.5 -35.5t38.5 -90.5q0 -37 -19 -65t-51 -41v-4q34 -10 57.5 -38t23.5 -70q0 -57 -38.5 -95t-102.5 -38q-40 0 -77.5 20t-54.5 43q6 -26 6 -103v-59
h-82q0 54 -40.5 74.5t-141.5 30.5q-170 17 -217 103h-12q-63 0 -98.5 36t-35.5 94v329h-99zM156 481q6 -36 6 -141v-92q0 -51 54 -51q49 0 91.5 41.5t42.5 99.5q0 29 -16.5 48.5t-59.5 34.5l-42 14q-48 18 -72 46h-4zM635 34q-14 70 -14 184v126q0 60 -55 60t-95.5 -37.5
t-40.5 -86.5q0 -53 54 -53q34 0 56 20l30 -64q-32 -28 -94 -28q-64 0 -99 38q-27 -32 -61 -51q28 -44 137 -55q83 -8 120 -20t58 -33h4zM813 403q-43 0 -76.5 -40t-33.5 -116q0 -74 31.5 -118t87.5 -44q32 0 49.5 18t17.5 44q0 30 -20.5 46.5t-57.5 16.5h-25v71h20
q34 0 53 18t19 48q0 25 -17 40.5t-48 15.5z" />
    <glyph glyph-name="bnK_TTA" horiz-adv-x="675" 
d="M64 930l88 16l-3 -30q0 -77 101 -77h156q79 0 130.5 -39.5t51.5 -112.5q0 -17 -3 -37h110v-77h-289v-31q108 -4 166 -51.5t58 -115.5q0 -112 -107 -161l-50 68q71 25 71 93q0 83 -138 89v-259q-189 -42 -189 -168q0 -52 39 -81.5t103 -29.5q60 0 93 23.5t33 58.5
q0 24 -16 39t-40 15q-31 0 -53 -19l-42 72q38 33 97 33q60 0 101.5 -38t41.5 -104q0 -76 -60 -121t-155 -45q-107 0 -170 55t-63 141q0 124 112 189l-191 96v85q112 108 271 131v36h-338v77h515q3 18 3 32q0 41 -26 58.5t-82 17.5h-146q-96 0 -139 41t-43 103q0 10 2 28z
M321 273h5q-8 101 -8 183v1q-104 -22 -182 -91z" />
    <glyph glyph-name="bnTT_TTA" horiz-adv-x="645" 
d="M244 573v-315q0 -34 20 -52t56 -18q60 0 102.5 42t42.5 103q0 32 -16 51t-47 19q-36 0 -54 -28l-46 73q41 41 103 41q66 0 108.5 -42t42.5 -113q0 -53 -22 -100q51 -54 51 -136q0 -100 -65.5 -159t-175.5 -59q-111 0 -198.5 67.5t-131.5 180.5l70 56q37 -101 103.5 -160
t156.5 -59q69 0 109 36.5t40 97.5q0 36 -14 61q-65 -57 -158 -57q-78 0 -122.5 40.5t-44.5 107.5v322h-174v77h471q3 18 3 32q0 41 -26 58.5t-82 17.5h-143q-96 0 -139 41t-43 103q0 19 2 28l88 16l-3 -30q0 -77 100 -77h154q80 0 131.5 -39.5t51.5 -112.5q0 -17 -3 -37h123
v-77h-421z" />
    <glyph glyph-name="bnNN_TTA" horiz-adv-x="876" 
d="M509 573v-370q0 -31 17 -50t51 -19q61 0 107.5 48t46.5 111q0 36 -16.5 57.5t-47.5 21.5q-35 0 -54 -28l-46 72q40 42 103 42q67 0 109 -44.5t42 -119.5q0 -94 -72 -170t-177 -76q-71 0 -112 41.5t-41 106.5v118q0 253 -162 253q-61 0 -95.5 -34.5t-34.5 -89.5
q0 -50 30 -78.5t79 -28.5q43 0 76 26l30 -81q-43 -30 -108 -30q-91 0 -145 54.5t-54 137.5q0 91 57.5 149t157.5 58q112 0 165 -78h4v78h292q3 18 3 32q0 41 -26 58.5t-82 17.5h-146q-96 0 -139 41t-43 103q0 10 2 28l88 16l-3 -30q0 -77 101 -77h156q79 0 130.5 -39.5
t51.5 -112.5q0 -17 -3 -37h95v-77h-387z" />
    <glyph glyph-name="bnN_TTA" horiz-adv-x="827" 
d="M847 573h-388v-371q0 -31 17 -50t51 -19q61 0 107.5 48t46.5 111q0 36 -16 57.5t-47 21.5q-34 0 -55 -28l-46 72q40 42 103 42q67 0 109 -44.5t42 -119.5q0 -94 -72 -170t-177 -76q-71 0 -112 40.5t-41 103.5q-16 85 -57.5 146t-108.5 61q-36 0 -55 -18t-19 -47
q0 -30 23 -57l-74 -30q-35 38 -35 92q0 62 41.5 101.5t112.5 39.5q118 0 175 -105h4q-9 68 -9 174v25h-387v77h681q3 18 3 32q0 41 -26 58.5t-82 17.5h-146q-96 0 -139 41t-43 103q0 10 2 28l88 16l-3 -30q0 -77 101 -77h156q79 0 130.5 -39.5t51.5 -112.5q0 -17 -3 -37h96
v-77z" />
    <glyph glyph-name="bnL_TTA" horiz-adv-x="1013" 
d="M1033 573h-386v-370q0 -31 17 -50t51 -19q61 0 107 48t46 111q0 36 -16 57.5t-47 21.5q-34 0 -55 -28l-45 72q38 42 103 42q66 0 108.5 -44.5t42.5 -119.5q0 -94 -72 -170t-178 -76q-70 0 -111 41.5t-41 106.5v149q-8 21 -29 37t-52 16q-35 0 -57 -25t-22 -68v-37h-87v36
q0 45 -22.5 68t-58.5 23q-35 0 -59.5 -27t-24.5 -74q0 -57 34.5 -90t87.5 -33q39 0 69 17l16 -82q-42 -17 -87 -17q-93 0 -153 57.5t-60 146.5q0 85 50 135.5t121 50.5q54 0 86 -22t44 -53h4q9 33 37 55.5t72 22.5q58 0 86 -33h5v124h-577v77h868q4 16 4 32q0 41 -26 58.5
t-82 17.5h-146q-96 0 -139 41t-43 103q0 19 2 28l88 16l-3 -30q0 -77 100 -77h156q80 0 131.5 -39.5t51.5 -112.5q0 -17 -3 -37h94v-77z" />
    <glyph glyph-name="bnSS_TTA" horiz-adv-x="563" 
d="M-20 573v77h423q3 18 3 32q0 41 -26 58.5t-82 17.5h-111q-96 0 -139 41t-43 103q0 19 2 28l88 16q-3 -15 -3 -30q0 -77 100 -77h122q79 0 130.5 -39.5t51.5 -112.5q0 -17 -3 -37h90v-77h-129q37 -48 37 -118q0 -77 -42.5 -128t-113.5 -66q-29 -10 -39 -14t-35 -15
t-35.5 -18t-28 -20.5t-25 -26.5t-14 -31t-6.5 -39q0 -54 39.5 -84t102.5 -30q59 0 92 24t33 60q0 24 -15.5 39t-39.5 15q-31 0 -53 -19l-42 72q37 33 96 33q61 0 102.5 -38t41.5 -104q0 -76 -60 -122t-155 -46q-108 0 -170.5 55t-62.5 143q0 122 111 186q-99 51 -99 174
q0 69 36 118h-129zM281 576q-38 0 -68 -19l177 -159q13 25 13 57q0 51 -34 86t-88 35zM161 455q0 -53 33.5 -86t86.5 -33q41 0 69 18l-177 156q-12 -26 -12 -55z" />
    <glyph glyph-name="bnP_TTA" horiz-adv-x="938" 
d="M341 930l88 16l-3 -30q0 -77 101 -77h155q80 0 131.5 -39.5t51.5 -112.5q0 -17 -3 -37h96v-77h-388v-379q0 -31 17 -50t51 -19q61 0 107 48t46 111q0 36 -16 57.5t-47 21.5q-34 0 -55 -28l-45 72q38 42 103 42q66 0 108.5 -44.5t42.5 -119.5q0 -94 -72 -170t-178 -76
q-70 0 -111 41.5t-41 106.5v130q0 42 -7 77l-292 -196l-45 69l94 63q-19 81 -91 103q-25 11 -58 12l-46 73q36 55 101.5 95.5t148.5 40.5q142 0 208 -112l3 1q-14 31 -14 95v12h290q3 18 3 32q0 41 -26 58.5t-82 17.5h-146q-96 0 -139 41t-43 103q0 19 2 28zM144 510
q56 -6 98 -40.5t58 -93.5l147 98q-49 100 -157 100q-90 0 -146 -64z" />
    <glyph glyph-name="bnPH_TTA" horiz-adv-x="811" 
d="M310 946q-3 -15 -3 -30q0 -77 100 -77h156q80 0 131 -39.5t51 -112.5q0 -17 -3 -37h89v-77h-674v-4l121 -108v-71l-132 -92l230 -115h4q-9 97 -9 196v113q59 28 137 28q89 0 146.5 -42.5t57.5 -125.5q0 -118 -125 -169l-48 73q85 30 85 94q0 40 -29 63t-73 23
q-37 0 -59 -7v-469q0 -77 76 -77q58 0 101.5 35t43.5 89q0 30 -17 48.5t-46 18.5q-34 0 -55 -28l-45 72q38 42 102 42q66 0 109 -41t43 -112q0 -89 -67 -149.5t-170 -60.5q-78 0 -122 42t-44 115v139l-321 159v81l139 96l-131 119v25h-79v77h672q3 18 3 32q0 41 -26 58.5
t-82 17.5h-145q-96 0 -139.5 41t-43.5 103q0 10 2 28z" />
    <glyph glyph-name="bnS_TTA" horiz-adv-x="676" 
d="M165 946q-3 -15 -3 -30q0 -77 100 -77h156q80 0 131.5 -39.5t51.5 -112.5q0 -17 -3 -37h98v-77h-95q6 -29 6 -57q0 -56 -25.5 -96.5t-72.5 -56.5q-14 -5 -45 -15.5t-49.5 -17.5t-46 -18.5t-44 -24.5t-33.5 -30t-25 -39t-8 -48q0 -53 39.5 -82.5t102.5 -29.5q59 0 92 23.5
t33 59.5q0 24 -15.5 38.5t-40.5 14.5q-33 0 -52 -19l-43 72q38 33 97 33q61 0 103 -37.5t42 -103.5q0 -76 -61 -122t-155 -46q-107 0 -171.5 56t-64.5 142q0 84 53 137.5t129 80.5q-33 26 -52 71q-41 -99 -134 -99q-41 0 -77.5 20.5t-60.5 54.5l52 57q44 -53 86 -53
q74 0 87 135h-267v77h527q3 18 3 32q0 41 -26 58.5t-82 17.5h-145q-96 0 -139 41t-43 103q0 19 2 28zM513 573h-170q2 -59 28.5 -99t75.5 -40q38 0 55.5 24t17.5 63q0 27 -7 52z" />
    <glyph glyph-name="bnNN_TTHA" horiz-adv-x="839" 
d="M796 224q0 -94 -61.5 -157.5t-163.5 -63.5q-112 0 -179 73t-67 187q39 11 58 19q0 41 -2 73t-10.5 75.5t-24 72.5t-45 49.5t-70.5 20.5q-51 0 -79.5 -30t-28.5 -79q0 -42 26.5 -68.5t70.5 -26.5q41 0 67 17l22 -75q-39 -22 -94 -22q-82 0 -131 48.5t-49 127.5
q0 82 51 136t144 54q111 0 175 -82t64 -226v-8q37 43 37 117v87q-58 61 -90 112.5t-38 77t-6 54.5q0 65 41.5 108t106.5 47h28l18 -82q-5 1 -15 1q-40 0 -63.5 -21.5t-23.5 -57.5q0 -57 62 -132h333v-77h-274q109 -115 160 -192.5t51 -156.5zM426 215q4 -50 42 -89.5
t105 -39.5q59 0 96 39.5t37 97.5q0 41 -20.5 85t-42.5 72.5t-60 72.5q-2 -42 -7 -60q-15 -137 -150 -178z" />
    <glyph glyph-name="bnN_TTHA" horiz-adv-x="740" 
d="M696 224q0 -94 -61 -157.5t-164 -63.5q-110 0 -180 73.5t-70 185.5q77 21 119 51q-64 108 -149 108q-35 0 -54 -17t-19 -46q0 -33 22 -58l-75 -29q-33 36 -33 91q0 62 40.5 101.5t110.5 39.5q130 0 210 -124q13 32 13 77v87l-26 30h-400v77h344q-51 72 -51 137
q0 73 48.5 115.5t126.5 40.5l18 -83q-44 2 -72.5 -18.5t-28.5 -59.5q0 -54 61 -132h334v-77h-271q110 -123 158.5 -197t48.5 -152zM327 215q3 -49 42 -89t104 -40q60 0 96.5 39.5t36.5 97.5q0 41 -20 84.5t-42.5 72.5t-60.5 72q0 -36 -2 -48q-12 -144 -154 -189z" />
    <glyph glyph-name="bnSS_TTHA" horiz-adv-x="692" 
d="M33 451q0 75 36 122h-89v77h298q-52 63 -52 137q0 72 48.5 116t125.5 40l18 -83q-46 5 -74 -16.5t-28 -61.5q0 -57 62 -132h334v-77h-275q59 -62 87.5 -94.5t62 -78t46.5 -84t13 -80.5q0 -93 -61 -156.5t-164 -63.5q-104 0 -173 65.5t-78 178.5q-63 18 -100 68t-37 123z
M268 252q8 -68 48 -110.5t107 -42.5q60 0 96.5 39.5t36.5 96.5q0 38 -17 76t-38 64.5t-54 64.5q-9 9 -13 14q0 -51 -17 -91t-45 -62t-53 -33.5t-51 -15.5zM359 456q0 52 -34 87.5t-86 35.5q-41 0 -73 -26l180 -158q13 29 13 61zM122 456q0 -56 32.5 -91t84.5 -35q39 0 67 19
l-175 153q-9 -21 -9 -46z" />
    <glyph glyph-name="bnDD_DDA" horiz-adv-x="1158" 
d="M839 130q80 0 128.5 43t48.5 111q0 35 -14 59q-75 -61 -156 -61q-60 0 -93 35.5t-33 93.5v162h-381v-111q0 -49 41 -49q26 0 72.5 21.5t93.5 62.5q34 -23 58 -66.5t24 -96.5q0 -25 -5 -53q30 -73 87.5 -112t128.5 -39zM1178 573h-365v-158q0 -48 42 -48q25 0 73 23t95 64
q33 -22 58 -67t25 -98q0 -107 -73 -175.5t-195 -68.5q-168 0 -262 137q-72 -88 -214 -88q-149 0 -236 104.5t-93 260.5l88 19q4 -143 71 -221t171 -78q80 0 127.5 41.5t47.5 109.5q0 35 -14 57q-70 -59 -154 -59q-58 0 -90.5 35.5t-32.5 94.5v115h-267v77h1198v-77z" />
    <glyph glyph-name="bnNN_DDA" horiz-adv-x="784" 
d="M68 466q0 86 52 136t147 50q127 0 182 -106q18 27 62 104h53q58 -33 95 -82.5t37 -109.5q0 -80 -50 -140q67 -55 67 -143q0 -104 -77.5 -162.5t-193.5 -58.5q-136 0 -238.5 71.5t-167.5 198.5l75 51q118 -234 333 -234q81 0 128.5 38t47.5 97q0 53 -37 87
q-33 -24 -82 -48l-55 72q81 36 121.5 76.5t40.5 94.5t-54 95q-35 -65 -73 -113h-67q-13 60 -47.5 95t-92.5 35q-55 0 -84.5 -28t-29.5 -78q0 -47 28.5 -74t75.5 -27t78 24l29 -78q-41 -31 -109 -31q-90 0 -142 54t-52 134z" />
    <glyph glyph-name="bnN_DDA" horiz-adv-x="782" 
d="M-20 573v77h822v-77h-354v-222q0 -48 41 -48q26 0 74.5 23t95.5 64q33 -22 57.5 -67t24.5 -99q0 -108 -72.5 -175.5t-194.5 -67.5q-115 0 -199 66t-124 170l73 56q36 -100 101 -153.5t150 -53.5q79 0 127.5 43t48.5 111q0 37 -14 59q-73 -61 -158 -61q-76 0 -107 59
q0 1 -1 1v1q-81 153 -179 153q-36 0 -55 -17.5t-19 -45.5q0 -31 23 -59l-75 -30q-34 37 -34 92q0 63 41 102t112 39q112 0 178 -93l4 1q-8 52 -9 152h-378z" />
    <glyph glyph-name="bnB_DDA" horiz-adv-x="729" 
d="M305 309v161q-88 -37 -169 -98l169 -66v3zM105 157l69 61q35 -93 100 -141.5t147 -48.5q80 0 128.5 43t48.5 111q0 34 -14 58q-72 -60 -154 -60q-32 0 -55 10v-1l-326 130v89q46 42 118 84.5t138 64.5v16h-324v77h768v-77h-355v-260q0 -48 41 -48q26 0 74.5 22.5
t95.5 63.5q33 -21 57.5 -66t24.5 -99q0 -108 -72.5 -175.5t-194.5 -67.5q-107 0 -190.5 59.5t-124.5 154.5z" />
    <glyph glyph-name="bnL_DDA" horiz-adv-x="953" 
d="M359 176l71 62q31 -75 88.5 -115t129.5 -40q79 0 127.5 43.5t48.5 111.5q0 38 -14 58q-73 -61 -156 -61q-59 0 -92 35.5t-33 93.5v2q-7 20 -27.5 36t-50.5 16q-34 0 -55 -24.5t-21 -66.5v-36h-83v35q0 44 -22 66.5t-57 22.5t-58 -26.5t-23 -74.5q0 -56 31 -87.5t81 -31.5
q30 0 58 12l12 -78q-33 -14 -71 -14q-89 0 -144 55.5t-55 142.5q0 83 48 133t116 50q94 0 124 -73h4q9 32 36 54t69 22q56 0 84 -33h4v107h-549v77h993v-77h-352v-205q0 -48 41 -48q26 0 74.5 23t95.5 64q33 -22 57.5 -67t24.5 -99q0 -108 -72.5 -175.5t-194.5 -67.5
q-98 0 -172.5 48t-115.5 130z" />
    <glyph glyph-name="bnNN_DDHA" horiz-adv-x="876" 
d="M509 573v-370q0 -31 17 -50t51 -19q61 0 107.5 48t46.5 111q0 36 -16.5 57.5t-47.5 21.5q-35 0 -54 -28l-46 72q40 42 103 42q67 0 109 -44.5t42 -119.5q0 -94 -72 -170t-177 -76q-71 0 -112 41.5t-41 106.5v118q0 253 -161 253q-63 0 -97 -34.5t-34 -90.5q0 -50 30 -78
t79 -28q44 0 76 25l30 -80q-41 -30 -108 -30q-91 0 -145 54.5t-54 137.5q0 91 57.5 149t157.5 58q112 0 165 -78h4v78h477v-77h-387z" />
    <glyph glyph-name="bnN_DDHA" horiz-adv-x="829" 
d="M-20 573v77h869v-77h-392v-375q0 -32 17.5 -51t52.5 -19q61 0 108.5 48.5t47.5 113.5q0 37 -16 59t-46 22q-35 0 -57 -30l-45 72q40 44 104 44q65 0 108 -46t43 -121q0 -97 -71 -172t-176 -75q-75 0 -117.5 41t-42.5 107v5q-19 87 -62 147.5t-110 60.5q-36 0 -55 -17.5
t-19 -46.5q0 -30 23 -58l-74 -29q-35 39 -35 91q0 63 41.5 102.5t112.5 39.5q61 0 108.5 -30.5t74.5 -83.5h4q-9 63 -9 174v27h-387z" />
    <glyph glyph-name="bnB_DDHA" horiz-adv-x="794" 
d="M814 573h-390v-387q0 -32 19 -51t56 -19q61 0 106 48t45 114q0 36 -17 58.5t-50 22.5q-34 0 -55 -19l-36 75q40 30 93 30q68 0 111.5 -46t43.5 -121q0 -97 -68.5 -172t-172.5 -75q-60 0 -99.5 25.5t-55.5 69.5l-306 161v86q63 54 147.5 102t150.5 70v28h-356v77h834v-77z
M336 227v228q-120 -51 -211 -120z" />
    <glyph glyph-name="bnNN_NNA" horiz-adv-x="636" 
d="M542 -59h-93v71q0 113 -41 183.5t-128 70.5q-61 0 -95 -34.5t-34 -90.5q0 -50 30 -78.5t79 -28.5q43 0 76 26l30 -80q-42 -31 -108 -31q-91 0 -145 55t-54 138q0 104 72 161q-72 51 -72 150q0 91 57.5 149t157.5 58q123 0 185 -103l4 2q-13 43 -13 154v37h92v-100h114
v-77h-114v-632zM448 374q-5 90 -45.5 146.5t-120.5 56.5q-63 0 -97 -34.5t-34 -90.5q0 -39 19.5 -67.5t52.5 -40.5q32 4 51 4q119 0 182 -102l5 1q-9 41 -13 127z" />
    <glyph glyph-name="bnH_NNA" horiz-adv-x="540" 
d="M96 229h59q105 0 158 34t53 95q0 43 -28 68.5t-74 25.5q-39 0 -63.5 -20.5t-24.5 -54.5q0 -38 34 -58l-63 -47q-60 35 -60 108q0 67 49.5 109t127.5 42q83 0 135.5 -48.5t52.5 -126.5q0 -77 -47 -121t-124 -55v-4q72 -19 139 -50l129 -59l-50 -66q-9 4 -25.5 11.5
t-23.5 10.5v-321h-87v38q0 103 -34.5 166.5t-111.5 63.5q-44 0 -70.5 -25.5t-26.5 -69.5q0 -39 25 -61t65 -22q37 0 63 14l20 -76q-39 -17 -86 -17q-78 0 -125.5 44.5t-47.5 118.5q0 76 45.5 124t126.5 48q61 0 103.5 -26.5t62.5 -63.5l4 1q-10 33 -12 103q-114 50 -164 65
t-104 21v81zM-20 573v77h580v-77h-580z" />
    <glyph glyph-name="bnSS_NNA" horiz-adv-x="812" 
d="M146 573v-3l243 -195v198h-243zM397 120q-7 89 -8 162l-123 99l-125 -109l252 -152h4zM521 46l-62 -61l-407 242v82l140 121l-143 118v25h-69v77h499v-57q47 52 126 52q68 0 108 -39t40 -100q0 -42 -20 -71.5t-55 -42.5v-5q38 -11 63 -41.5t25 -76.5q0 -62 -40.5 -104.5
t-111.5 -42.5q-85 0 -135 58v-109zM596 565q-48 0 -82 -46t-34 -131q0 -82 33.5 -133t92.5 -51q33 0 52 20t19 50q0 34 -23 53.5t-64 19.5h-25v79h22q38 0 58 20.5t20 55.5q0 28 -18 45.5t-51 17.5z" />
    <glyph glyph-name="bnK_SS_NNA" horiz-adv-x="901" 
d="M556 135q-9 88 -9 198v9h-60q-77 0 -121 43.5t-44 124.5v63h-182q38 -54 42 -122q68 -14 115.5 -69.5t47.5 -134.5v-2q71 -7 129.5 -41t81.5 -69zM638 -299h-88v47q0 243 -150 243q-50 0 -78.5 -27t-28.5 -76q0 -42 26 -66t70 -24q43 0 80 35l25 -76q-47 -39 -108 -39
q-82 0 -131 47t-49 124q0 80 48 130t135 50q119 0 171 -94l4 1q-3 10 -7 30q-26 62 -86.5 107.5t-135.5 54.5q-13 -41 -37.5 -60.5t-50.5 -19.5q-29 0 -47.5 17t-18.5 46t21.5 53.5t59.5 35.5q0 50 -24.5 84t-65.5 49q-12 -37 -36 -56t-50 -19q-29 0 -47 17t-18 47t21 53.5
t57 33.5q-6 75 -58 124h-61v77h941v-77h-283v-148h32q89 0 138 -43.5t49 -115.5q0 -115 -104 -162l-53 68q30 11 50 35.5t20 59.5q0 75 -96 75h-36v-641zM484 425h63v148h-136v-65q0 -83 73 -83z" />
    <glyph glyph-name="bnK_TA" horiz-adv-x="936" 
d="M-20 573v77h976v-77h-976zM674 262q28 -11 58 -11q36 0 58.5 23t22.5 63q0 41 -24.5 64.5t-66.5 23.5q-24 0 -44.5 -9t-39 -30.5t-29.5 -38.5t-31 -51q-11 -23 -33 -47q90 -51 90 -144q0 -82 -57 -133.5t-153 -51.5q-63 0 -118.5 24.5t-98 67t-77.5 102.5t-59 128
t-42 147l82 36q42 -196 122 -307t192 -111q55 0 85.5 29t30.5 72q0 60 -60 91q-34 -21 -67 -35l-60 64q76 31 115 67.5t39 82.5q0 30 -19 48t-54 18q-43 0 -73.5 -29t-42.5 -66l-74 46q19 58 70 94.5t119 36.5q54 0 92.5 -23t56.5 -62q55 67 141 67q76 0 126.5 -46.5
t50.5 -123.5q0 -79 -46 -124.5t-114 -45.5q-51 0 -87 18z" />
    <glyph glyph-name="bnT_TA" horiz-adv-x="690" 
d="M-20 573v77h730v-77h-730zM353 228q76 31 115 67.5t39 82.5q0 29 -19.5 47.5t-53.5 18.5q-43 0 -73.5 -29t-42.5 -66l-74 46q18 58 69.5 94.5t118.5 36.5q76 0 119.5 -43t43.5 -107q0 -71 -50 -125q93 -50 93 -146q0 -82 -57 -133.5t-151 -51.5q-79 0 -145.5 36.5
t-114.5 103t-81.5 148t-55.5 181.5l82 36q42 -196 122 -307t192 -111q55 0 85.5 29t30.5 72q0 29 -17 53.5t-46 38.5q-30 -20 -69 -36z" />
    <glyph glyph-name="bnN_TA" horiz-adv-x="637" 
d="M192 436q-25 0 -40.5 -15t-15.5 -39q0 -31 23 -58l-75 -30q-35 35 -35 92q0 59 35.5 96t100.5 37q38 0 71.5 -14t53 -31.5t46 -31.5t52.5 -14q35 0 52 21t17 51q0 32 -18.5 52.5t-55.5 20.5h-423v77h677v-77h-117q25 -33 25 -86q0 -65 -41 -106q61 -54 61 -158
q0 -107 -65 -172.5t-172 -65.5q-104 0 -179 64.5t-120 168.5l70 51q34 -92 92.5 -148.5t135.5 -56.5q71 0 112 45t41 116q0 51 -22 83.5t-65 32.5q-28 0 -46 -17t-18 -48q0 -46 41 -66l-58 -50q-31 16 -50.5 49t-19.5 73q0 61 40 99q-8 5 -26 18.5t-27.5 19.5t-25.5 11.5
t-31 5.5z" />
    <glyph glyph-name="bnP_TA" horiz-adv-x="710" 
d="M142 513q51 -7 92.5 -37t60.5 -86l148 103q-54 83 -155 83q-88 0 -146 -63zM131 277l95 66q-25 85 -109 101q-13 4 -43 5l-48 68q36 57 103 98.5t154 41.5q82 0 136.5 -35t82.5 -83h3q-18 54 -18 175v36h93v-100h133v-77h-133v-271q45 -24 69.5 -71.5t24.5 -108.5
q0 -107 -66 -172t-174 -65q-107 0 -189 69t-126 180l75 51q82 -218 240 -218q72 0 112.5 43t40.5 114q0 50 -22.5 82.5t-65.5 32.5q-28 0 -46 -17.5t-18 -47.5q0 -45 41 -67l-58 -51q-70 40 -70 124q0 59 38.5 98.5t102.5 42.5q0 53 -12 97l-301 -209z" />
    <glyph glyph-name="bnM_TA" horiz-adv-x="633" 
d="M-20 650h672v-77h-108q25 -33 25 -86q0 -69 -44 -109q57 -54 57 -154q0 -107 -65.5 -173t-171.5 -66q-105 0 -182 66t-120 174l71 51q35 -96 94 -153.5t136 -57.5q70 0 111 44.5t41 115.5q0 51 -21.5 83.5t-64.5 32.5q-28 0 -46 -17.5t-18 -48.5q0 -44 39 -66l-57 -50
q-69 44 -69 123q0 62 42 101q-5 3 -24.5 17.5t-27.5 19.5t-23.5 10.5t-29.5 5.5q-26 0 -41 -15t-15 -39q0 -31 23 -58l-75 -30q-35 35 -35 92q0 92 75 122q-10 40 -29 65h-119v77zM412 428q35 0 52 21t17 51q0 32 -18.5 52.5t-55.5 20.5h-207q10 -21 17 -56q45 -7 102 -48
t93 -41z" />
    <glyph glyph-name="bnL_TA" horiz-adv-x="779" 
d="M308 108q77 -132 199 -132q71 0 111.5 44.5t40.5 115.5q0 51 -21.5 83.5t-64.5 32.5q-28 0 -46 -17t-18 -47q0 -45 40 -67l-57 -50q-32 17 -51 49t-19 73q0 50 28 86t77 48v53q-6 19 -26.5 35.5t-49.5 16.5q-33 0 -53 -24.5t-20 -66.5v-32h-84v31q0 43 -22 66t-58 23
q-35 0 -57 -26.5t-22 -72.5q0 -55 30 -84t76 -29q32 0 59 12l16 -82q-31 -14 -76 -14q-85 0 -139.5 55t-54.5 142q0 82 47.5 132.5t115.5 50.5q95 0 126 -71h4q25 74 102 74q51 0 82 -36h4v93h-547v77h819v-77h-182v-246q62 -15 95 -67.5t33 -124.5q0 -107 -65.5 -173
t-172.5 -66q-80 0 -146.5 41t-111.5 110z" />
    <glyph glyph-name="bnSH_TA" horiz-adv-x="759" 
d="M75 573h-95v77h97q108 0 155 -73q48 73 145 73q51 0 85 -18.5t47 -38.5h4q-11 51 -11 122v35h90v-100h187v-77h-187v-280q65 -15 100.5 -68t35.5 -128q0 -110 -67 -176t-177 -66q-123 0 -210 87t-130 224l76 55q38 -134 105 -207.5t158 -73.5q73 0 114.5 43t41.5 115
q0 52 -22.5 84.5t-65.5 32.5q-28 0 -46.5 -18t-18.5 -47q0 -46 41 -68l-60 -53q-32 17 -51.5 51t-19.5 76q0 50 27.5 86.5t76.5 49.5v142q0 64 -32 98t-87 34q-45 0 -74 -28t-29 -78q0 -51 29 -78.5t77 -27.5q28 0 41 6v-83q-24 -6 -44 -6q-98 0 -150 74q-46 -75 -148 -75
q-25 0 -57 8v84q20 -10 54 -10q51 0 79 29t28 78q0 55 -29 84.5t-83 29.5z" />
    <glyph glyph-name="bnS_TA" horiz-adv-x="680" 
d="M138 301q34 -101 95 -163.5t143 -62.5q71 0 111.5 45t40.5 116q0 51 -21.5 83.5t-65.5 32.5q-28 0 -46 -17t-18 -48q0 -46 41 -66l-57 -50q-32 16 -51 48.5t-19 73.5q0 66 47 105q-25 23 -40 60q-38 -102 -135 -102q-82 0 -138 76l53 57q45 -54 85 -54q73 0 88 138h-271
v77h720v-77h-95q6 -29 6 -57q0 -86 -53 -128q56 -56 56 -154q0 -107 -65.5 -172.5t-172.5 -65.5q-109 0 -187.5 71t-121.5 182zM516 573h-170q2 -59 29 -99t75 -40q38 0 55.5 24t17.5 63q0 32 -7 52z" />
    <glyph glyph-name="bnT_THA" horiz-adv-x="819" 
d="M473 430q0 69 -38 111q-34 -70 -57 -109h-76q0 143 -88 143q-38 0 -59.5 -27.5t-21.5 -69.5q0 -44 22.5 -69t64.5 -25q28 0 49 11l18 -74q-31 -18 -79 -18q-74 0 -118.5 47t-44.5 129q0 80 43.5 130.5t121.5 50.5q52 0 89 -29.5t53 -76.5q13 23 49 96h49
q115 -83 115 -220q0 -227 -286 -272v-4l356 -117h4q-7 92 -7 195v518h93v-100h114v-77h-114v-565l48 -17l-60 -70l-604 199v99q364 6 364 211z" />
    <glyph glyph-name="bnN_THA" horiz-adv-x="608" 
d="M-20 650h648v-77h-93q25 -35 25 -86q0 -76 -54 -116q47 -50 47 -127q0 -82 -50 -129t-137 -58v-4q41 -10 134 -65l77 -46l-63 -62q-166 103 -214.5 126.5t-110.5 30.5v77h66q208 0 208 130q0 44 -27.5 71.5t-72.5 27.5q-37 0 -60 -20t-23 -54q0 -42 42 -63l-64 -49
q-70 37 -70 119q0 86 76 127q-44 33 -77 33q-26 0 -41.5 -15t-15.5 -39q0 -31 23 -58l-75 -30q-35 37 -35 92q0 59 35.5 96t100.5 37q38 0 71.5 -14t53 -31.5t46 -31.5t52.5 -14q35 0 52 21t17 51q0 32 -18 52.5t-55 20.5h-418v77z" />
    <glyph glyph-name="bnM_THA" horiz-adv-x="608" 
d="M-20 650h648v-77h-95q25 -33 25 -86q0 -77 -53 -116q48 -50 48 -127q0 -82 -50 -129t-137 -58v-4q41 -10 134 -65l77 -46l-63 -62q-166 103 -214.5 126.5t-110.5 30.5v77h66q208 0 208 130q0 44 -27.5 71.5t-72.5 27.5q-37 0 -60 -20t-23 -54q0 -42 42 -63l-64 -49
q-70 37 -70 119q0 84 76 127q-46 33 -79 33q-25 0 -40.5 -15t-15.5 -39q0 -31 23 -58l-75 -30q-35 37 -35 92q0 95 79 124q-7 34 -28 63h-113v77zM401 428q35 0 52 21t17 51q0 32 -18 52.5t-55 20.5h-203q10 -22 17 -57q36 -6 69.5 -28.5t62 -41t58.5 -18.5z" />
    <glyph glyph-name="bnS_THA" horiz-adv-x="675" 
d="M65 489q45 -54 85 -54q73 0 88 138h-258v77h715v-77h-103q6 -29 6 -57q0 -81 -50 -125q67 -51 67 -142q0 -84 -51.5 -131t-139.5 -57v-4q48 -13 137 -66l71 -43l-64 -62q-163 100 -209.5 123t-108.5 30v78h66q208 0 208 132q0 44 -27 70.5t-73 26.5q-37 0 -59.5 -20
t-22.5 -54q0 -40 41 -64l-65 -48q-68 34 -68 119q0 81 70 124q-20 20 -35 55q-38 -102 -135 -102q-82 0 -138 76zM503 573h-170q2 -59 29 -99t75 -40q38 0 55.5 24t17.5 63q0 32 -7 52z" />
    <glyph glyph-name="bnG_DA" horiz-adv-x="900" 
d="M433 650h487v-77h-399v-272q38 50 107 105.5t130 79.5l78 -44q-36 -107 -36 -253v-189h-93v190q0 104 28 192q-116 -76 -216 -220l-91 37v181q0 83 -44 136.5t-122 53.5q-47 0 -84 -21t-58 -52q34 13 74 13q61 0 103.5 -36t42.5 -99q0 -109 -120 -191l-66 62
q96 61 96 132q0 30 -22.5 48t-59.5 18q-40 0 -83 -17l-64 66q27 68 90.5 114t147.5 46q112 0 182 -93h4q-12 32 -12 86v4z" />
    <glyph glyph-name="bnD_DA" horiz-adv-x="830" 
d="M452 227v-34q40 50 111 108.5t131 82.5l78 -45q-36 -105 -36 -252v-178h-93v179q0 117 25 189q-58 -38 -115 -95.5t-102 -121.5l-92 44v94q0 129 27 206q-115 -75 -211 -216l-92 42v343h-103v77h871v-77h-675v-246q40 50 108.5 105t129.5 80l79 -45q-41 -121 -41 -240z
" />
    <glyph glyph-name="bnN_DA" horiz-adv-x="836" 
d="M856 573h-399v-272q40 50 108.5 105.5t128.5 79.5l79 -44q-37 -105 -37 -253v-189h-93v190q0 107 29 192q-118 -77 -217 -220l-91 37q-22 82 -62.5 140.5t-103.5 58.5q-36 0 -55 -18t-19 -47q0 -30 23 -57l-74 -30q-35 38 -35 92q0 62 41 101.5t112 39.5q61 0 107.5 -31
t70.5 -81h4q-9 63 -9 174v32h-384v77h876v-77z" />
    <glyph glyph-name="bnB_DA" horiz-adv-x="797" 
d="M692 0h-89v195q0 103 24 178q-107 -71 -216 -228l-356 165v81q40 37 112.5 81.5t152.5 70.5v30h-340v77h837v-77h-404v-286q40 51 108.5 108.5t128.5 81.5l78 -44q-36 -107 -36 -240v-193zM320 277v181q-98 -39 -173 -99z" />
    <glyph glyph-name="bnM_DA" horiz-adv-x="826" 
d="M-20 650h866v-77h-324q25 -33 25 -86q0 -51 -27.5 -91t-84.5 -50v-95q44 47 113.5 98.5t126.5 72.5l78 -44q-36 -107 -36 -240v-167h-90v169q0 102 24 173q-102 -67 -218 -196l-91 37v197q-33 10 -84 47.5t-84 37.5q-26 0 -41 -15t-15 -39q0 -31 23 -58l-75 -30
q-35 35 -35 92q0 97 81 124q-9 38 -29 63h-103v77zM390 428q35 0 52 21t17 51q0 32 -18.5 52.5t-55.5 20.5h-201q12 -27 18 -57q42 -8 97 -48t91 -40z" />
    <glyph glyph-name="bnL_DA" horiz-adv-x="1033" 
d="M926 0h-90v204q0 100 25 178q-116 -76 -216 -220l-91 37v156q-8 21 -28.5 37t-50.5 16q-35 0 -55.5 -25t-20.5 -68v-37h-88v36q0 45 -22 68t-59 23q-35 0 -58.5 -27t-23.5 -76q0 -57 31.5 -89t83.5 -32q39 0 69 17l16 -82q-42 -17 -87 -17q-93 0 -149.5 57t-56.5 147
q0 85 49.5 135.5t119.5 50.5q98 0 130 -74h4q23 77 107 77q54 0 84 -33h5v114h-574v77h1073v-77h-406v-272q39 50 107.5 105.5t129.5 79.5l78 -44q-36 -107 -36 -240v-202z" />
    <glyph glyph-name="bnG_DHA" horiz-adv-x="794" 
d="M512 750v-100h302v-77h-302v-291q99 41 158 57l69 -62q-24 -51 -24 -228v-92h-88v93q0 128 21 191q-89 -33 -136 -54v-266l47 -23l-58 -61l-347 171v88q117 75 270 147v137q0 83 -43 136.5t-121 53.5q-47 0 -84 -21t-58 -52q34 13 74 13q64 0 105 -37.5t41 -101.5
q0 -108 -112 -187l-71 58q93 63 93 131q0 30 -22.5 47t-60.5 17q-39 0 -82 -17l-64 73q27 68 90.5 114t147.5 46q112 0 182 -93h4q-18 49 -18 153v37h87zM246 53l182 -92h4q-7 88 -7 171v16q-105 -52 -179 -95z" />
    <glyph glyph-name="bnN_DHA" horiz-adv-x="752" 
d="M-20 573v77h792v-77h-305v-192q99 41 158 57l68 -61q-24 -51 -24 -228v-93h-87v93q0 126 20 190q-74 -26 -135 -53v-267l47 -22l-58 -61l-347 171v88q113 72 236 131q-60 93 -140 93q-36 0 -55 -17.5t-19 -45.5q0 -31 23 -59l-74 -30q-35 39 -35 92q0 63 41.5 102.5
t112.5 39.5q122 0 183 -108h4q-9 67 -9 174v6h-397zM201 152l182 -92h4q-7 87 -7 170v17q-105 -52 -179 -95z" />
    <glyph glyph-name="bnD_DHA" horiz-adv-x="732" 
d="M752 573h-584v-215q50 46 116 91t124 69l73 -44q-24 -68 -32 -165q95 40 153 55l69 -61q-24 -51 -24 -228v-102h-88v102q0 128 21 191q-50 -17 -135 -53v-268l46 -22l-58 -61l-347 171v88q126 81 272 149q6 89 24 144q-64 -41 -112 -79t-104 -97l-89 36v299h-97v77h772
v-77zM178 78l182 -92h4q-8 99 -8 170v17q-99 -49 -178 -95z" />
    <glyph glyph-name="bnB_DHA" horiz-adv-x="723" 
d="M56 79q91 60 205 118l-205 90v90q126 101 297 164v32h-373v77h763v-77h-302v-292q114 49 156 59l69 -62q-24 -51 -24 -228v-93h-87v93q0 124 16 190q-102 -41 -130 -53v-283l46 -21l-59 -62l-372 164v94zM360 -61q-7 88 -7 183v24q-109 -52 -208 -110l211 -97h4zM145 338
l209 -96l6 3q-7 85 -7 179v28q-119 -52 -208 -114z" />
    <glyph glyph-name="bnL_DHA" horiz-adv-x="916" 
d="M-20 573v77h956v-77h-303v-217q110 46 157 57l69 -61q-24 -51 -24 -228v-93h-87v93q0 126 16 190q-63 -22 -131 -52v-274l47 -22l-61 -64l-344 170v97q113 75 271 148v55q-8 21 -29 37t-51 16q-35 0 -56.5 -24.5t-21.5 -67.5v-37h-86v36q0 44 -22 66.5t-56 22.5
q-38 0 -61.5 -27t-23.5 -75q0 -89 81 -113l-32 -77q-66 17 -103.5 67.5t-37.5 122.5q0 84 49 134.5t122 50.5q50 0 82 -21t44 -50h4q10 32 39.5 53.5t69.5 21.5q57 0 84 -33h5v98h-566zM553 29q-7 87 -7 170v23q-107 -53 -184 -98l187 -95h4z" />
    <glyph glyph-name="bnK_NA" horiz-adv-x="705" 
d="M352 -76q-22 78 -63 129t-101 51q-34 0 -52.5 -17.5t-18.5 -45.5t21 -54l-76 -28q-31 38 -31 90q0 60 41 99t108 39q118 0 176 -110h4q-8 42 -10 111l-271 121v89q116 116 270 141v34h-369v77h745v-77h-288v-28q108 -5 166 -57t58 -122q0 -113 -106 -165l-51 68
q72 30 72 99q0 41 -38 67.5t-101 30.5v-542h-85zM357 277q-8 101 -8 180q-98 -23 -184 -95l188 -85h4z" />
    <glyph glyph-name="bnG_NA" horiz-adv-x="606" 
d="M512 -79h-84q-21 78 -62 129t-101 51q-34 0 -53 -17.5t-19 -46.5q0 -28 22 -53l-76 -29q-31 38 -31 91q0 60 41 99t108 39q117 0 176 -111l4 1q-10 39 -11 142v164q0 83 -44 136.5t-122 53.5q-92 0 -143 -73q33 13 72 13q69 0 110 -36.5t41 -100.5q0 -50 -26 -95.5
t-68 -77.5l-74 54q78 53 78 122q0 62 -84 62q-40 0 -83 -17l-64 72q27 71 90 115.5t148 44.5q112 0 182 -93h4q-18 49 -18 153v37h87v-100h114v-77h-114v-652z" />
    <glyph glyph-name="bnGH_NA" horiz-adv-x="604" 
d="M422 573h-249q-26 -26 -26 -63q0 -34 24 -51.5t59 -17.5q51 0 100 31l37 -75l-192 -114l251 -68h3q-7 81 -7 183v175zM425 -139q-21 75 -65 123t-105 48q-35 0 -54 -17.5t-19 -45.5t21 -54l-75 -28q-31 38 -31 90q0 61 41.5 99.5t109.5 38.5q122 0 181 -106h4
q-9 49 -10 119l-361 100v87l41 25q16 10 31.5 18t24.5 12t17 7t9 4v5q-61 5 -95.5 35.5t-34.5 83.5q0 35 19 68h-94v77h644v-77h-114v-712h-85z" />
    <glyph glyph-name="bnC_NA" horiz-adv-x="513" 
d="M166 478q6 -120 6 -143v-48q0 -58 60 -58q49 0 89.5 34t40.5 81q0 28 -15 43t-59 31l-41 14q-51 18 -77 46h-4zM343 -148q-20 74 -63 121.5t-103 47.5q-33 0 -51 -17t-18 -45q0 -30 22 -55l-75 -29q-33 38 -33 90q0 60 39.5 99.5t107.5 39.5q59 0 106 -28.5t73 -76.5l4 1
q-12 78 -12 149v24q-49 -26 -109 -26q-70 0 -110 37t-40 102v287h-101v77h553v-77h-358q14 -30 88 -55l55 -21q69 -24 100.5 -58.5t31.5 -94.5q0 -45 -21 -84v-408h-86z" />
    <glyph glyph-name="bnD_NA" horiz-adv-x="521" 
d="M541 573h-372v-213q40 43 104 90.5t121 69.5l74 -44q-30 -90 -30 -219v-318h-85q-21 76 -64 128t-102 52q-33 0 -51 -17t-18 -45q0 -30 22 -55l-75 -29q-33 38 -33 90q0 60 39.5 99.5t107.5 39.5q59 0 105.5 -30t73.5 -81h4q-12 84 -12 150v18q0 90 23 164
q-112 -74 -206 -181l-88 34v297h-99v77h561v-77z" />
    </font>
</defs>
</svg>
